SplineFontDB: 3.2
FontName: NKLDubai-Bold
FullName: NKL Dubai Bold
FamilyName: NKL Dubai
Weight: Bold
Copyright: Copyright (c) 2016 Dubai Executive Council. All rights reserved.\n\nModified by Niskala5570 for Malay Jawi, Javanese Pegon.etc support and removed some unimportant Latin glyph.\nhttps://github.com/niskala5570/pasuanjawi\n(23/5/2022)
Version: v2.872 Jawi 2022
ItalicAngle: 0
UnderlinePosition: -100
UnderlineWidth: 50
Ascent: 800
Descent: 200
InvalidEm: 0
LayerCount: 2
Layer: 0 1 "Back" 1
Layer: 1 1 "Fore" 0
XUID: [1021 382 1457897002 2800]
StyleMap: 0x0020
FSType: 8
OS2Version: 4
OS2_WeightWidthSlopeOnly: 1
OS2_UseTypoMetrics: 0
CreationTime: 1475835404
ModificationTime: 1653309594
PfmFamily: 17
TTFWeight: 700
TTFWidth: 5
LineGap: 0
VLineGap: 0
Panose: 2 11 8 3 3 4 3 3 2 4
OS2TypoAscent: 758
OS2TypoAOffset: 0
OS2TypoDescent: -246
OS2TypoDOffset: 0
OS2TypoLinegap: 200
OS2WinAscent: 1129
OS2WinAOffset: 0
OS2WinDescent: 559
OS2WinDOffset: 0
HheadAscent: 1129
HheadAOffset: 0
HheadDescent: -559
HheadDOffset: 0
OS2SubXSize: 650
OS2SubYSize: 600
OS2SubXOff: 0
OS2SubYOff: 75
OS2SupXSize: 650
OS2SupYSize: 600
OS2SupXOff: 0
OS2SupYOff: 350
OS2StrikeYSize: 50
OS2StrikeYPos: 337
OS2CapHeight: 648
OS2XHeight: 450
OS2Vendor: 'MONO'
OS2CodePages: 20000041.00000000
OS2UnicodeRanges: 80002067.80000000.00000008.00000000
Lookup: 1 0 0 "'aalt' Access All Alternates in Arabic lookup 0" { "'aalt' Access All Alternates in Arabic lookup 0 subtable"  } ['aalt' ('DFLT' <'dflt' > 'arab' <'URD ' 'dflt' > ) ]
Lookup: 3 0 0 "'aalt' Access All Alternates in Arabic lookup 1" { "'aalt' Access All Alternates in Arabic lookup 1 subtable"  } ['aalt' ('DFLT' <'dflt' > 'arab' <'URD ' 'dflt' > ) ]

StartChar: .notdef
Encoding: 521 -1 0
Width: 540
GlyphClass: 1
Flags: W
LayerCount: 2
Fore
SplineSet
80 0 m 1,0,-1
 80 688 l 1,1,-1
 460 688 l 1,2,-1
 460 0 l 1,3,-1
 80 0 l 1,0,-1
156 72 m 1,4,-1
 383 72 l 1,5,-1
 383 616 l 1,6,-1
 156 616 l 1,7,-1
 156 72 l 1,4,-1
EndSplineSet
PairPos2: "'kern' Horizontal Kerning in Arabic lookup 2 per glyph data 2" uni0671 dx=60 dy=0 dh=60 dv=0 dx=0 dy=0 dh=0 dv=0
PairPos2: "'kern' Horizontal Kerning in Arabic lookup 2 per glyph data 2" afii57410 dx=60 dy=0 dh=60 dv=0 dx=0 dy=0 dh=0 dv=0
PairPos2: "'kern' Horizontal Kerning in Arabic lookup 2 per glyph data 2" afii57411 dx=60 dy=0 dh=60 dv=0 dx=0 dy=0 dh=0 dv=0
PairPos2: "'kern' Horizontal Kerning in Arabic lookup 2 per glyph data 2" uniFE8E.short dx=60 dy=0 dh=60 dv=0 dx=0 dy=0 dh=0 dv=0
PairPos2: "'kern' Horizontal Kerning in Arabic lookup 2 per glyph data 2" afii57415.short dx=60 dy=0 dh=60 dv=0 dx=0 dy=0 dh=0 dv=0
PairPos2: "'kern' Horizontal Kerning in Arabic lookup 2 per glyph data 2" afii57415 dx=60 dy=0 dh=60 dv=0 dx=0 dy=0 dh=0 dv=0
PairPos2: "'kern' Horizontal Kerning in Arabic lookup 2 per glyph data 1" uniFEF3 dx=40 dy=0 dh=40 dv=0 dx=0 dy=0 dh=0 dv=0
PairPos2: "'kern' Horizontal Kerning in Arabic lookup 2 per glyph data 1" uniFB58 dx=40 dy=0 dh=40 dv=0 dx=0 dy=0 dh=0 dv=0
PairPos2: "'kern' Horizontal Kerning in Arabic lookup 2 per glyph data 1" afii57413 dx=40 dy=0 dh=40 dv=0 dx=0 dy=0 dh=0 dv=0
PairPos2: "'kern' Horizontal Kerning in Arabic lookup 2 per glyph data 1" uniFB94 dx=110 dy=0 dh=110 dv=0 dx=0 dy=0 dh=0 dv=0
PairPos2: "'kern' Horizontal Kerning in Arabic lookup 2 per glyph data 1" afii57509 dx=110 dy=0 dh=110 dv=0 dx=0 dy=0 dh=0 dv=0
PairPos2: "'kern' Horizontal Kerning in Arabic lookup 2 per glyph data 1" uniFB90 dx=110 dy=0 dh=110 dv=0 dx=0 dy=0 dh=0 dv=0
PairPos2: "'kern' Horizontal Kerning in Arabic lookup 2 per glyph data 1" uni06A9 dx=110 dy=0 dh=110 dv=0 dx=0 dy=0 dh=0 dv=0
PairPos2: "'kern' Horizontal Kerning in Arabic lookup 2 per glyph data 1" uniFEDB dx=110 dy=0 dh=110 dv=0 dx=0 dy=0 dh=0 dv=0
EndChar

StartChar: A
Encoding: 35 65 4
Width: 668
GlyphClass: 2
Flags: W
AnchorPoint: "Anchor-8" 0 0 basechar 0
AnchorPoint: "Anchor-7" 0 0 basechar 0
AnchorPoint: "Anchor-6" 334 648 basechar 0
AnchorPoint: "Anchor-5" 633 10 basechar 0
AnchorPoint: "Anchor-4" 334 0 basechar 0
LayerCount: 2
Fore
SplineSet
422 648 m 1,0,-1
 655 8 l 1,1,-1
 655 0 l 1,2,-1
 504 0 l 1,3,-1
 452 155 l 1,4,-1
 212 155 l 1,5,-1
 161 0 l 1,6,-1
 12 0 l 1,7,-1
 12 8 l 1,8,-1
 245 648 l 1,9,-1
 422 648 l 1,0,-1
250 269 m 1,10,-1
 414 269 l 1,11,-1
 331 516 l 1,12,-1
 250 269 l 1,10,-1
EndSplineSet
Substitution2: "Single Substitution lookup 23 subtable" ordfeminine
Substitution2: "'aalt' Access All Alternates in Arabic lookup 0 subtable" ordfeminine
PairPos2: "'kern' Horizontal Kerning in Arabic lookup 2 per glyph data 2" uni0671 dx=60 dy=0 dh=60 dv=0 dx=0 dy=0 dh=0 dv=0
PairPos2: "'kern' Horizontal Kerning in Arabic lookup 2 per glyph data 2" afii57410 dx=60 dy=0 dh=60 dv=0 dx=0 dy=0 dh=0 dv=0
PairPos2: "'kern' Horizontal Kerning in Arabic lookup 2 per glyph data 2" afii57411 dx=60 dy=0 dh=60 dv=0 dx=0 dy=0 dh=0 dv=0
PairPos2: "'kern' Horizontal Kerning in Arabic lookup 2 per glyph data 2" uniFE8E.short dx=60 dy=0 dh=60 dv=0 dx=0 dy=0 dh=0 dv=0
PairPos2: "'kern' Horizontal Kerning in Arabic lookup 2 per glyph data 2" afii57415.short dx=60 dy=0 dh=60 dv=0 dx=0 dy=0 dh=0 dv=0
PairPos2: "'kern' Horizontal Kerning in Arabic lookup 2 per glyph data 2" afii57415 dx=60 dy=0 dh=60 dv=0 dx=0 dy=0 dh=0 dv=0
PairPos2: "'kern' Horizontal Kerning in Arabic lookup 2 per glyph data 1" uniFEF3 dx=40 dy=0 dh=40 dv=0 dx=0 dy=0 dh=0 dv=0
PairPos2: "'kern' Horizontal Kerning in Arabic lookup 2 per glyph data 1" uniFB58 dx=40 dy=0 dh=40 dv=0 dx=0 dy=0 dh=0 dv=0
PairPos2: "'kern' Horizontal Kerning in Arabic lookup 2 per glyph data 1" afii57413 dx=40 dy=0 dh=40 dv=0 dx=0 dy=0 dh=0 dv=0
PairPos2: "'kern' Horizontal Kerning in Arabic lookup 2 per glyph data 1" uniFB94 dx=110 dy=0 dh=110 dv=0 dx=0 dy=0 dh=0 dv=0
PairPos2: "'kern' Horizontal Kerning in Arabic lookup 2 per glyph data 1" afii57509 dx=110 dy=0 dh=110 dv=0 dx=0 dy=0 dh=0 dv=0
PairPos2: "'kern' Horizontal Kerning in Arabic lookup 2 per glyph data 1" uniFB90 dx=110 dy=0 dh=110 dv=0 dx=0 dy=0 dh=0 dv=0
PairPos2: "'kern' Horizontal Kerning in Arabic lookup 2 per glyph data 1" uni06A9 dx=110 dy=0 dh=110 dv=0 dx=0 dy=0 dh=0 dv=0
PairPos2: "'kern' Horizontal Kerning in Arabic lookup 2 per glyph data 1" uniFEDB dx=110 dy=0 dh=110 dv=0 dx=0 dy=0 dh=0 dv=0
EndChar

StartChar: B
Encoding: 36 66 5
Width: 610
GlyphClass: 2
Flags: W
AnchorPoint: "Anchor-8" 0 0 basechar 0
AnchorPoint: "Anchor-7" 0 0 basechar 0
AnchorPoint: "Anchor-6" 300 648 basechar 0
AnchorPoint: "Anchor-5" 213 10 basechar 0
AnchorPoint: "Anchor-4" 300 0 basechar 0
LayerCount: 2
Fore
SplineSet
516.5 306.5 m 128,-1,1
 545 283 545 283 558.5 253 c 128,-1,2
 572 223 572 223 572 190 c 0,3,4
 572 99 572 99 508 49.5 c 128,-1,5
 444 0 444 0 325 0 c 2,6,-1
 71 0 l 1,7,-1
 71 648 l 1,8,-1
 308 648 l 2,9,10
 385 648 385 648 438.5 626.5 c 128,-1,11
 492 605 492 605 519 566.5 c 128,-1,12
 546 528 546 528 546 476 c 0,13,14
 546 433 546 433 521 396.5 c 128,-1,15
 496 360 496 360 446 341 c 1,16,0
 488 330 488 330 516.5 306.5 c 128,-1,1
213 536 m 1,17,-1
 213 385 l 1,18,-1
 292 385 l 2,19,20
 402 385 402 385 402 464 c 0,21,22
 402 499 402 499 377.5 517.5 c 128,-1,23
 353 536 353 536 306 536 c 2,24,-1
 213 536 l 1,17,-1
400 136.5 m 128,-1,26
 426 159 426 159 426 197 c 0,27,28
 426 234 426 234 399 256 c 128,-1,29
 372 278 372 278 317 278 c 2,30,-1
 213 278 l 1,31,-1
 213 114 l 1,32,-1
 313 114 l 2,33,25
 374 114 374 114 400 136.5 c 128,-1,26
EndSplineSet
PairPos2: "'kern' Horizontal Kerning in Arabic lookup 2 per glyph data 2" uni0671 dx=60 dy=0 dh=60 dv=0 dx=0 dy=0 dh=0 dv=0
PairPos2: "'kern' Horizontal Kerning in Arabic lookup 2 per glyph data 2" afii57410 dx=60 dy=0 dh=60 dv=0 dx=0 dy=0 dh=0 dv=0
PairPos2: "'kern' Horizontal Kerning in Arabic lookup 2 per glyph data 2" afii57411 dx=60 dy=0 dh=60 dv=0 dx=0 dy=0 dh=0 dv=0
PairPos2: "'kern' Horizontal Kerning in Arabic lookup 2 per glyph data 2" uniFE8E.short dx=60 dy=0 dh=60 dv=0 dx=0 dy=0 dh=0 dv=0
PairPos2: "'kern' Horizontal Kerning in Arabic lookup 2 per glyph data 2" afii57415.short dx=60 dy=0 dh=60 dv=0 dx=0 dy=0 dh=0 dv=0
PairPos2: "'kern' Horizontal Kerning in Arabic lookup 2 per glyph data 2" afii57415 dx=60 dy=0 dh=60 dv=0 dx=0 dy=0 dh=0 dv=0
PairPos2: "'kern' Horizontal Kerning in Arabic lookup 2 per glyph data 1" uniFEF3 dx=40 dy=0 dh=40 dv=0 dx=0 dy=0 dh=0 dv=0
PairPos2: "'kern' Horizontal Kerning in Arabic lookup 2 per glyph data 1" uniFB58 dx=40 dy=0 dh=40 dv=0 dx=0 dy=0 dh=0 dv=0
PairPos2: "'kern' Horizontal Kerning in Arabic lookup 2 per glyph data 1" afii57413 dx=40 dy=0 dh=40 dv=0 dx=0 dy=0 dh=0 dv=0
PairPos2: "'kern' Horizontal Kerning in Arabic lookup 2 per glyph data 1" uniFB94 dx=110 dy=0 dh=110 dv=0 dx=0 dy=0 dh=0 dv=0
PairPos2: "'kern' Horizontal Kerning in Arabic lookup 2 per glyph data 1" afii57509 dx=110 dy=0 dh=110 dv=0 dx=0 dy=0 dh=0 dv=0
PairPos2: "'kern' Horizontal Kerning in Arabic lookup 2 per glyph data 1" uniFB90 dx=110 dy=0 dh=110 dv=0 dx=0 dy=0 dh=0 dv=0
PairPos2: "'kern' Horizontal Kerning in Arabic lookup 2 per glyph data 1" uni06A9 dx=110 dy=0 dh=110 dv=0 dx=0 dy=0 dh=0 dv=0
PairPos2: "'kern' Horizontal Kerning in Arabic lookup 2 per glyph data 1" uniFEDB dx=110 dy=0 dh=110 dv=0 dx=0 dy=0 dh=0 dv=0
EndChar

StartChar: C
Encoding: 37 67 6
Width: 578
GlyphClass: 2
Flags: W
AnchorPoint: "Anchor-8" 0 0 basechar 0
AnchorPoint: "Anchor-7" 0 0 basechar 0
AnchorPoint: "Anchor-6" 338 648 basechar 0
AnchorPoint: "Anchor-5" 0 0 basechar 0
AnchorPoint: "Anchor-4" 334 0 basechar 0
LayerCount: 2
Fore
SplineSet
112.5 76.5 m 128,-1,1
 37 167 37 167 37 319 c 0,2,3
 37 442 37 442 79 518.5 c 128,-1,4
 121 595 121 595 190.5 628.5 c 128,-1,5
 260 662 260 662 347 662 c 0,6,7
 408 662 408 662 459 647.5 c 128,-1,8
 510 633 510 633 561 603 c 1,9,-1
 508 498 l 1,10,11
 437 544 437 544 354 544 c 0,12,13
 185 544 185 544 185 327 c 0,14,15
 185 219 185 219 232 163 c 128,-1,16
 279 107 279 107 365 107 c 0,17,18
 409 107 409 107 442 118.5 c 128,-1,19
 475 130 475 130 511 151 c 1,20,-1
 566 51 l 1,21,22
 512 19 512 19 460.5 2.5 c 128,-1,23
 409 -14 409 -14 351 -14 c 0,24,0
 188 -14 188 -14 112.5 76.5 c 128,-1,1
EndSplineSet
PairPos2: "'kern' Horizontal Kerning in Arabic lookup 2 per glyph data 2" uni0671 dx=60 dy=0 dh=60 dv=0 dx=0 dy=0 dh=0 dv=0
PairPos2: "'kern' Horizontal Kerning in Arabic lookup 2 per glyph data 2" afii57410 dx=60 dy=0 dh=60 dv=0 dx=0 dy=0 dh=0 dv=0
PairPos2: "'kern' Horizontal Kerning in Arabic lookup 2 per glyph data 2" afii57411 dx=60 dy=0 dh=60 dv=0 dx=0 dy=0 dh=0 dv=0
PairPos2: "'kern' Horizontal Kerning in Arabic lookup 2 per glyph data 2" uniFE8E.short dx=60 dy=0 dh=60 dv=0 dx=0 dy=0 dh=0 dv=0
PairPos2: "'kern' Horizontal Kerning in Arabic lookup 2 per glyph data 2" afii57415.short dx=60 dy=0 dh=60 dv=0 dx=0 dy=0 dh=0 dv=0
PairPos2: "'kern' Horizontal Kerning in Arabic lookup 2 per glyph data 2" afii57415 dx=60 dy=0 dh=60 dv=0 dx=0 dy=0 dh=0 dv=0
PairPos2: "'kern' Horizontal Kerning in Arabic lookup 2 per glyph data 1" uniFEF3 dx=40 dy=0 dh=40 dv=0 dx=0 dy=0 dh=0 dv=0
PairPos2: "'kern' Horizontal Kerning in Arabic lookup 2 per glyph data 1" uniFB58 dx=40 dy=0 dh=40 dv=0 dx=0 dy=0 dh=0 dv=0
PairPos2: "'kern' Horizontal Kerning in Arabic lookup 2 per glyph data 1" afii57413 dx=40 dy=0 dh=40 dv=0 dx=0 dy=0 dh=0 dv=0
PairPos2: "'kern' Horizontal Kerning in Arabic lookup 2 per glyph data 1" uniFB94 dx=110 dy=0 dh=110 dv=0 dx=0 dy=0 dh=0 dv=0
PairPos2: "'kern' Horizontal Kerning in Arabic lookup 2 per glyph data 1" afii57509 dx=110 dy=0 dh=110 dv=0 dx=0 dy=0 dh=0 dv=0
PairPos2: "'kern' Horizontal Kerning in Arabic lookup 2 per glyph data 1" uniFB90 dx=110 dy=0 dh=110 dv=0 dx=0 dy=0 dh=0 dv=0
PairPos2: "'kern' Horizontal Kerning in Arabic lookup 2 per glyph data 1" uni06A9 dx=110 dy=0 dh=110 dv=0 dx=0 dy=0 dh=0 dv=0
PairPos2: "'kern' Horizontal Kerning in Arabic lookup 2 per glyph data 1" uniFEDB dx=110 dy=0 dh=110 dv=0 dx=0 dy=0 dh=0 dv=0
EndChar

StartChar: D
Encoding: 38 68 7
Width: 679
GlyphClass: 2
Flags: W
AnchorPoint: "Anchor-8" 0 0 basechar 0
AnchorPoint: "Anchor-7" 190 324 basechar 0
AnchorPoint: "Anchor-6" 289 648 basechar 0
AnchorPoint: "Anchor-5" 213 10 basechar 0
AnchorPoint: "Anchor-4" 223 0 basechar 0
LayerCount: 2
Fore
SplineSet
548 574.5 m 128,-1,1
 641 501 641 501 641 324 c 0,2,3
 641 216 641 216 592 143 c 128,-1,4
 543 70 543 70 461.5 35 c 128,-1,5
 380 0 380 0 282 0 c 2,6,-1
 71 0 l 1,7,-1
 71 648 l 1,8,-1
 287 648 l 2,9,0
 455 648 455 648 548 574.5 c 128,-1,1
388 138.5 m 128,-1,11
 437 155 437 155 462 199 c 128,-1,12
 487 243 487 243 487 324 c 0,13,14
 487 399 487 399 464.5 443 c 128,-1,15
 442 487 442 487 398 506.5 c 128,-1,16
 354 526 354 526 287 526 c 2,17,-1
 213 526 l 1,18,-1
 213 122 l 1,19,-1
 257 122 l 2,20,10
 339 122 339 122 388 138.5 c 128,-1,11
EndSplineSet
PairPos2: "'kern' Horizontal Kerning in Arabic lookup 2 per glyph data 2" uni0671 dx=60 dy=0 dh=60 dv=0 dx=0 dy=0 dh=0 dv=0
PairPos2: "'kern' Horizontal Kerning in Arabic lookup 2 per glyph data 2" afii57410 dx=60 dy=0 dh=60 dv=0 dx=0 dy=0 dh=0 dv=0
PairPos2: "'kern' Horizontal Kerning in Arabic lookup 2 per glyph data 2" afii57411 dx=60 dy=0 dh=60 dv=0 dx=0 dy=0 dh=0 dv=0
PairPos2: "'kern' Horizontal Kerning in Arabic lookup 2 per glyph data 2" uniFE8E.short dx=60 dy=0 dh=60 dv=0 dx=0 dy=0 dh=0 dv=0
PairPos2: "'kern' Horizontal Kerning in Arabic lookup 2 per glyph data 2" afii57415.short dx=60 dy=0 dh=60 dv=0 dx=0 dy=0 dh=0 dv=0
PairPos2: "'kern' Horizontal Kerning in Arabic lookup 2 per glyph data 2" afii57415 dx=60 dy=0 dh=60 dv=0 dx=0 dy=0 dh=0 dv=0
PairPos2: "'kern' Horizontal Kerning in Arabic lookup 2 per glyph data 1" uniFEF3 dx=40 dy=0 dh=40 dv=0 dx=0 dy=0 dh=0 dv=0
PairPos2: "'kern' Horizontal Kerning in Arabic lookup 2 per glyph data 1" uniFB58 dx=40 dy=0 dh=40 dv=0 dx=0 dy=0 dh=0 dv=0
PairPos2: "'kern' Horizontal Kerning in Arabic lookup 2 per glyph data 1" afii57413 dx=40 dy=0 dh=40 dv=0 dx=0 dy=0 dh=0 dv=0
PairPos2: "'kern' Horizontal Kerning in Arabic lookup 2 per glyph data 1" uniFB94 dx=110 dy=0 dh=110 dv=0 dx=0 dy=0 dh=0 dv=0
PairPos2: "'kern' Horizontal Kerning in Arabic lookup 2 per glyph data 1" afii57509 dx=110 dy=0 dh=110 dv=0 dx=0 dy=0 dh=0 dv=0
PairPos2: "'kern' Horizontal Kerning in Arabic lookup 2 per glyph data 1" uniFB90 dx=110 dy=0 dh=110 dv=0 dx=0 dy=0 dh=0 dv=0
PairPos2: "'kern' Horizontal Kerning in Arabic lookup 2 per glyph data 1" uni06A9 dx=110 dy=0 dh=110 dv=0 dx=0 dy=0 dh=0 dv=0
PairPos2: "'kern' Horizontal Kerning in Arabic lookup 2 per glyph data 1" uniFEDB dx=110 dy=0 dh=110 dv=0 dx=0 dy=0 dh=0 dv=0
EndChar

StartChar: E
Encoding: 39 69 8
Width: 552
GlyphClass: 2
Flags: W
AnchorPoint: "Anchor-8" 0 0 basechar 0
AnchorPoint: "Anchor-7" 0 0 basechar 0
AnchorPoint: "Anchor-6" 296 648 basechar 0
AnchorPoint: "Anchor-5" 509 10 basechar 0
AnchorPoint: "Anchor-4" 298 0 basechar 0
LayerCount: 2
Fore
SplineSet
213 116 m 1,0,-1
 509 116 l 1,1,-1
 509 0 l 1,2,-1
 71 0 l 1,3,-1
 71 648 l 1,4,-1
 504 648 l 1,5,-1
 504 533 l 1,6,-1
 213 533 l 1,7,-1
 213 387 l 1,8,-1
 464 387 l 1,9,-1
 448 273 l 1,10,-1
 213 273 l 1,11,-1
 213 116 l 1,0,-1
EndSplineSet
PairPos2: "'kern' Horizontal Kerning in Arabic lookup 2 per glyph data 2" uni0671 dx=60 dy=0 dh=60 dv=0 dx=0 dy=0 dh=0 dv=0
PairPos2: "'kern' Horizontal Kerning in Arabic lookup 2 per glyph data 2" afii57410 dx=60 dy=0 dh=60 dv=0 dx=0 dy=0 dh=0 dv=0
PairPos2: "'kern' Horizontal Kerning in Arabic lookup 2 per glyph data 2" afii57411 dx=60 dy=0 dh=60 dv=0 dx=0 dy=0 dh=0 dv=0
PairPos2: "'kern' Horizontal Kerning in Arabic lookup 2 per glyph data 2" uniFE8E.short dx=60 dy=0 dh=60 dv=0 dx=0 dy=0 dh=0 dv=0
PairPos2: "'kern' Horizontal Kerning in Arabic lookup 2 per glyph data 2" afii57415.short dx=60 dy=0 dh=60 dv=0 dx=0 dy=0 dh=0 dv=0
PairPos2: "'kern' Horizontal Kerning in Arabic lookup 2 per glyph data 2" afii57415 dx=60 dy=0 dh=60 dv=0 dx=0 dy=0 dh=0 dv=0
PairPos2: "'kern' Horizontal Kerning in Arabic lookup 2 per glyph data 1" uniFEF3 dx=40 dy=0 dh=40 dv=0 dx=0 dy=0 dh=0 dv=0
PairPos2: "'kern' Horizontal Kerning in Arabic lookup 2 per glyph data 1" uniFB58 dx=40 dy=0 dh=40 dv=0 dx=0 dy=0 dh=0 dv=0
PairPos2: "'kern' Horizontal Kerning in Arabic lookup 2 per glyph data 1" afii57413 dx=40 dy=0 dh=40 dv=0 dx=0 dy=0 dh=0 dv=0
PairPos2: "'kern' Horizontal Kerning in Arabic lookup 2 per glyph data 1" uniFB94 dx=110 dy=0 dh=110 dv=0 dx=0 dy=0 dh=0 dv=0
PairPos2: "'kern' Horizontal Kerning in Arabic lookup 2 per glyph data 1" afii57509 dx=110 dy=0 dh=110 dv=0 dx=0 dy=0 dh=0 dv=0
PairPos2: "'kern' Horizontal Kerning in Arabic lookup 2 per glyph data 1" uniFB90 dx=110 dy=0 dh=110 dv=0 dx=0 dy=0 dh=0 dv=0
PairPos2: "'kern' Horizontal Kerning in Arabic lookup 2 per glyph data 1" uni06A9 dx=110 dy=0 dh=110 dv=0 dx=0 dy=0 dh=0 dv=0
PairPos2: "'kern' Horizontal Kerning in Arabic lookup 2 per glyph data 1" uniFEDB dx=110 dy=0 dh=110 dv=0 dx=0 dy=0 dh=0 dv=0
EndChar

StartChar: F
Encoding: 40 70 9
Width: 530
GlyphClass: 2
Flags: W
AnchorPoint: "Anchor-8" 0 0 basechar 0
AnchorPoint: "Anchor-7" 0 0 basechar 0
AnchorPoint: "Anchor-6" 296 648 basechar 0
AnchorPoint: "Anchor-5" 213 10 basechar 0
AnchorPoint: "Anchor-4" 140 0 basechar 0
LayerCount: 2
Fore
SplineSet
504 533 m 1,0,-1
 213 533 l 1,1,-1
 213 371 l 1,2,-1
 464 371 l 1,3,-1
 448 257 l 1,4,-1
 213 257 l 1,5,-1
 213 0 l 1,6,-1
 71 0 l 1,7,-1
 71 648 l 1,8,-1
 504 648 l 1,9,-1
 504 533 l 1,0,-1
EndSplineSet
PairPos2: "'kern' Horizontal Kerning in Arabic lookup 2 per glyph data 2" uni0671 dx=60 dy=0 dh=60 dv=0 dx=0 dy=0 dh=0 dv=0
PairPos2: "'kern' Horizontal Kerning in Arabic lookup 2 per glyph data 2" afii57410 dx=60 dy=0 dh=60 dv=0 dx=0 dy=0 dh=0 dv=0
PairPos2: "'kern' Horizontal Kerning in Arabic lookup 2 per glyph data 2" afii57411 dx=60 dy=0 dh=60 dv=0 dx=0 dy=0 dh=0 dv=0
PairPos2: "'kern' Horizontal Kerning in Arabic lookup 2 per glyph data 2" uniFE8E.short dx=60 dy=0 dh=60 dv=0 dx=0 dy=0 dh=0 dv=0
PairPos2: "'kern' Horizontal Kerning in Arabic lookup 2 per glyph data 2" afii57415.short dx=60 dy=0 dh=60 dv=0 dx=0 dy=0 dh=0 dv=0
PairPos2: "'kern' Horizontal Kerning in Arabic lookup 2 per glyph data 2" afii57415 dx=60 dy=0 dh=60 dv=0 dx=0 dy=0 dh=0 dv=0
PairPos2: "'kern' Horizontal Kerning in Arabic lookup 2 per glyph data 1" uniFEF3 dx=40 dy=0 dh=40 dv=0 dx=0 dy=0 dh=0 dv=0
PairPos2: "'kern' Horizontal Kerning in Arabic lookup 2 per glyph data 1" uniFB58 dx=40 dy=0 dh=40 dv=0 dx=0 dy=0 dh=0 dv=0
PairPos2: "'kern' Horizontal Kerning in Arabic lookup 2 per glyph data 1" afii57413 dx=40 dy=0 dh=40 dv=0 dx=0 dy=0 dh=0 dv=0
PairPos2: "'kern' Horizontal Kerning in Arabic lookup 2 per glyph data 1" uniFB94 dx=110 dy=0 dh=110 dv=0 dx=0 dy=0 dh=0 dv=0
PairPos2: "'kern' Horizontal Kerning in Arabic lookup 2 per glyph data 1" afii57509 dx=110 dy=0 dh=110 dv=0 dx=0 dy=0 dh=0 dv=0
PairPos2: "'kern' Horizontal Kerning in Arabic lookup 2 per glyph data 1" uniFB90 dx=110 dy=0 dh=110 dv=0 dx=0 dy=0 dh=0 dv=0
PairPos2: "'kern' Horizontal Kerning in Arabic lookup 2 per glyph data 1" uni06A9 dx=110 dy=0 dh=110 dv=0 dx=0 dy=0 dh=0 dv=0
PairPos2: "'kern' Horizontal Kerning in Arabic lookup 2 per glyph data 1" uniFEDB dx=110 dy=0 dh=110 dv=0 dx=0 dy=0 dh=0 dv=0
EndChar

StartChar: G
Encoding: 41 71 10
Width: 648
GlyphClass: 2
Flags: W
AnchorPoint: "Anchor-8" 0 0 basechar 0
AnchorPoint: "Anchor-7" 0 0 basechar 0
AnchorPoint: "Anchor-6" 356 648 basechar 0
AnchorPoint: "Anchor-5" 0 0 basechar 0
AnchorPoint: "Anchor-4" 358 0 basechar 0
LayerCount: 2
Fore
SplineSet
597 373 m 1,0,-1
 597 49 l 1,1,2
 530 15 530 15 471.5 0.5 c 128,-1,3
 413 -14 413 -14 352 -14 c 0,4,5
 189 -14 189 -14 113 76.5 c 128,-1,6
 37 167 37 167 37 321 c 0,7,8
 37 439 37 439 80 515.5 c 128,-1,9
 123 592 123 592 196 627 c 128,-1,10
 269 662 269 662 362 662 c 0,11,12
 423 662 423 662 479 646.5 c 128,-1,13
 535 631 535 631 582 601 c 1,14,-1
 524 500 l 1,15,16
 448 545 448 545 369 545 c 0,17,18
 276 545 276 545 230 488.5 c 128,-1,19
 184 432 184 432 184 327 c 0,20,21
 184 216 184 216 226.5 161.5 c 128,-1,22
 269 107 269 107 361 107 c 0,23,24
 413 107 413 107 455 123 c 1,25,-1
 455 258 l 1,26,-1
 317 258 l 1,27,-1
 333 373 l 1,28,-1
 597 373 l 1,0,-1
EndSplineSet
PairPos2: "'kern' Horizontal Kerning in Arabic lookup 2 per glyph data 2" uni0671 dx=60 dy=0 dh=60 dv=0 dx=0 dy=0 dh=0 dv=0
PairPos2: "'kern' Horizontal Kerning in Arabic lookup 2 per glyph data 2" afii57410 dx=60 dy=0 dh=60 dv=0 dx=0 dy=0 dh=0 dv=0
PairPos2: "'kern' Horizontal Kerning in Arabic lookup 2 per glyph data 2" afii57411 dx=60 dy=0 dh=60 dv=0 dx=0 dy=0 dh=0 dv=0
PairPos2: "'kern' Horizontal Kerning in Arabic lookup 2 per glyph data 2" uniFE8E.short dx=60 dy=0 dh=60 dv=0 dx=0 dy=0 dh=0 dv=0
PairPos2: "'kern' Horizontal Kerning in Arabic lookup 2 per glyph data 2" afii57415.short dx=60 dy=0 dh=60 dv=0 dx=0 dy=0 dh=0 dv=0
PairPos2: "'kern' Horizontal Kerning in Arabic lookup 2 per glyph data 2" afii57415 dx=60 dy=0 dh=60 dv=0 dx=0 dy=0 dh=0 dv=0
PairPos2: "'kern' Horizontal Kerning in Arabic lookup 2 per glyph data 1" uniFEF3 dx=40 dy=0 dh=40 dv=0 dx=0 dy=0 dh=0 dv=0
PairPos2: "'kern' Horizontal Kerning in Arabic lookup 2 per glyph data 1" uniFB58 dx=40 dy=0 dh=40 dv=0 dx=0 dy=0 dh=0 dv=0
PairPos2: "'kern' Horizontal Kerning in Arabic lookup 2 per glyph data 1" afii57413 dx=40 dy=0 dh=40 dv=0 dx=0 dy=0 dh=0 dv=0
PairPos2: "'kern' Horizontal Kerning in Arabic lookup 2 per glyph data 1" uniFB94 dx=110 dy=0 dh=110 dv=0 dx=0 dy=0 dh=0 dv=0
PairPos2: "'kern' Horizontal Kerning in Arabic lookup 2 per glyph data 1" afii57509 dx=110 dy=0 dh=110 dv=0 dx=0 dy=0 dh=0 dv=0
PairPos2: "'kern' Horizontal Kerning in Arabic lookup 2 per glyph data 1" uniFB90 dx=110 dy=0 dh=110 dv=0 dx=0 dy=0 dh=0 dv=0
PairPos2: "'kern' Horizontal Kerning in Arabic lookup 2 per glyph data 1" uni06A9 dx=110 dy=0 dh=110 dv=0 dx=0 dy=0 dh=0 dv=0
PairPos2: "'kern' Horizontal Kerning in Arabic lookup 2 per glyph data 1" uniFEDB dx=110 dy=0 dh=110 dv=0 dx=0 dy=0 dh=0 dv=0
EndChar

StartChar: H
Encoding: 42 72 11
Width: 720
GlyphClass: 2
Flags: W
AnchorPoint: "Anchor-8" 0 0 basechar 0
AnchorPoint: "Anchor-7" 360 466 basechar 0
AnchorPoint: "Anchor-6" 360 648 basechar 0
AnchorPoint: "Anchor-5" 0 0 basechar 0
AnchorPoint: "Anchor-4" 360 0 basechar 0
LayerCount: 2
Fore
SplineSet
506 648 m 1,0,-1
 648 648 l 1,1,-1
 648 0 l 1,2,-1
 506 0 l 1,3,-1
 506 269 l 1,4,-1
 213 269 l 1,5,-1
 213 0 l 1,6,-1
 71 0 l 1,7,-1
 71 648 l 1,8,-1
 213 648 l 1,9,-1
 213 389 l 1,10,-1
 506 389 l 1,11,-1
 506 648 l 1,0,-1
EndSplineSet
PairPos2: "'kern' Horizontal Kerning in Arabic lookup 2 per glyph data 2" uni0671 dx=60 dy=0 dh=60 dv=0 dx=0 dy=0 dh=0 dv=0
PairPos2: "'kern' Horizontal Kerning in Arabic lookup 2 per glyph data 2" afii57410 dx=60 dy=0 dh=60 dv=0 dx=0 dy=0 dh=0 dv=0
PairPos2: "'kern' Horizontal Kerning in Arabic lookup 2 per glyph data 2" afii57411 dx=60 dy=0 dh=60 dv=0 dx=0 dy=0 dh=0 dv=0
PairPos2: "'kern' Horizontal Kerning in Arabic lookup 2 per glyph data 2" uniFE8E.short dx=60 dy=0 dh=60 dv=0 dx=0 dy=0 dh=0 dv=0
PairPos2: "'kern' Horizontal Kerning in Arabic lookup 2 per glyph data 2" afii57415.short dx=60 dy=0 dh=60 dv=0 dx=0 dy=0 dh=0 dv=0
PairPos2: "'kern' Horizontal Kerning in Arabic lookup 2 per glyph data 2" afii57415 dx=60 dy=0 dh=60 dv=0 dx=0 dy=0 dh=0 dv=0
PairPos2: "'kern' Horizontal Kerning in Arabic lookup 2 per glyph data 1" uniFEF3 dx=40 dy=0 dh=40 dv=0 dx=0 dy=0 dh=0 dv=0
PairPos2: "'kern' Horizontal Kerning in Arabic lookup 2 per glyph data 1" uniFB58 dx=40 dy=0 dh=40 dv=0 dx=0 dy=0 dh=0 dv=0
PairPos2: "'kern' Horizontal Kerning in Arabic lookup 2 per glyph data 1" afii57413 dx=40 dy=0 dh=40 dv=0 dx=0 dy=0 dh=0 dv=0
PairPos2: "'kern' Horizontal Kerning in Arabic lookup 2 per glyph data 1" uniFB94 dx=110 dy=0 dh=110 dv=0 dx=0 dy=0 dh=0 dv=0
PairPos2: "'kern' Horizontal Kerning in Arabic lookup 2 per glyph data 1" afii57509 dx=110 dy=0 dh=110 dv=0 dx=0 dy=0 dh=0 dv=0
PairPos2: "'kern' Horizontal Kerning in Arabic lookup 2 per glyph data 1" uniFB90 dx=110 dy=0 dh=110 dv=0 dx=0 dy=0 dh=0 dv=0
PairPos2: "'kern' Horizontal Kerning in Arabic lookup 2 per glyph data 1" uni06A9 dx=110 dy=0 dh=110 dv=0 dx=0 dy=0 dh=0 dv=0
PairPos2: "'kern' Horizontal Kerning in Arabic lookup 2 per glyph data 1" uniFEDB dx=110 dy=0 dh=110 dv=0 dx=0 dy=0 dh=0 dv=0
EndChar

StartChar: I
Encoding: 43 73 12
Width: 285
GlyphClass: 2
Flags: W
AnchorPoint: "Anchor-8" 0 0 basechar 0
AnchorPoint: "Anchor-7" 0 0 basechar 0
AnchorPoint: "Anchor-6" 142 648 basechar 0
AnchorPoint: "Anchor-5" 213 10 basechar 0
AnchorPoint: "Anchor-4" 142 0 basechar 0
LayerCount: 2
Fore
SplineSet
71 0 m 1,0,-1
 71 648 l 1,1,-1
 213 648 l 1,2,-1
 213 0 l 1,3,-1
 71 0 l 1,0,-1
EndSplineSet
PairPos2: "'kern' Horizontal Kerning in Arabic lookup 2 per glyph data 2" uni0671 dx=60 dy=0 dh=60 dv=0 dx=0 dy=0 dh=0 dv=0
PairPos2: "'kern' Horizontal Kerning in Arabic lookup 2 per glyph data 2" afii57410 dx=60 dy=0 dh=60 dv=0 dx=0 dy=0 dh=0 dv=0
PairPos2: "'kern' Horizontal Kerning in Arabic lookup 2 per glyph data 2" afii57411 dx=60 dy=0 dh=60 dv=0 dx=0 dy=0 dh=0 dv=0
PairPos2: "'kern' Horizontal Kerning in Arabic lookup 2 per glyph data 2" uniFE8E.short dx=60 dy=0 dh=60 dv=0 dx=0 dy=0 dh=0 dv=0
PairPos2: "'kern' Horizontal Kerning in Arabic lookup 2 per glyph data 2" afii57415.short dx=60 dy=0 dh=60 dv=0 dx=0 dy=0 dh=0 dv=0
PairPos2: "'kern' Horizontal Kerning in Arabic lookup 2 per glyph data 2" afii57415 dx=60 dy=0 dh=60 dv=0 dx=0 dy=0 dh=0 dv=0
PairPos2: "'kern' Horizontal Kerning in Arabic lookup 2 per glyph data 1" uniFEF3 dx=40 dy=0 dh=40 dv=0 dx=0 dy=0 dh=0 dv=0
PairPos2: "'kern' Horizontal Kerning in Arabic lookup 2 per glyph data 1" uniFB58 dx=40 dy=0 dh=40 dv=0 dx=0 dy=0 dh=0 dv=0
PairPos2: "'kern' Horizontal Kerning in Arabic lookup 2 per glyph data 1" afii57413 dx=40 dy=0 dh=40 dv=0 dx=0 dy=0 dh=0 dv=0
PairPos2: "'kern' Horizontal Kerning in Arabic lookup 2 per glyph data 1" uniFB94 dx=110 dy=0 dh=110 dv=0 dx=0 dy=0 dh=0 dv=0
PairPos2: "'kern' Horizontal Kerning in Arabic lookup 2 per glyph data 1" afii57509 dx=110 dy=0 dh=110 dv=0 dx=0 dy=0 dh=0 dv=0
PairPos2: "'kern' Horizontal Kerning in Arabic lookup 2 per glyph data 1" uniFB90 dx=110 dy=0 dh=110 dv=0 dx=0 dy=0 dh=0 dv=0
PairPos2: "'kern' Horizontal Kerning in Arabic lookup 2 per glyph data 1" uni06A9 dx=110 dy=0 dh=110 dv=0 dx=0 dy=0 dh=0 dv=0
PairPos2: "'kern' Horizontal Kerning in Arabic lookup 2 per glyph data 1" uniFEDB dx=110 dy=0 dh=110 dv=0 dx=0 dy=0 dh=0 dv=0
EndChar

StartChar: J
Encoding: 44 74 13
Width: 476
GlyphClass: 2
Flags: W
AnchorPoint: "Anchor-8" 0 0 basechar 0
AnchorPoint: "Anchor-7" 0 0 basechar 0
AnchorPoint: "Anchor-6" 383 648 basechar 0
AnchorPoint: "Anchor-5" 0 0 basechar 0
AnchorPoint: "Anchor-4" 383 0 basechar 0
LayerCount: 2
Fore
SplineSet
-4 54 m 1,1,-1
 65 148 l 1,2,3
 92 126 92 126 117.5 116 c 128,-1,4
 143 106 143 106 174 106 c 0,5,6
 221 106 221 106 245.5 133 c 128,-1,7
 270 160 270 160 270 209 c 2,8,-1
 270 648 l 1,9,-1
 412 648 l 1,10,-1
 412 206 l 2,11,12
 412 123 412 123 378 74 c 128,-1,13
 344 25 344 25 294 5.5 c 128,-1,14
 244 -14 244 -14 190 -14 c 0,15,0
 74 -14 74 -14 -4 54 c 1,1,-1
EndSplineSet
PairPos2: "'kern' Horizontal Kerning in Arabic lookup 2 per glyph data 2" uni0671 dx=60 dy=0 dh=60 dv=0 dx=0 dy=0 dh=0 dv=0
PairPos2: "'kern' Horizontal Kerning in Arabic lookup 2 per glyph data 2" afii57410 dx=60 dy=0 dh=60 dv=0 dx=0 dy=0 dh=0 dv=0
PairPos2: "'kern' Horizontal Kerning in Arabic lookup 2 per glyph data 2" afii57411 dx=60 dy=0 dh=60 dv=0 dx=0 dy=0 dh=0 dv=0
PairPos2: "'kern' Horizontal Kerning in Arabic lookup 2 per glyph data 2" uniFE8E.short dx=60 dy=0 dh=60 dv=0 dx=0 dy=0 dh=0 dv=0
PairPos2: "'kern' Horizontal Kerning in Arabic lookup 2 per glyph data 2" afii57415.short dx=60 dy=0 dh=60 dv=0 dx=0 dy=0 dh=0 dv=0
PairPos2: "'kern' Horizontal Kerning in Arabic lookup 2 per glyph data 2" afii57415 dx=60 dy=0 dh=60 dv=0 dx=0 dy=0 dh=0 dv=0
PairPos2: "'kern' Horizontal Kerning in Arabic lookup 2 per glyph data 1" uniFEF3 dx=40 dy=0 dh=40 dv=0 dx=0 dy=0 dh=0 dv=0
PairPos2: "'kern' Horizontal Kerning in Arabic lookup 2 per glyph data 1" uniFB58 dx=40 dy=0 dh=40 dv=0 dx=0 dy=0 dh=0 dv=0
PairPos2: "'kern' Horizontal Kerning in Arabic lookup 2 per glyph data 1" afii57413 dx=40 dy=0 dh=40 dv=0 dx=0 dy=0 dh=0 dv=0
PairPos2: "'kern' Horizontal Kerning in Arabic lookup 2 per glyph data 1" uniFB94 dx=110 dy=0 dh=110 dv=0 dx=0 dy=0 dh=0 dv=0
PairPos2: "'kern' Horizontal Kerning in Arabic lookup 2 per glyph data 1" afii57509 dx=110 dy=0 dh=110 dv=0 dx=0 dy=0 dh=0 dv=0
PairPos2: "'kern' Horizontal Kerning in Arabic lookup 2 per glyph data 1" uniFB90 dx=110 dy=0 dh=110 dv=0 dx=0 dy=0 dh=0 dv=0
PairPos2: "'kern' Horizontal Kerning in Arabic lookup 2 per glyph data 1" uni06A9 dx=110 dy=0 dh=110 dv=0 dx=0 dy=0 dh=0 dv=0
PairPos2: "'kern' Horizontal Kerning in Arabic lookup 2 per glyph data 1" uniFEDB dx=110 dy=0 dh=110 dv=0 dx=0 dy=0 dh=0 dv=0
EndChar

StartChar: K
Encoding: 45 75 14
Width: 645
GlyphClass: 2
Flags: W
AnchorPoint: "Anchor-8" 0 0 basechar 0
AnchorPoint: "Anchor-7" 0 0 basechar 0
AnchorPoint: "Anchor-6" 312 648 basechar 0
AnchorPoint: "Anchor-5" 213 10 basechar 0
AnchorPoint: "Anchor-4" 312 0 basechar 0
LayerCount: 2
Fore
SplineSet
366 342 m 1,0,-1
 636 8 l 1,1,-1
 636 0 l 1,2,-1
 463 0 l 1,3,-1
 213 321 l 1,4,-1
 213 0 l 1,5,-1
 71 0 l 1,6,-1
 71 648 l 1,7,-1
 213 648 l 1,8,-1
 213 348 l 1,9,-1
 462 648 l 1,10,-1
 622 648 l 1,11,-1
 622 640 l 1,12,-1
 366 342 l 1,0,-1
EndSplineSet
PairPos2: "'kern' Horizontal Kerning in Arabic lookup 2 per glyph data 2" uni0671 dx=60 dy=0 dh=60 dv=0 dx=0 dy=0 dh=0 dv=0
PairPos2: "'kern' Horizontal Kerning in Arabic lookup 2 per glyph data 2" afii57410 dx=60 dy=0 dh=60 dv=0 dx=0 dy=0 dh=0 dv=0
PairPos2: "'kern' Horizontal Kerning in Arabic lookup 2 per glyph data 2" afii57411 dx=60 dy=0 dh=60 dv=0 dx=0 dy=0 dh=0 dv=0
PairPos2: "'kern' Horizontal Kerning in Arabic lookup 2 per glyph data 2" uniFE8E.short dx=60 dy=0 dh=60 dv=0 dx=0 dy=0 dh=0 dv=0
PairPos2: "'kern' Horizontal Kerning in Arabic lookup 2 per glyph data 2" afii57415.short dx=60 dy=0 dh=60 dv=0 dx=0 dy=0 dh=0 dv=0
PairPos2: "'kern' Horizontal Kerning in Arabic lookup 2 per glyph data 2" afii57415 dx=60 dy=0 dh=60 dv=0 dx=0 dy=0 dh=0 dv=0
PairPos2: "'kern' Horizontal Kerning in Arabic lookup 2 per glyph data 1" uniFEF3 dx=40 dy=0 dh=40 dv=0 dx=0 dy=0 dh=0 dv=0
PairPos2: "'kern' Horizontal Kerning in Arabic lookup 2 per glyph data 1" uniFB58 dx=40 dy=0 dh=40 dv=0 dx=0 dy=0 dh=0 dv=0
PairPos2: "'kern' Horizontal Kerning in Arabic lookup 2 per glyph data 1" afii57413 dx=40 dy=0 dh=40 dv=0 dx=0 dy=0 dh=0 dv=0
PairPos2: "'kern' Horizontal Kerning in Arabic lookup 2 per glyph data 1" uniFB94 dx=110 dy=0 dh=110 dv=0 dx=0 dy=0 dh=0 dv=0
PairPos2: "'kern' Horizontal Kerning in Arabic lookup 2 per glyph data 1" afii57509 dx=110 dy=0 dh=110 dv=0 dx=0 dy=0 dh=0 dv=0
PairPos2: "'kern' Horizontal Kerning in Arabic lookup 2 per glyph data 1" uniFB90 dx=110 dy=0 dh=110 dv=0 dx=0 dy=0 dh=0 dv=0
PairPos2: "'kern' Horizontal Kerning in Arabic lookup 2 per glyph data 1" uni06A9 dx=110 dy=0 dh=110 dv=0 dx=0 dy=0 dh=0 dv=0
PairPos2: "'kern' Horizontal Kerning in Arabic lookup 2 per glyph data 1" uniFEDB dx=110 dy=0 dh=110 dv=0 dx=0 dy=0 dh=0 dv=0
EndChar

StartChar: L
Encoding: 46 76 15
Width: 521
GlyphClass: 2
Flags: W
AnchorPoint: "Anchor-8" 204 648 basechar 0
AnchorPoint: "Anchor-7" 286 324 basechar 0
AnchorPoint: "Anchor-6" 136 648 basechar 0
AnchorPoint: "Anchor-5" 213 10 basechar 0
AnchorPoint: "Anchor-4" 286 0 basechar 0
LayerCount: 2
Fore
SplineSet
213 122 m 1,0,-1
 507 122 l 1,1,-1
 507 0 l 1,2,-1
 71 0 l 1,3,-1
 71 648 l 1,4,-1
 213 648 l 1,5,-1
 213 122 l 1,0,-1
EndSplineSet
PairPos2: "'kern' Horizontal Kerning in Arabic lookup 2 per glyph data 2" uni0671 dx=60 dy=0 dh=60 dv=0 dx=0 dy=0 dh=0 dv=0
PairPos2: "'kern' Horizontal Kerning in Arabic lookup 2 per glyph data 2" afii57410 dx=60 dy=0 dh=60 dv=0 dx=0 dy=0 dh=0 dv=0
PairPos2: "'kern' Horizontal Kerning in Arabic lookup 2 per glyph data 2" afii57411 dx=60 dy=0 dh=60 dv=0 dx=0 dy=0 dh=0 dv=0
PairPos2: "'kern' Horizontal Kerning in Arabic lookup 2 per glyph data 2" uniFE8E.short dx=60 dy=0 dh=60 dv=0 dx=0 dy=0 dh=0 dv=0
PairPos2: "'kern' Horizontal Kerning in Arabic lookup 2 per glyph data 2" afii57415.short dx=60 dy=0 dh=60 dv=0 dx=0 dy=0 dh=0 dv=0
PairPos2: "'kern' Horizontal Kerning in Arabic lookup 2 per glyph data 2" afii57415 dx=60 dy=0 dh=60 dv=0 dx=0 dy=0 dh=0 dv=0
PairPos2: "'kern' Horizontal Kerning in Arabic lookup 2 per glyph data 1" uniFEF3 dx=40 dy=0 dh=40 dv=0 dx=0 dy=0 dh=0 dv=0
PairPos2: "'kern' Horizontal Kerning in Arabic lookup 2 per glyph data 1" uniFB58 dx=40 dy=0 dh=40 dv=0 dx=0 dy=0 dh=0 dv=0
PairPos2: "'kern' Horizontal Kerning in Arabic lookup 2 per glyph data 1" afii57413 dx=40 dy=0 dh=40 dv=0 dx=0 dy=0 dh=0 dv=0
PairPos2: "'kern' Horizontal Kerning in Arabic lookup 2 per glyph data 1" uniFB94 dx=110 dy=0 dh=110 dv=0 dx=0 dy=0 dh=0 dv=0
PairPos2: "'kern' Horizontal Kerning in Arabic lookup 2 per glyph data 1" afii57509 dx=110 dy=0 dh=110 dv=0 dx=0 dy=0 dh=0 dv=0
PairPos2: "'kern' Horizontal Kerning in Arabic lookup 2 per glyph data 1" uniFB90 dx=110 dy=0 dh=110 dv=0 dx=0 dy=0 dh=0 dv=0
PairPos2: "'kern' Horizontal Kerning in Arabic lookup 2 per glyph data 1" uni06A9 dx=110 dy=0 dh=110 dv=0 dx=0 dy=0 dh=0 dv=0
PairPos2: "'kern' Horizontal Kerning in Arabic lookup 2 per glyph data 1" uniFEDB dx=110 dy=0 dh=110 dv=0 dx=0 dy=0 dh=0 dv=0
EndChar

StartChar: M
Encoding: 47 77 16
Width: 843
GlyphClass: 2
Flags: W
AnchorPoint: "Anchor-8" 0 0 basechar 0
AnchorPoint: "Anchor-7" 0 0 basechar 0
AnchorPoint: "Anchor-6" 422 648 basechar 0
AnchorPoint: "Anchor-5" 0 0 basechar 0
AnchorPoint: "Anchor-4" 422 0 basechar 0
LayerCount: 2
Fore
SplineSet
772 648 m 1,0,-1
 772 0 l 1,1,-1
 632 0 l 1,2,-1
 632 403 l 1,3,4
 619 366 619 366 588 306 c 2,5,-1
 476 80 l 1,6,-1
 367 80 l 1,7,-1
 253 306 l 2,8,9
 222 367 222 367 209 403 c 1,10,-1
 209 0 l 1,11,-1
 71 0 l 1,12,-1
 71 648 l 1,13,-1
 217 648 l 1,14,-1
 365 364 l 2,15,16
 382 331 382 331 397 296.5 c 128,-1,17
 412 262 412 262 421 236 c 1,18,19
 435 282 435 282 477 364 c 2,20,-1
 626 648 l 1,21,-1
 772 648 l 1,0,-1
EndSplineSet
PairPos2: "'kern' Horizontal Kerning in Arabic lookup 2 per glyph data 2" uni0671 dx=60 dy=0 dh=60 dv=0 dx=0 dy=0 dh=0 dv=0
PairPos2: "'kern' Horizontal Kerning in Arabic lookup 2 per glyph data 2" afii57410 dx=60 dy=0 dh=60 dv=0 dx=0 dy=0 dh=0 dv=0
PairPos2: "'kern' Horizontal Kerning in Arabic lookup 2 per glyph data 2" afii57411 dx=60 dy=0 dh=60 dv=0 dx=0 dy=0 dh=0 dv=0
PairPos2: "'kern' Horizontal Kerning in Arabic lookup 2 per glyph data 2" uniFE8E.short dx=60 dy=0 dh=60 dv=0 dx=0 dy=0 dh=0 dv=0
PairPos2: "'kern' Horizontal Kerning in Arabic lookup 2 per glyph data 2" afii57415.short dx=60 dy=0 dh=60 dv=0 dx=0 dy=0 dh=0 dv=0
PairPos2: "'kern' Horizontal Kerning in Arabic lookup 2 per glyph data 2" afii57415 dx=60 dy=0 dh=60 dv=0 dx=0 dy=0 dh=0 dv=0
PairPos2: "'kern' Horizontal Kerning in Arabic lookup 2 per glyph data 1" uniFEF3 dx=40 dy=0 dh=40 dv=0 dx=0 dy=0 dh=0 dv=0
PairPos2: "'kern' Horizontal Kerning in Arabic lookup 2 per glyph data 1" uniFB58 dx=40 dy=0 dh=40 dv=0 dx=0 dy=0 dh=0 dv=0
PairPos2: "'kern' Horizontal Kerning in Arabic lookup 2 per glyph data 1" afii57413 dx=40 dy=0 dh=40 dv=0 dx=0 dy=0 dh=0 dv=0
PairPos2: "'kern' Horizontal Kerning in Arabic lookup 2 per glyph data 1" uniFB94 dx=110 dy=0 dh=110 dv=0 dx=0 dy=0 dh=0 dv=0
PairPos2: "'kern' Horizontal Kerning in Arabic lookup 2 per glyph data 1" afii57509 dx=110 dy=0 dh=110 dv=0 dx=0 dy=0 dh=0 dv=0
PairPos2: "'kern' Horizontal Kerning in Arabic lookup 2 per glyph data 1" uniFB90 dx=110 dy=0 dh=110 dv=0 dx=0 dy=0 dh=0 dv=0
PairPos2: "'kern' Horizontal Kerning in Arabic lookup 2 per glyph data 1" uni06A9 dx=110 dy=0 dh=110 dv=0 dx=0 dy=0 dh=0 dv=0
PairPos2: "'kern' Horizontal Kerning in Arabic lookup 2 per glyph data 1" uniFEDB dx=110 dy=0 dh=110 dv=0 dx=0 dy=0 dh=0 dv=0
EndChar

StartChar: N
Encoding: 48 78 17
Width: 717
GlyphClass: 2
Flags: W
AnchorPoint: "Anchor-8" 0 0 basechar 0
AnchorPoint: "Anchor-7" 0 0 basechar 0
AnchorPoint: "Anchor-6" 357 648 basechar 0
AnchorPoint: "Anchor-5" 0 0 basechar 0
AnchorPoint: "Anchor-4" 357 0 basechar 0
LayerCount: 2
Fore
SplineSet
646 648 m 1,0,-1
 646 0 l 1,1,-1
 492 0 l 1,2,-1
 289 302 l 2,3,4
 263 342 263 342 245 371.5 c 128,-1,5
 227 401 227 401 210 438 c 1,6,-1
 210 0 l 1,7,-1
 71 0 l 1,8,-1
 71 648 l 1,9,-1
 224 648 l 1,10,-1
 445 316 l 2,11,12
 449 310 449 310 463 288.5 c 128,-1,13
 477 267 477 267 488.5 248 c 128,-1,14
 500 229 500 229 508 211 c 1,15,-1
 508 648 l 1,16,-1
 646 648 l 1,0,-1
EndSplineSet
PairPos2: "'kern' Horizontal Kerning in Arabic lookup 2 per glyph data 2" uni0671 dx=60 dy=0 dh=60 dv=0 dx=0 dy=0 dh=0 dv=0
PairPos2: "'kern' Horizontal Kerning in Arabic lookup 2 per glyph data 2" afii57410 dx=60 dy=0 dh=60 dv=0 dx=0 dy=0 dh=0 dv=0
PairPos2: "'kern' Horizontal Kerning in Arabic lookup 2 per glyph data 2" afii57411 dx=60 dy=0 dh=60 dv=0 dx=0 dy=0 dh=0 dv=0
PairPos2: "'kern' Horizontal Kerning in Arabic lookup 2 per glyph data 2" uniFE8E.short dx=60 dy=0 dh=60 dv=0 dx=0 dy=0 dh=0 dv=0
PairPos2: "'kern' Horizontal Kerning in Arabic lookup 2 per glyph data 2" afii57415.short dx=60 dy=0 dh=60 dv=0 dx=0 dy=0 dh=0 dv=0
PairPos2: "'kern' Horizontal Kerning in Arabic lookup 2 per glyph data 2" afii57415 dx=60 dy=0 dh=60 dv=0 dx=0 dy=0 dh=0 dv=0
PairPos2: "'kern' Horizontal Kerning in Arabic lookup 2 per glyph data 1" uniFEF3 dx=40 dy=0 dh=40 dv=0 dx=0 dy=0 dh=0 dv=0
PairPos2: "'kern' Horizontal Kerning in Arabic lookup 2 per glyph data 1" uniFB58 dx=40 dy=0 dh=40 dv=0 dx=0 dy=0 dh=0 dv=0
PairPos2: "'kern' Horizontal Kerning in Arabic lookup 2 per glyph data 1" afii57413 dx=40 dy=0 dh=40 dv=0 dx=0 dy=0 dh=0 dv=0
PairPos2: "'kern' Horizontal Kerning in Arabic lookup 2 per glyph data 1" uniFB94 dx=110 dy=0 dh=110 dv=0 dx=0 dy=0 dh=0 dv=0
PairPos2: "'kern' Horizontal Kerning in Arabic lookup 2 per glyph data 1" afii57509 dx=110 dy=0 dh=110 dv=0 dx=0 dy=0 dh=0 dv=0
PairPos2: "'kern' Horizontal Kerning in Arabic lookup 2 per glyph data 1" uniFB90 dx=110 dy=0 dh=110 dv=0 dx=0 dy=0 dh=0 dv=0
PairPos2: "'kern' Horizontal Kerning in Arabic lookup 2 per glyph data 1" uni06A9 dx=110 dy=0 dh=110 dv=0 dx=0 dy=0 dh=0 dv=0
PairPos2: "'kern' Horizontal Kerning in Arabic lookup 2 per glyph data 1" uniFEDB dx=110 dy=0 dh=110 dv=0 dx=0 dy=0 dh=0 dv=0
EndChar

StartChar: O
Encoding: 49 79 18
Width: 726
GlyphClass: 2
Flags: W
AnchorPoint: "Anchor-8" 705 648 basechar 0
AnchorPoint: "Anchor-7" 365 324 basechar 0
AnchorPoint: "Anchor-6" 363 648 basechar 0
AnchorPoint: "Anchor-5" 653 10 basechar 0
AnchorPoint: "Anchor-4" 363 0 basechar 0
LayerCount: 2
Fore
SplineSet
183.5 29 m 128,-1,1
 111 72 111 72 74 148.5 c 128,-1,2
 37 225 37 225 37 326 c 0,3,4
 37 438 37 438 82 513.5 c 128,-1,5
 127 589 127 589 201.5 625.5 c 128,-1,6
 276 662 276 662 367 662 c 0,7,8
 471 662 471 662 543.5 619 c 128,-1,9
 616 576 616 576 652.5 499.5 c 128,-1,10
 689 423 689 423 689 322 c 0,11,12
 689 210 689 210 644.5 134.5 c 128,-1,13
 600 59 600 59 525.5 22.5 c 128,-1,14
 451 -14 451 -14 360 -14 c 0,15,0
 256 -14 256 -14 183.5 29 c 128,-1,1
460.5 128.5 m 128,-1,17
 502 155 502 155 522.5 204.5 c 128,-1,18
 543 254 543 254 543 321 c 0,19,20
 543 427 543 427 498 486.5 c 128,-1,21
 453 546 453 546 367 546 c 0,22,23
 277 546 277 546 230 487.5 c 128,-1,24
 183 429 183 429 183 327 c 0,25,26
 183 221 183 221 228 161.5 c 128,-1,27
 273 102 273 102 360 102 c 0,28,16
 419 102 419 102 460.5 128.5 c 128,-1,17
EndSplineSet
Substitution2: "Single Substitution lookup 23 subtable" ordmasculine
Substitution2: "'aalt' Access All Alternates in Arabic lookup 0 subtable" ordmasculine
PairPos2: "'kern' Horizontal Kerning in Arabic lookup 2 per glyph data 2" uni0671 dx=60 dy=0 dh=60 dv=0 dx=0 dy=0 dh=0 dv=0
PairPos2: "'kern' Horizontal Kerning in Arabic lookup 2 per glyph data 2" afii57410 dx=60 dy=0 dh=60 dv=0 dx=0 dy=0 dh=0 dv=0
PairPos2: "'kern' Horizontal Kerning in Arabic lookup 2 per glyph data 2" afii57411 dx=60 dy=0 dh=60 dv=0 dx=0 dy=0 dh=0 dv=0
PairPos2: "'kern' Horizontal Kerning in Arabic lookup 2 per glyph data 2" uniFE8E.short dx=60 dy=0 dh=60 dv=0 dx=0 dy=0 dh=0 dv=0
PairPos2: "'kern' Horizontal Kerning in Arabic lookup 2 per glyph data 2" afii57415.short dx=60 dy=0 dh=60 dv=0 dx=0 dy=0 dh=0 dv=0
PairPos2: "'kern' Horizontal Kerning in Arabic lookup 2 per glyph data 2" afii57415 dx=60 dy=0 dh=60 dv=0 dx=0 dy=0 dh=0 dv=0
PairPos2: "'kern' Horizontal Kerning in Arabic lookup 2 per glyph data 1" uniFEF3 dx=40 dy=0 dh=40 dv=0 dx=0 dy=0 dh=0 dv=0
PairPos2: "'kern' Horizontal Kerning in Arabic lookup 2 per glyph data 1" uniFB58 dx=40 dy=0 dh=40 dv=0 dx=0 dy=0 dh=0 dv=0
PairPos2: "'kern' Horizontal Kerning in Arabic lookup 2 per glyph data 1" afii57413 dx=40 dy=0 dh=40 dv=0 dx=0 dy=0 dh=0 dv=0
PairPos2: "'kern' Horizontal Kerning in Arabic lookup 2 per glyph data 1" uniFB94 dx=110 dy=0 dh=110 dv=0 dx=0 dy=0 dh=0 dv=0
PairPos2: "'kern' Horizontal Kerning in Arabic lookup 2 per glyph data 1" afii57509 dx=110 dy=0 dh=110 dv=0 dx=0 dy=0 dh=0 dv=0
PairPos2: "'kern' Horizontal Kerning in Arabic lookup 2 per glyph data 1" uniFB90 dx=110 dy=0 dh=110 dv=0 dx=0 dy=0 dh=0 dv=0
PairPos2: "'kern' Horizontal Kerning in Arabic lookup 2 per glyph data 1" uni06A9 dx=110 dy=0 dh=110 dv=0 dx=0 dy=0 dh=0 dv=0
PairPos2: "'kern' Horizontal Kerning in Arabic lookup 2 per glyph data 1" uniFEDB dx=110 dy=0 dh=110 dv=0 dx=0 dy=0 dh=0 dv=0
EndChar

StartChar: P
Encoding: 50 80 19
Width: 576
GlyphClass: 2
Flags: W
AnchorPoint: "Anchor-8" 0 0 basechar 0
AnchorPoint: "Anchor-7" 0 0 basechar 0
AnchorPoint: "Anchor-6" 276 648 basechar 0
AnchorPoint: "Anchor-5" 213 10 basechar 0
AnchorPoint: "Anchor-4" 276 0 basechar 0
LayerCount: 2
Fore
SplineSet
441 621 m 128,-1,1
 498 594 498 594 526 547.5 c 128,-1,2
 554 501 554 501 554 440 c 0,3,4
 554 375 554 375 525 324.5 c 128,-1,5
 496 274 496 274 437.5 245.5 c 128,-1,6
 379 217 379 217 295 217 c 2,7,-1
 213 217 l 1,8,-1
 213 0 l 1,9,-1
 71 0 l 1,10,-1
 71 648 l 1,11,-1
 298 648 l 2,12,0
 384 648 384 648 441 621 c 128,-1,1
375 354.5 m 128,-1,14
 408 378 408 378 408 436 c 0,15,16
 408 485 408 485 378.5 509.5 c 128,-1,17
 349 534 349 534 296 534 c 2,18,-1
 213 534 l 1,19,-1
 213 331 l 1,20,-1
 281 331 l 2,21,13
 342 331 342 331 375 354.5 c 128,-1,14
EndSplineSet
PairPos2: "'kern' Horizontal Kerning in Arabic lookup 2 per glyph data 2" uni0671 dx=60 dy=0 dh=60 dv=0 dx=0 dy=0 dh=0 dv=0
PairPos2: "'kern' Horizontal Kerning in Arabic lookup 2 per glyph data 2" afii57410 dx=60 dy=0 dh=60 dv=0 dx=0 dy=0 dh=0 dv=0
PairPos2: "'kern' Horizontal Kerning in Arabic lookup 2 per glyph data 2" afii57411 dx=60 dy=0 dh=60 dv=0 dx=0 dy=0 dh=0 dv=0
PairPos2: "'kern' Horizontal Kerning in Arabic lookup 2 per glyph data 2" uniFE8E.short dx=60 dy=0 dh=60 dv=0 dx=0 dy=0 dh=0 dv=0
PairPos2: "'kern' Horizontal Kerning in Arabic lookup 2 per glyph data 2" afii57415.short dx=60 dy=0 dh=60 dv=0 dx=0 dy=0 dh=0 dv=0
PairPos2: "'kern' Horizontal Kerning in Arabic lookup 2 per glyph data 2" afii57415 dx=60 dy=0 dh=60 dv=0 dx=0 dy=0 dh=0 dv=0
PairPos2: "'kern' Horizontal Kerning in Arabic lookup 2 per glyph data 1" uniFEF3 dx=40 dy=0 dh=40 dv=0 dx=0 dy=0 dh=0 dv=0
PairPos2: "'kern' Horizontal Kerning in Arabic lookup 2 per glyph data 1" uniFB58 dx=40 dy=0 dh=40 dv=0 dx=0 dy=0 dh=0 dv=0
PairPos2: "'kern' Horizontal Kerning in Arabic lookup 2 per glyph data 1" afii57413 dx=40 dy=0 dh=40 dv=0 dx=0 dy=0 dh=0 dv=0
PairPos2: "'kern' Horizontal Kerning in Arabic lookup 2 per glyph data 1" uniFB94 dx=110 dy=0 dh=110 dv=0 dx=0 dy=0 dh=0 dv=0
PairPos2: "'kern' Horizontal Kerning in Arabic lookup 2 per glyph data 1" afii57509 dx=110 dy=0 dh=110 dv=0 dx=0 dy=0 dh=0 dv=0
PairPos2: "'kern' Horizontal Kerning in Arabic lookup 2 per glyph data 1" uniFB90 dx=110 dy=0 dh=110 dv=0 dx=0 dy=0 dh=0 dv=0
PairPos2: "'kern' Horizontal Kerning in Arabic lookup 2 per glyph data 1" uni06A9 dx=110 dy=0 dh=110 dv=0 dx=0 dy=0 dh=0 dv=0
PairPos2: "'kern' Horizontal Kerning in Arabic lookup 2 per glyph data 1" uniFEDB dx=110 dy=0 dh=110 dv=0 dx=0 dy=0 dh=0 dv=0
EndChar

StartChar: Q
Encoding: 51 81 20
Width: 726
GlyphClass: 2
Flags: W
AnchorPoint: "Anchor-8" 706 648 basechar 0
AnchorPoint: "Anchor-7" 364 324 basechar 0
AnchorPoint: "Anchor-6" 377 648 basechar 0
AnchorPoint: "Anchor-5" 509 10 basechar 0
AnchorPoint: "Anchor-4" 377 0 basechar 0
LayerCount: 2
Fore
SplineSet
620 -171 m 1,0,-1
 391 -13 l 1,1,2
 381 -14 381 -14 360 -14 c 0,3,4
 256 -14 256 -14 183.5 29 c 128,-1,5
 111 72 111 72 74 148.5 c 128,-1,6
 37 225 37 225 37 326 c 0,7,8
 37 438 37 438 82 513.5 c 128,-1,9
 127 589 127 589 201.5 625.5 c 128,-1,10
 276 662 276 662 367 662 c 0,11,12
 471 662 471 662 543.5 619 c 128,-1,13
 616 576 616 576 652.5 499.5 c 128,-1,14
 689 423 689 423 689 322 c 0,15,16
 689 224 689 224 647 150.5 c 128,-1,17
 605 77 605 77 535 34 c 1,18,-1
 698 -49 l 1,19,-1
 620 -171 l 1,0,-1
228 161.5 m 128,-1,21
 273 102 273 102 360 102 c 0,22,23
 419 102 419 102 460.5 128.5 c 128,-1,24
 502 155 502 155 522.5 204.5 c 128,-1,25
 543 254 543 254 543 321 c 0,26,27
 543 427 543 427 498 486.5 c 128,-1,28
 453 546 453 546 367 546 c 0,29,30
 277 546 277 546 230 487.5 c 128,-1,31
 183 429 183 429 183 327 c 0,32,20
 183 221 183 221 228 161.5 c 128,-1,21
EndSplineSet
PairPos2: "'kern' Horizontal Kerning in Arabic lookup 2 per glyph data 2" uni0671 dx=60 dy=0 dh=60 dv=0 dx=0 dy=0 dh=0 dv=0
PairPos2: "'kern' Horizontal Kerning in Arabic lookup 2 per glyph data 2" afii57410 dx=60 dy=0 dh=60 dv=0 dx=0 dy=0 dh=0 dv=0
PairPos2: "'kern' Horizontal Kerning in Arabic lookup 2 per glyph data 2" afii57411 dx=60 dy=0 dh=60 dv=0 dx=0 dy=0 dh=0 dv=0
PairPos2: "'kern' Horizontal Kerning in Arabic lookup 2 per glyph data 2" uniFE8E.short dx=60 dy=0 dh=60 dv=0 dx=0 dy=0 dh=0 dv=0
PairPos2: "'kern' Horizontal Kerning in Arabic lookup 2 per glyph data 2" afii57415.short dx=60 dy=0 dh=60 dv=0 dx=0 dy=0 dh=0 dv=0
PairPos2: "'kern' Horizontal Kerning in Arabic lookup 2 per glyph data 2" afii57415 dx=60 dy=0 dh=60 dv=0 dx=0 dy=0 dh=0 dv=0
PairPos2: "'kern' Horizontal Kerning in Arabic lookup 2 per glyph data 1" uniFEF3 dx=40 dy=0 dh=40 dv=0 dx=0 dy=0 dh=0 dv=0
PairPos2: "'kern' Horizontal Kerning in Arabic lookup 2 per glyph data 1" uniFB58 dx=40 dy=0 dh=40 dv=0 dx=0 dy=0 dh=0 dv=0
PairPos2: "'kern' Horizontal Kerning in Arabic lookup 2 per glyph data 1" afii57413 dx=40 dy=0 dh=40 dv=0 dx=0 dy=0 dh=0 dv=0
PairPos2: "'kern' Horizontal Kerning in Arabic lookup 2 per glyph data 1" uniFB94 dx=110 dy=0 dh=110 dv=0 dx=0 dy=0 dh=0 dv=0
PairPos2: "'kern' Horizontal Kerning in Arabic lookup 2 per glyph data 1" afii57509 dx=110 dy=0 dh=110 dv=0 dx=0 dy=0 dh=0 dv=0
PairPos2: "'kern' Horizontal Kerning in Arabic lookup 2 per glyph data 1" uniFB90 dx=110 dy=0 dh=110 dv=0 dx=0 dy=0 dh=0 dv=0
PairPos2: "'kern' Horizontal Kerning in Arabic lookup 2 per glyph data 1" uni06A9 dx=110 dy=0 dh=110 dv=0 dx=0 dy=0 dh=0 dv=0
PairPos2: "'kern' Horizontal Kerning in Arabic lookup 2 per glyph data 1" uniFEDB dx=110 dy=0 dh=110 dv=0 dx=0 dy=0 dh=0 dv=0
EndChar

StartChar: R
Encoding: 52 82 21
Width: 601
GlyphClass: 2
Flags: W
AnchorPoint: "Anchor-8" 0 0 basechar 0
AnchorPoint: "Anchor-7" 0 0 basechar 0
AnchorPoint: "Anchor-6" 286 648 basechar 0
AnchorPoint: "Anchor-5" 213 10 basechar 0
AnchorPoint: "Anchor-4" 298 0 basechar 0
LayerCount: 2
Fore
SplineSet
585 8 m 1,0,-1
 585 0 l 1,1,-1
 428 0 l 1,2,-1
 267 236 l 1,3,-1
 213 236 l 1,4,-1
 213 0 l 1,5,-1
 71 0 l 1,6,-1
 71 648 l 1,7,-1
 288 648 l 2,8,9
 374 648 374 648 431.5 621.5 c 128,-1,10
 489 595 489 595 517 549.5 c 128,-1,11
 545 504 545 504 545 446 c 0,12,13
 545 378 545 378 511 328.5 c 128,-1,14
 477 279 477 279 411 255 c 1,15,-1
 585 8 l 1,0,-1
213 343 m 1,16,-1
 274 343 l 2,17,18
 334 343 334 343 366.5 366 c 128,-1,19
 399 389 399 389 399 442 c 0,20,21
 399 488 399 488 370 511 c 128,-1,22
 341 534 341 534 289 534 c 2,23,-1
 213 534 l 1,24,-1
 213 343 l 1,16,-1
EndSplineSet
PairPos2: "'kern' Horizontal Kerning in Arabic lookup 2 per glyph data 2" uni0671 dx=60 dy=0 dh=60 dv=0 dx=0 dy=0 dh=0 dv=0
PairPos2: "'kern' Horizontal Kerning in Arabic lookup 2 per glyph data 2" afii57410 dx=60 dy=0 dh=60 dv=0 dx=0 dy=0 dh=0 dv=0
PairPos2: "'kern' Horizontal Kerning in Arabic lookup 2 per glyph data 2" afii57411 dx=60 dy=0 dh=60 dv=0 dx=0 dy=0 dh=0 dv=0
PairPos2: "'kern' Horizontal Kerning in Arabic lookup 2 per glyph data 2" uniFE8E.short dx=60 dy=0 dh=60 dv=0 dx=0 dy=0 dh=0 dv=0
PairPos2: "'kern' Horizontal Kerning in Arabic lookup 2 per glyph data 2" afii57415.short dx=60 dy=0 dh=60 dv=0 dx=0 dy=0 dh=0 dv=0
PairPos2: "'kern' Horizontal Kerning in Arabic lookup 2 per glyph data 2" afii57415 dx=60 dy=0 dh=60 dv=0 dx=0 dy=0 dh=0 dv=0
PairPos2: "'kern' Horizontal Kerning in Arabic lookup 2 per glyph data 1" uniFEF3 dx=40 dy=0 dh=40 dv=0 dx=0 dy=0 dh=0 dv=0
PairPos2: "'kern' Horizontal Kerning in Arabic lookup 2 per glyph data 1" uniFB58 dx=40 dy=0 dh=40 dv=0 dx=0 dy=0 dh=0 dv=0
PairPos2: "'kern' Horizontal Kerning in Arabic lookup 2 per glyph data 1" afii57413 dx=40 dy=0 dh=40 dv=0 dx=0 dy=0 dh=0 dv=0
PairPos2: "'kern' Horizontal Kerning in Arabic lookup 2 per glyph data 1" uniFB94 dx=110 dy=0 dh=110 dv=0 dx=0 dy=0 dh=0 dv=0
PairPos2: "'kern' Horizontal Kerning in Arabic lookup 2 per glyph data 1" afii57509 dx=110 dy=0 dh=110 dv=0 dx=0 dy=0 dh=0 dv=0
PairPos2: "'kern' Horizontal Kerning in Arabic lookup 2 per glyph data 1" uniFB90 dx=110 dy=0 dh=110 dv=0 dx=0 dy=0 dh=0 dv=0
PairPos2: "'kern' Horizontal Kerning in Arabic lookup 2 per glyph data 1" uni06A9 dx=110 dy=0 dh=110 dv=0 dx=0 dy=0 dh=0 dv=0
PairPos2: "'kern' Horizontal Kerning in Arabic lookup 2 per glyph data 1" uniFEDB dx=110 dy=0 dh=110 dv=0 dx=0 dy=0 dh=0 dv=0
EndChar

StartChar: S
Encoding: 53 83 22
Width: 566
GlyphClass: 2
Flags: W
AnchorPoint: "Anchor-8" 0 0 basechar 0
AnchorPoint: "Anchor-7" 0 0 basechar 0
AnchorPoint: "Anchor-6" 288 648 basechar 0
AnchorPoint: "Anchor-5" 0 0 basechar 0
AnchorPoint: "Anchor-4" 275 0 basechar 0
LayerCount: 2
Fore
SplineSet
19 64 m 1,1,-1
 83 163 l 1,2,3
 176 104 176 104 265 104 c 0,4,5
 322 104 322 104 354.5 122 c 128,-1,6
 387 140 387 140 387 176 c 0,7,8
 387 198 387 198 376.5 212.5 c 128,-1,9
 366 227 366 227 339.5 240.5 c 128,-1,10
 313 254 313 254 260 275 c 2,11,-1
 237 284 l 2,12,13
 173 309 173 309 134 332 c 128,-1,14
 95 355 95 355 72 391 c 128,-1,15
 49 427 49 427 49 482 c 0,16,17
 49 543 49 543 84 583.5 c 128,-1,18
 119 624 119 624 174 643 c 128,-1,19
 229 662 229 662 291 662 c 0,20,21
 347 662 347 662 406.5 643.5 c 128,-1,22
 466 625 466 625 520 589 c 1,23,-1
 455 491 l 1,24,25
 407 520 407 520 370 533 c 128,-1,26
 333 546 333 546 290 546 c 0,27,28
 242 546 242 546 217.5 530 c 128,-1,29
 193 514 193 514 193 487 c 0,30,31
 193 470 193 470 203 456.5 c 128,-1,32
 213 443 213 443 239 429.5 c 128,-1,33
 265 416 265 416 314 398 c 2,34,-1
 336 390 l 2,35,36
 400 366 400 366 439.5 345 c 128,-1,37
 479 324 479 324 506 285 c 128,-1,38
 533 246 533 246 533 184 c 0,39,40
 533 119 533 119 499 74.5 c 128,-1,41
 465 30 465 30 406.5 8 c 128,-1,42
 348 -14 348 -14 274 -14 c 0,43,0
 124 -14 124 -14 19 64 c 1,1,-1
EndSplineSet
PairPos2: "'kern' Horizontal Kerning in Arabic lookup 2 per glyph data 2" uni0671 dx=60 dy=0 dh=60 dv=0 dx=0 dy=0 dh=0 dv=0
PairPos2: "'kern' Horizontal Kerning in Arabic lookup 2 per glyph data 2" afii57410 dx=60 dy=0 dh=60 dv=0 dx=0 dy=0 dh=0 dv=0
PairPos2: "'kern' Horizontal Kerning in Arabic lookup 2 per glyph data 2" afii57411 dx=60 dy=0 dh=60 dv=0 dx=0 dy=0 dh=0 dv=0
PairPos2: "'kern' Horizontal Kerning in Arabic lookup 2 per glyph data 2" uniFE8E.short dx=60 dy=0 dh=60 dv=0 dx=0 dy=0 dh=0 dv=0
PairPos2: "'kern' Horizontal Kerning in Arabic lookup 2 per glyph data 2" afii57415.short dx=60 dy=0 dh=60 dv=0 dx=0 dy=0 dh=0 dv=0
PairPos2: "'kern' Horizontal Kerning in Arabic lookup 2 per glyph data 2" afii57415 dx=60 dy=0 dh=60 dv=0 dx=0 dy=0 dh=0 dv=0
PairPos2: "'kern' Horizontal Kerning in Arabic lookup 2 per glyph data 1" uniFEF3 dx=40 dy=0 dh=40 dv=0 dx=0 dy=0 dh=0 dv=0
PairPos2: "'kern' Horizontal Kerning in Arabic lookup 2 per glyph data 1" uniFB58 dx=40 dy=0 dh=40 dv=0 dx=0 dy=0 dh=0 dv=0
PairPos2: "'kern' Horizontal Kerning in Arabic lookup 2 per glyph data 1" afii57413 dx=40 dy=0 dh=40 dv=0 dx=0 dy=0 dh=0 dv=0
PairPos2: "'kern' Horizontal Kerning in Arabic lookup 2 per glyph data 1" uniFB94 dx=110 dy=0 dh=110 dv=0 dx=0 dy=0 dh=0 dv=0
PairPos2: "'kern' Horizontal Kerning in Arabic lookup 2 per glyph data 1" afii57509 dx=110 dy=0 dh=110 dv=0 dx=0 dy=0 dh=0 dv=0
PairPos2: "'kern' Horizontal Kerning in Arabic lookup 2 per glyph data 1" uniFB90 dx=110 dy=0 dh=110 dv=0 dx=0 dy=0 dh=0 dv=0
PairPos2: "'kern' Horizontal Kerning in Arabic lookup 2 per glyph data 1" uni06A9 dx=110 dy=0 dh=110 dv=0 dx=0 dy=0 dh=0 dv=0
PairPos2: "'kern' Horizontal Kerning in Arabic lookup 2 per glyph data 1" uniFEDB dx=110 dy=0 dh=110 dv=0 dx=0 dy=0 dh=0 dv=0
EndChar

StartChar: T
Encoding: 54 84 23
Width: 577
GlyphClass: 2
Flags: W
AnchorPoint: "Anchor-8" 0 0 basechar 0
AnchorPoint: "Anchor-7" 289 334 basechar 0
AnchorPoint: "Anchor-6" 289 648 basechar 0
AnchorPoint: "Anchor-5" 362 10 basechar 0
AnchorPoint: "Anchor-4" 289 0 basechar 0
LayerCount: 2
Fore
SplineSet
564 648 m 1,0,-1
 564 527 l 1,1,-1
 362 527 l 1,2,-1
 362 0 l 1,3,-1
 220 0 l 1,4,-1
 220 527 l 1,5,-1
 13 527 l 1,6,-1
 13 648 l 1,7,-1
 564 648 l 1,0,-1
EndSplineSet
PairPos2: "'kern' Horizontal Kerning in Arabic lookup 2 per glyph data 2" uni0671 dx=60 dy=0 dh=60 dv=0 dx=0 dy=0 dh=0 dv=0
PairPos2: "'kern' Horizontal Kerning in Arabic lookup 2 per glyph data 2" afii57410 dx=60 dy=0 dh=60 dv=0 dx=0 dy=0 dh=0 dv=0
PairPos2: "'kern' Horizontal Kerning in Arabic lookup 2 per glyph data 2" afii57411 dx=60 dy=0 dh=60 dv=0 dx=0 dy=0 dh=0 dv=0
PairPos2: "'kern' Horizontal Kerning in Arabic lookup 2 per glyph data 2" uniFE8E.short dx=60 dy=0 dh=60 dv=0 dx=0 dy=0 dh=0 dv=0
PairPos2: "'kern' Horizontal Kerning in Arabic lookup 2 per glyph data 2" afii57415.short dx=60 dy=0 dh=60 dv=0 dx=0 dy=0 dh=0 dv=0
PairPos2: "'kern' Horizontal Kerning in Arabic lookup 2 per glyph data 2" afii57415 dx=60 dy=0 dh=60 dv=0 dx=0 dy=0 dh=0 dv=0
PairPos2: "'kern' Horizontal Kerning in Arabic lookup 2 per glyph data 1" uniFEF3 dx=40 dy=0 dh=40 dv=0 dx=0 dy=0 dh=0 dv=0
PairPos2: "'kern' Horizontal Kerning in Arabic lookup 2 per glyph data 1" uniFB58 dx=40 dy=0 dh=40 dv=0 dx=0 dy=0 dh=0 dv=0
PairPos2: "'kern' Horizontal Kerning in Arabic lookup 2 per glyph data 1" afii57413 dx=40 dy=0 dh=40 dv=0 dx=0 dy=0 dh=0 dv=0
PairPos2: "'kern' Horizontal Kerning in Arabic lookup 2 per glyph data 1" uniFB94 dx=110 dy=0 dh=110 dv=0 dx=0 dy=0 dh=0 dv=0
PairPos2: "'kern' Horizontal Kerning in Arabic lookup 2 per glyph data 1" afii57509 dx=110 dy=0 dh=110 dv=0 dx=0 dy=0 dh=0 dv=0
PairPos2: "'kern' Horizontal Kerning in Arabic lookup 2 per glyph data 1" uniFB90 dx=110 dy=0 dh=110 dv=0 dx=0 dy=0 dh=0 dv=0
PairPos2: "'kern' Horizontal Kerning in Arabic lookup 2 per glyph data 1" uni06A9 dx=110 dy=0 dh=110 dv=0 dx=0 dy=0 dh=0 dv=0
PairPos2: "'kern' Horizontal Kerning in Arabic lookup 2 per glyph data 1" uniFEDB dx=110 dy=0 dh=110 dv=0 dx=0 dy=0 dh=0 dv=0
EndChar

StartChar: U
Encoding: 55 85 24
Width: 688
GlyphClass: 2
Flags: W
AnchorPoint: "Anchor-8" 669 648 basechar 0
AnchorPoint: "Anchor-7" 0 0 basechar 0
AnchorPoint: "Anchor-6" 344 648 basechar 0
AnchorPoint: "Anchor-5" 481 10 basechar 0
AnchorPoint: "Anchor-4" 344 0 basechar 0
LayerCount: 2
Fore
SplineSet
177 22.5 m 128,-1,1
 114 59 114 59 85.5 121.5 c 128,-1,2
 57 184 57 184 57 264 c 2,3,-1
 57 648 l 1,4,-1
 199 648 l 1,5,-1
 199 281 l 2,6,7
 199 197 199 197 232 150.5 c 128,-1,8
 265 104 265 104 347 104 c 0,9,10
 425 104 425 104 457 150.5 c 128,-1,11
 489 197 489 197 489 271 c 2,12,-1
 489 648 l 1,13,-1
 631 648 l 1,14,-1
 631 267 l 2,15,16
 631 168 631 168 593 105.5 c 128,-1,17
 555 43 555 43 489.5 14.5 c 128,-1,18
 424 -14 424 -14 338 -14 c 0,19,0
 240 -14 240 -14 177 22.5 c 128,-1,1
EndSplineSet
PairPos2: "'kern' Horizontal Kerning in Arabic lookup 2 per glyph data 2" uni0671 dx=60 dy=0 dh=60 dv=0 dx=0 dy=0 dh=0 dv=0
PairPos2: "'kern' Horizontal Kerning in Arabic lookup 2 per glyph data 2" afii57410 dx=60 dy=0 dh=60 dv=0 dx=0 dy=0 dh=0 dv=0
PairPos2: "'kern' Horizontal Kerning in Arabic lookup 2 per glyph data 2" afii57411 dx=60 dy=0 dh=60 dv=0 dx=0 dy=0 dh=0 dv=0
PairPos2: "'kern' Horizontal Kerning in Arabic lookup 2 per glyph data 2" uniFE8E.short dx=60 dy=0 dh=60 dv=0 dx=0 dy=0 dh=0 dv=0
PairPos2: "'kern' Horizontal Kerning in Arabic lookup 2 per glyph data 2" afii57415.short dx=60 dy=0 dh=60 dv=0 dx=0 dy=0 dh=0 dv=0
PairPos2: "'kern' Horizontal Kerning in Arabic lookup 2 per glyph data 2" afii57415 dx=60 dy=0 dh=60 dv=0 dx=0 dy=0 dh=0 dv=0
PairPos2: "'kern' Horizontal Kerning in Arabic lookup 2 per glyph data 1" uniFEF3 dx=40 dy=0 dh=40 dv=0 dx=0 dy=0 dh=0 dv=0
PairPos2: "'kern' Horizontal Kerning in Arabic lookup 2 per glyph data 1" uniFB58 dx=40 dy=0 dh=40 dv=0 dx=0 dy=0 dh=0 dv=0
PairPos2: "'kern' Horizontal Kerning in Arabic lookup 2 per glyph data 1" afii57413 dx=40 dy=0 dh=40 dv=0 dx=0 dy=0 dh=0 dv=0
PairPos2: "'kern' Horizontal Kerning in Arabic lookup 2 per glyph data 1" uniFB94 dx=110 dy=0 dh=110 dv=0 dx=0 dy=0 dh=0 dv=0
PairPos2: "'kern' Horizontal Kerning in Arabic lookup 2 per glyph data 1" afii57509 dx=110 dy=0 dh=110 dv=0 dx=0 dy=0 dh=0 dv=0
PairPos2: "'kern' Horizontal Kerning in Arabic lookup 2 per glyph data 1" uniFB90 dx=110 dy=0 dh=110 dv=0 dx=0 dy=0 dh=0 dv=0
PairPos2: "'kern' Horizontal Kerning in Arabic lookup 2 per glyph data 1" uni06A9 dx=110 dy=0 dh=110 dv=0 dx=0 dy=0 dh=0 dv=0
PairPos2: "'kern' Horizontal Kerning in Arabic lookup 2 per glyph data 1" uniFEDB dx=110 dy=0 dh=110 dv=0 dx=0 dy=0 dh=0 dv=0
EndChar

StartChar: V
Encoding: 56 86 25
Width: 656
GlyphClass: 2
Flags: W
AnchorPoint: "Anchor-8" 0 0 basechar 0
AnchorPoint: "Anchor-7" 0 0 basechar 0
AnchorPoint: "Anchor-6" 329 648 basechar 0
AnchorPoint: "Anchor-5" 0 0 basechar 0
AnchorPoint: "Anchor-4" 329 0 basechar 0
LayerCount: 2
Fore
SplineSet
499 648 m 1,0,-1
 644 648 l 1,1,-1
 644 640 l 1,2,-1
 407 0 l 1,3,-1
 250 0 l 1,4,-1
 12 640 l 1,5,-1
 12 648 l 1,6,-1
 162 648 l 1,7,-1
 331 143 l 1,8,-1
 499 648 l 1,0,-1
EndSplineSet
PairPos2: "'kern' Horizontal Kerning in Arabic lookup 2 per glyph data 2" uni0671 dx=60 dy=0 dh=60 dv=0 dx=0 dy=0 dh=0 dv=0
PairPos2: "'kern' Horizontal Kerning in Arabic lookup 2 per glyph data 2" afii57410 dx=60 dy=0 dh=60 dv=0 dx=0 dy=0 dh=0 dv=0
PairPos2: "'kern' Horizontal Kerning in Arabic lookup 2 per glyph data 2" afii57411 dx=60 dy=0 dh=60 dv=0 dx=0 dy=0 dh=0 dv=0
PairPos2: "'kern' Horizontal Kerning in Arabic lookup 2 per glyph data 2" uniFE8E.short dx=60 dy=0 dh=60 dv=0 dx=0 dy=0 dh=0 dv=0
PairPos2: "'kern' Horizontal Kerning in Arabic lookup 2 per glyph data 2" afii57415.short dx=60 dy=0 dh=60 dv=0 dx=0 dy=0 dh=0 dv=0
PairPos2: "'kern' Horizontal Kerning in Arabic lookup 2 per glyph data 2" afii57415 dx=60 dy=0 dh=60 dv=0 dx=0 dy=0 dh=0 dv=0
PairPos2: "'kern' Horizontal Kerning in Arabic lookup 2 per glyph data 1" uniFEF3 dx=40 dy=0 dh=40 dv=0 dx=0 dy=0 dh=0 dv=0
PairPos2: "'kern' Horizontal Kerning in Arabic lookup 2 per glyph data 1" uniFB58 dx=40 dy=0 dh=40 dv=0 dx=0 dy=0 dh=0 dv=0
PairPos2: "'kern' Horizontal Kerning in Arabic lookup 2 per glyph data 1" afii57413 dx=40 dy=0 dh=40 dv=0 dx=0 dy=0 dh=0 dv=0
PairPos2: "'kern' Horizontal Kerning in Arabic lookup 2 per glyph data 1" uniFB94 dx=110 dy=0 dh=110 dv=0 dx=0 dy=0 dh=0 dv=0
PairPos2: "'kern' Horizontal Kerning in Arabic lookup 2 per glyph data 1" afii57509 dx=110 dy=0 dh=110 dv=0 dx=0 dy=0 dh=0 dv=0
PairPos2: "'kern' Horizontal Kerning in Arabic lookup 2 per glyph data 1" uniFB90 dx=110 dy=0 dh=110 dv=0 dx=0 dy=0 dh=0 dv=0
PairPos2: "'kern' Horizontal Kerning in Arabic lookup 2 per glyph data 1" uni06A9 dx=110 dy=0 dh=110 dv=0 dx=0 dy=0 dh=0 dv=0
PairPos2: "'kern' Horizontal Kerning in Arabic lookup 2 per glyph data 1" uniFEDB dx=110 dy=0 dh=110 dv=0 dx=0 dy=0 dh=0 dv=0
EndChar

StartChar: W
Encoding: 57 87 26
Width: 925
GlyphClass: 2
Flags: W
AnchorPoint: "Anchor-8" 0 0 basechar 0
AnchorPoint: "Anchor-7" 0 0 basechar 0
AnchorPoint: "Anchor-6" 466 648 basechar 0
AnchorPoint: "Anchor-5" 0 0 basechar 0
AnchorPoint: "Anchor-4" 465 0 basechar 0
LayerCount: 2
Fore
SplineSet
909 648 m 1,0,-1
 909 640 l 1,1,-1
 743 0 l 1,2,-1
 567 0 l 1,3,-1
 487 355 l 2,4,5
 473 414 473 414 462 498 c 1,6,7
 451 414 451 414 437 355 c 2,8,-1
 359 0 l 1,9,-1
 183 0 l 1,10,-1
 16 640 l 1,11,-1
 16 648 l 1,12,-1
 161 648 l 1,13,-1
 244 297 l 2,14,15
 251 269 251 269 259 223 c 128,-1,16
 267 177 267 177 273 132 c 1,17,18
 289 235 289 235 303 297 c 2,19,-1
 385 648 l 1,20,-1
 546 648 l 1,21,-1
 626 304 l 2,22,23
 644 223 644 223 658 131 c 1,24,25
 664 173 664 173 672.5 220 c 128,-1,26
 681 267 681 267 689 304 c 2,27,-1
 766 648 l 1,28,-1
 909 648 l 1,0,-1
EndSplineSet
PairPos2: "'kern' Horizontal Kerning in Arabic lookup 2 per glyph data 2" uni0671 dx=60 dy=0 dh=60 dv=0 dx=0 dy=0 dh=0 dv=0
PairPos2: "'kern' Horizontal Kerning in Arabic lookup 2 per glyph data 2" afii57410 dx=60 dy=0 dh=60 dv=0 dx=0 dy=0 dh=0 dv=0
PairPos2: "'kern' Horizontal Kerning in Arabic lookup 2 per glyph data 2" afii57411 dx=60 dy=0 dh=60 dv=0 dx=0 dy=0 dh=0 dv=0
PairPos2: "'kern' Horizontal Kerning in Arabic lookup 2 per glyph data 2" uniFE8E.short dx=60 dy=0 dh=60 dv=0 dx=0 dy=0 dh=0 dv=0
PairPos2: "'kern' Horizontal Kerning in Arabic lookup 2 per glyph data 2" afii57415.short dx=60 dy=0 dh=60 dv=0 dx=0 dy=0 dh=0 dv=0
PairPos2: "'kern' Horizontal Kerning in Arabic lookup 2 per glyph data 2" afii57415 dx=60 dy=0 dh=60 dv=0 dx=0 dy=0 dh=0 dv=0
PairPos2: "'kern' Horizontal Kerning in Arabic lookup 2 per glyph data 1" uniFEF3 dx=40 dy=0 dh=40 dv=0 dx=0 dy=0 dh=0 dv=0
PairPos2: "'kern' Horizontal Kerning in Arabic lookup 2 per glyph data 1" uniFB58 dx=40 dy=0 dh=40 dv=0 dx=0 dy=0 dh=0 dv=0
PairPos2: "'kern' Horizontal Kerning in Arabic lookup 2 per glyph data 1" afii57413 dx=40 dy=0 dh=40 dv=0 dx=0 dy=0 dh=0 dv=0
PairPos2: "'kern' Horizontal Kerning in Arabic lookup 2 per glyph data 1" uniFB94 dx=110 dy=0 dh=110 dv=0 dx=0 dy=0 dh=0 dv=0
PairPos2: "'kern' Horizontal Kerning in Arabic lookup 2 per glyph data 1" afii57509 dx=110 dy=0 dh=110 dv=0 dx=0 dy=0 dh=0 dv=0
PairPos2: "'kern' Horizontal Kerning in Arabic lookup 2 per glyph data 1" uniFB90 dx=110 dy=0 dh=110 dv=0 dx=0 dy=0 dh=0 dv=0
PairPos2: "'kern' Horizontal Kerning in Arabic lookup 2 per glyph data 1" uni06A9 dx=110 dy=0 dh=110 dv=0 dx=0 dy=0 dh=0 dv=0
PairPos2: "'kern' Horizontal Kerning in Arabic lookup 2 per glyph data 1" uniFEDB dx=110 dy=0 dh=110 dv=0 dx=0 dy=0 dh=0 dv=0
EndChar

StartChar: X
Encoding: 58 88 27
Width: 626
GlyphClass: 2
Flags: W
AnchorPoint: "Anchor-8" 0 0 basechar 0
AnchorPoint: "Anchor-7" 0 0 basechar 0
AnchorPoint: "Anchor-6" 312 648 basechar 0
AnchorPoint: "Anchor-5" 0 0 basechar 0
AnchorPoint: "Anchor-4" 310 0 basechar 0
LayerCount: 2
Fore
SplineSet
398 343 m 1,0,-1
 613 0 l 1,1,-1
 442 0 l 1,2,-1
 312 238 l 1,3,-1
 169 0 l 1,4,-1
 12 0 l 1,5,-1
 227 331 l 1,6,-1
 22 648 l 1,7,-1
 191 648 l 1,8,-1
 316 435 l 1,9,-1
 445 648 l 1,10,-1
 601 648 l 1,11,-1
 398 343 l 1,0,-1
EndSplineSet
PairPos2: "'kern' Horizontal Kerning in Arabic lookup 2 per glyph data 2" uni0671 dx=60 dy=0 dh=60 dv=0 dx=0 dy=0 dh=0 dv=0
PairPos2: "'kern' Horizontal Kerning in Arabic lookup 2 per glyph data 2" afii57410 dx=60 dy=0 dh=60 dv=0 dx=0 dy=0 dh=0 dv=0
PairPos2: "'kern' Horizontal Kerning in Arabic lookup 2 per glyph data 2" afii57411 dx=60 dy=0 dh=60 dv=0 dx=0 dy=0 dh=0 dv=0
PairPos2: "'kern' Horizontal Kerning in Arabic lookup 2 per glyph data 2" uniFE8E.short dx=60 dy=0 dh=60 dv=0 dx=0 dy=0 dh=0 dv=0
PairPos2: "'kern' Horizontal Kerning in Arabic lookup 2 per glyph data 2" afii57415.short dx=60 dy=0 dh=60 dv=0 dx=0 dy=0 dh=0 dv=0
PairPos2: "'kern' Horizontal Kerning in Arabic lookup 2 per glyph data 2" afii57415 dx=60 dy=0 dh=60 dv=0 dx=0 dy=0 dh=0 dv=0
PairPos2: "'kern' Horizontal Kerning in Arabic lookup 2 per glyph data 1" uniFEF3 dx=40 dy=0 dh=40 dv=0 dx=0 dy=0 dh=0 dv=0
PairPos2: "'kern' Horizontal Kerning in Arabic lookup 2 per glyph data 1" uniFB58 dx=40 dy=0 dh=40 dv=0 dx=0 dy=0 dh=0 dv=0
PairPos2: "'kern' Horizontal Kerning in Arabic lookup 2 per glyph data 1" afii57413 dx=40 dy=0 dh=40 dv=0 dx=0 dy=0 dh=0 dv=0
PairPos2: "'kern' Horizontal Kerning in Arabic lookup 2 per glyph data 1" uniFB94 dx=110 dy=0 dh=110 dv=0 dx=0 dy=0 dh=0 dv=0
PairPos2: "'kern' Horizontal Kerning in Arabic lookup 2 per glyph data 1" afii57509 dx=110 dy=0 dh=110 dv=0 dx=0 dy=0 dh=0 dv=0
PairPos2: "'kern' Horizontal Kerning in Arabic lookup 2 per glyph data 1" uniFB90 dx=110 dy=0 dh=110 dv=0 dx=0 dy=0 dh=0 dv=0
PairPos2: "'kern' Horizontal Kerning in Arabic lookup 2 per glyph data 1" uni06A9 dx=110 dy=0 dh=110 dv=0 dx=0 dy=0 dh=0 dv=0
PairPos2: "'kern' Horizontal Kerning in Arabic lookup 2 per glyph data 1" uniFEDB dx=110 dy=0 dh=110 dv=0 dx=0 dy=0 dh=0 dv=0
EndChar

StartChar: Y
Encoding: 59 89 28
Width: 636
GlyphClass: 2
Flags: W
AnchorPoint: "Anchor-8" 0 0 basechar 0
AnchorPoint: "Anchor-7" 0 0 basechar 0
AnchorPoint: "Anchor-6" 318 648 basechar 0
AnchorPoint: "Anchor-5" 0 0 basechar 0
AnchorPoint: "Anchor-4" 318 0 basechar 0
LayerCount: 2
Fore
SplineSet
624 648 m 1,0,-1
 624 640 l 1,1,-1
 388 270 l 1,2,-1
 388 0 l 1,3,-1
 246 0 l 1,4,-1
 246 266 l 1,5,-1
 12 640 l 1,6,-1
 12 648 l 1,7,-1
 172 648 l 1,8,-1
 318 398 l 1,9,-1
 470 648 l 1,10,-1
 624 648 l 1,0,-1
EndSplineSet
PairPos2: "'kern' Horizontal Kerning in Arabic lookup 2 per glyph data 2" uni0671 dx=60 dy=0 dh=60 dv=0 dx=0 dy=0 dh=0 dv=0
PairPos2: "'kern' Horizontal Kerning in Arabic lookup 2 per glyph data 2" afii57410 dx=60 dy=0 dh=60 dv=0 dx=0 dy=0 dh=0 dv=0
PairPos2: "'kern' Horizontal Kerning in Arabic lookup 2 per glyph data 2" afii57411 dx=60 dy=0 dh=60 dv=0 dx=0 dy=0 dh=0 dv=0
PairPos2: "'kern' Horizontal Kerning in Arabic lookup 2 per glyph data 2" uniFE8E.short dx=60 dy=0 dh=60 dv=0 dx=0 dy=0 dh=0 dv=0
PairPos2: "'kern' Horizontal Kerning in Arabic lookup 2 per glyph data 2" afii57415.short dx=60 dy=0 dh=60 dv=0 dx=0 dy=0 dh=0 dv=0
PairPos2: "'kern' Horizontal Kerning in Arabic lookup 2 per glyph data 2" afii57415 dx=60 dy=0 dh=60 dv=0 dx=0 dy=0 dh=0 dv=0
PairPos2: "'kern' Horizontal Kerning in Arabic lookup 2 per glyph data 1" uniFEF3 dx=40 dy=0 dh=40 dv=0 dx=0 dy=0 dh=0 dv=0
PairPos2: "'kern' Horizontal Kerning in Arabic lookup 2 per glyph data 1" uniFB58 dx=40 dy=0 dh=40 dv=0 dx=0 dy=0 dh=0 dv=0
PairPos2: "'kern' Horizontal Kerning in Arabic lookup 2 per glyph data 1" afii57413 dx=40 dy=0 dh=40 dv=0 dx=0 dy=0 dh=0 dv=0
PairPos2: "'kern' Horizontal Kerning in Arabic lookup 2 per glyph data 1" uniFB94 dx=110 dy=0 dh=110 dv=0 dx=0 dy=0 dh=0 dv=0
PairPos2: "'kern' Horizontal Kerning in Arabic lookup 2 per glyph data 1" afii57509 dx=110 dy=0 dh=110 dv=0 dx=0 dy=0 dh=0 dv=0
PairPos2: "'kern' Horizontal Kerning in Arabic lookup 2 per glyph data 1" uniFB90 dx=110 dy=0 dh=110 dv=0 dx=0 dy=0 dh=0 dv=0
PairPos2: "'kern' Horizontal Kerning in Arabic lookup 2 per glyph data 1" uni06A9 dx=110 dy=0 dh=110 dv=0 dx=0 dy=0 dh=0 dv=0
PairPos2: "'kern' Horizontal Kerning in Arabic lookup 2 per glyph data 1" uniFEDB dx=110 dy=0 dh=110 dv=0 dx=0 dy=0 dh=0 dv=0
EndChar

StartChar: Z
Encoding: 60 90 29
Width: 581
GlyphClass: 2
Flags: W
AnchorPoint: "Anchor-8" 0 0 basechar 0
AnchorPoint: "Anchor-7" 0 0 basechar 0
AnchorPoint: "Anchor-6" 290 648 basechar 0
AnchorPoint: "Anchor-5" 0 0 basechar 0
AnchorPoint: "Anchor-4" 290 0 basechar 0
LayerCount: 2
Fore
SplineSet
544 648 m 1,0,-1
 544 580 l 1,1,-1
 225 121 l 1,2,-1
 531 121 l 1,3,-1
 531 0 l 1,4,-1
 27 0 l 1,5,-1
 27 68 l 1,6,-1
 349 527 l 1,7,-1
 46 527 l 1,8,-1
 61 648 l 1,9,-1
 544 648 l 1,0,-1
EndSplineSet
PairPos2: "'kern' Horizontal Kerning in Arabic lookup 2 per glyph data 2" uni0671 dx=60 dy=0 dh=60 dv=0 dx=0 dy=0 dh=0 dv=0
PairPos2: "'kern' Horizontal Kerning in Arabic lookup 2 per glyph data 2" afii57410 dx=60 dy=0 dh=60 dv=0 dx=0 dy=0 dh=0 dv=0
PairPos2: "'kern' Horizontal Kerning in Arabic lookup 2 per glyph data 2" afii57411 dx=60 dy=0 dh=60 dv=0 dx=0 dy=0 dh=0 dv=0
PairPos2: "'kern' Horizontal Kerning in Arabic lookup 2 per glyph data 2" uniFE8E.short dx=60 dy=0 dh=60 dv=0 dx=0 dy=0 dh=0 dv=0
PairPos2: "'kern' Horizontal Kerning in Arabic lookup 2 per glyph data 2" afii57415.short dx=60 dy=0 dh=60 dv=0 dx=0 dy=0 dh=0 dv=0
PairPos2: "'kern' Horizontal Kerning in Arabic lookup 2 per glyph data 2" afii57415 dx=60 dy=0 dh=60 dv=0 dx=0 dy=0 dh=0 dv=0
PairPos2: "'kern' Horizontal Kerning in Arabic lookup 2 per glyph data 1" uniFEF3 dx=40 dy=0 dh=40 dv=0 dx=0 dy=0 dh=0 dv=0
PairPos2: "'kern' Horizontal Kerning in Arabic lookup 2 per glyph data 1" uniFB58 dx=40 dy=0 dh=40 dv=0 dx=0 dy=0 dh=0 dv=0
PairPos2: "'kern' Horizontal Kerning in Arabic lookup 2 per glyph data 1" afii57413 dx=40 dy=0 dh=40 dv=0 dx=0 dy=0 dh=0 dv=0
PairPos2: "'kern' Horizontal Kerning in Arabic lookup 2 per glyph data 1" uniFB94 dx=110 dy=0 dh=110 dv=0 dx=0 dy=0 dh=0 dv=0
PairPos2: "'kern' Horizontal Kerning in Arabic lookup 2 per glyph data 1" afii57509 dx=110 dy=0 dh=110 dv=0 dx=0 dy=0 dh=0 dv=0
PairPos2: "'kern' Horizontal Kerning in Arabic lookup 2 per glyph data 1" uniFB90 dx=110 dy=0 dh=110 dv=0 dx=0 dy=0 dh=0 dv=0
PairPos2: "'kern' Horizontal Kerning in Arabic lookup 2 per glyph data 1" uni06A9 dx=110 dy=0 dh=110 dv=0 dx=0 dy=0 dh=0 dv=0
PairPos2: "'kern' Horizontal Kerning in Arabic lookup 2 per glyph data 1" uniFEDB dx=110 dy=0 dh=110 dv=0 dx=0 dy=0 dh=0 dv=0
EndChar

StartChar: a
Encoding: 67 97 30
Width: 495
GlyphClass: 2
Flags: W
AnchorPoint: "Anchor-8" 0 0 basechar 0
AnchorPoint: "Anchor-7" 0 0 basechar 0
AnchorPoint: "Anchor-6" 248 450 basechar 0
AnchorPoint: "Anchor-5" 455 10 basechar 0
AnchorPoint: "Anchor-4" 199 0 basechar 0
LayerCount: 2
Fore
SplineSet
395.5 430.5 m 128,-1,1
 440 396 440 396 440 317 c 2,2,-1
 440 0 l 1,3,-1
 324 0 l 1,4,-1
 313 35 l 1,5,6
 276 8 276 8 239.5 -3 c 128,-1,7
 203 -14 203 -14 163 -14 c 0,8,9
 121 -14 121 -14 89 2 c 128,-1,10
 57 18 57 18 39.5 46.5 c 128,-1,11
 22 75 22 75 22 112 c 0,12,13
 22 191 22 191 100 232.5 c 128,-1,14
 178 274 178 274 304 279 c 1,15,-1
 304 290 l 2,16,17
 304 318 304 318 298.5 334 c 128,-1,18
 293 350 293 350 279 357.5 c 128,-1,19
 265 365 265 365 240 365 c 0,20,21
 177 365 177 365 97 314 c 1,22,-1
 45 396 l 1,23,24
 99 431 99 431 150.5 448 c 128,-1,25
 202 465 202 465 263 465 c 0,26,0
 351 465 351 465 395.5 430.5 c 128,-1,1
176 95.5 m 128,-1,28
 189 84 189 84 214 84 c 0,29,30
 255 84 255 84 304 111 c 1,31,-1
 304 198 l 1,32,33
 231 194 231 194 197 175 c 128,-1,34
 163 156 163 156 163 129 c 0,35,27
 163 107 163 107 176 95.5 c 128,-1,28
EndSplineSet
Substitution2: "Single Substitution lookup 23 subtable" ordfeminine
Substitution2: "'aalt' Access All Alternates in Arabic lookup 0 subtable" ordfeminine
PairPos2: "'kern' Horizontal Kerning in Arabic lookup 2 per glyph data 2" uni0671 dx=60 dy=0 dh=60 dv=0 dx=0 dy=0 dh=0 dv=0
PairPos2: "'kern' Horizontal Kerning in Arabic lookup 2 per glyph data 2" afii57410 dx=60 dy=0 dh=60 dv=0 dx=0 dy=0 dh=0 dv=0
PairPos2: "'kern' Horizontal Kerning in Arabic lookup 2 per glyph data 2" afii57411 dx=60 dy=0 dh=60 dv=0 dx=0 dy=0 dh=0 dv=0
PairPos2: "'kern' Horizontal Kerning in Arabic lookup 2 per glyph data 2" uniFE8E.short dx=60 dy=0 dh=60 dv=0 dx=0 dy=0 dh=0 dv=0
PairPos2: "'kern' Horizontal Kerning in Arabic lookup 2 per glyph data 2" afii57415.short dx=60 dy=0 dh=60 dv=0 dx=0 dy=0 dh=0 dv=0
PairPos2: "'kern' Horizontal Kerning in Arabic lookup 2 per glyph data 2" afii57415 dx=60 dy=0 dh=60 dv=0 dx=0 dy=0 dh=0 dv=0
PairPos2: "'kern' Horizontal Kerning in Arabic lookup 2 per glyph data 1" uniFEF3 dx=40 dy=0 dh=40 dv=0 dx=0 dy=0 dh=0 dv=0
PairPos2: "'kern' Horizontal Kerning in Arabic lookup 2 per glyph data 1" uniFB58 dx=40 dy=0 dh=40 dv=0 dx=0 dy=0 dh=0 dv=0
PairPos2: "'kern' Horizontal Kerning in Arabic lookup 2 per glyph data 1" afii57413 dx=40 dy=0 dh=40 dv=0 dx=0 dy=0 dh=0 dv=0
PairPos2: "'kern' Horizontal Kerning in Arabic lookup 2 per glyph data 1" uniFB94 dx=110 dy=0 dh=110 dv=0 dx=0 dy=0 dh=0 dv=0
PairPos2: "'kern' Horizontal Kerning in Arabic lookup 2 per glyph data 1" afii57509 dx=110 dy=0 dh=110 dv=0 dx=0 dy=0 dh=0 dv=0
PairPos2: "'kern' Horizontal Kerning in Arabic lookup 2 per glyph data 1" uniFB90 dx=110 dy=0 dh=110 dv=0 dx=0 dy=0 dh=0 dv=0
PairPos2: "'kern' Horizontal Kerning in Arabic lookup 2 per glyph data 1" uni06A9 dx=110 dy=0 dh=110 dv=0 dx=0 dy=0 dh=0 dv=0
PairPos2: "'kern' Horizontal Kerning in Arabic lookup 2 per glyph data 1" uniFEDB dx=110 dy=0 dh=110 dv=0 dx=0 dy=0 dh=0 dv=0
EndChar

StartChar: b
Encoding: 68 98 31
Width: 545
GlyphClass: 2
Flags: W
AnchorPoint: "Anchor-8" 0 0 basechar 0
AnchorPoint: "Anchor-7" 0 0 basechar 0
AnchorPoint: "Anchor-6" 129 688 basechar 0
AnchorPoint: "Anchor-5" 0 0 basechar 0
AnchorPoint: "Anchor-4" 269 0 basechar 0
LayerCount: 2
Fore
SplineSet
469 407 m 128,-1,1
 513 349 513 349 513 232 c 0,2,3
 513 142 513 142 475.5 87 c 128,-1,4
 438 32 438 32 379 9 c 128,-1,5
 320 -14 320 -14 250 -14 c 0,6,7
 214 -14 214 -14 163 -8 c 128,-1,8
 112 -2 112 -2 60 12 c 1,9,-1
 60 688 l 1,10,-1
 197 701 l 1,11,-1
 197 424 l 1,12,13
 265 465 265 465 334 465 c 0,14,0
 425 465 425 465 469 407 c 128,-1,1
338.5 122.5 m 128,-1,16
 373 159 373 159 373 234 c 0,17,18
 373 282 373 282 365 310 c 128,-1,19
 357 338 357 338 338.5 350.5 c 128,-1,20
 320 363 320 363 288 363 c 0,21,22
 249 363 249 363 197 336 c 1,23,-1
 197 90 l 1,24,25
 217 86 217 86 243 86 c 0,26,15
 304 86 304 86 338.5 122.5 c 128,-1,16
EndSplineSet
PairPos2: "'kern' Horizontal Kerning in Arabic lookup 2 per glyph data 2" uni0671 dx=60 dy=0 dh=60 dv=0 dx=0 dy=0 dh=0 dv=0
PairPos2: "'kern' Horizontal Kerning in Arabic lookup 2 per glyph data 2" afii57410 dx=60 dy=0 dh=60 dv=0 dx=0 dy=0 dh=0 dv=0
PairPos2: "'kern' Horizontal Kerning in Arabic lookup 2 per glyph data 2" afii57411 dx=60 dy=0 dh=60 dv=0 dx=0 dy=0 dh=0 dv=0
PairPos2: "'kern' Horizontal Kerning in Arabic lookup 2 per glyph data 2" uniFE8E.short dx=60 dy=0 dh=60 dv=0 dx=0 dy=0 dh=0 dv=0
PairPos2: "'kern' Horizontal Kerning in Arabic lookup 2 per glyph data 2" afii57415.short dx=60 dy=0 dh=60 dv=0 dx=0 dy=0 dh=0 dv=0
PairPos2: "'kern' Horizontal Kerning in Arabic lookup 2 per glyph data 2" afii57415 dx=60 dy=0 dh=60 dv=0 dx=0 dy=0 dh=0 dv=0
PairPos2: "'kern' Horizontal Kerning in Arabic lookup 2 per glyph data 1" uniFEF3 dx=40 dy=0 dh=40 dv=0 dx=0 dy=0 dh=0 dv=0
PairPos2: "'kern' Horizontal Kerning in Arabic lookup 2 per glyph data 1" uniFB58 dx=40 dy=0 dh=40 dv=0 dx=0 dy=0 dh=0 dv=0
PairPos2: "'kern' Horizontal Kerning in Arabic lookup 2 per glyph data 1" afii57413 dx=40 dy=0 dh=40 dv=0 dx=0 dy=0 dh=0 dv=0
PairPos2: "'kern' Horizontal Kerning in Arabic lookup 2 per glyph data 1" uniFB94 dx=110 dy=0 dh=110 dv=0 dx=0 dy=0 dh=0 dv=0
PairPos2: "'kern' Horizontal Kerning in Arabic lookup 2 per glyph data 1" afii57509 dx=110 dy=0 dh=110 dv=0 dx=0 dy=0 dh=0 dv=0
PairPos2: "'kern' Horizontal Kerning in Arabic lookup 2 per glyph data 1" uniFB90 dx=110 dy=0 dh=110 dv=0 dx=0 dy=0 dh=0 dv=0
PairPos2: "'kern' Horizontal Kerning in Arabic lookup 2 per glyph data 1" uni06A9 dx=110 dy=0 dh=110 dv=0 dx=0 dy=0 dh=0 dv=0
PairPos2: "'kern' Horizontal Kerning in Arabic lookup 2 per glyph data 1" uniFEDB dx=110 dy=0 dh=110 dv=0 dx=0 dy=0 dh=0 dv=0
EndChar

StartChar: c
Encoding: 69 99 32
Width: 443
GlyphClass: 2
Flags: W
AnchorPoint: "Anchor-8" 0 0 basechar 0
AnchorPoint: "Anchor-7" 0 0 basechar 0
AnchorPoint: "Anchor-6" 263 450 basechar 0
AnchorPoint: "Anchor-5" 0 0 basechar 0
AnchorPoint: "Anchor-4" 238 0 basechar 0
LayerCount: 2
Fore
SplineSet
95 38 m 128,-1,1
 32 90 32 90 32 215 c 0,2,3
 32 300 32 300 66.5 356.5 c 128,-1,4
 101 413 101 413 155 439 c 128,-1,5
 209 465 209 465 268 465 c 0,6,7
 310 465 310 465 344.5 455.5 c 128,-1,8
 379 446 379 446 422 423 c 1,9,-1
 375 334 l 1,10,11
 343 350 343 350 321 356 c 128,-1,12
 299 362 299 362 277 362 c 0,13,14
 230 362 230 362 201.5 325.5 c 128,-1,15
 173 289 173 289 173 216 c 0,16,17
 173 147 173 147 201.5 120.5 c 128,-1,18
 230 94 230 94 276 94 c 0,19,20
 304 94 304 94 328.5 103 c 128,-1,21
 353 112 353 112 383 129 c 1,22,-1
 431 42 l 1,23,24
 344 -14 344 -14 256 -14 c 0,25,0
 158 -14 158 -14 95 38 c 128,-1,1
EndSplineSet
PairPos2: "'kern' Horizontal Kerning in Arabic lookup 2 per glyph data 2" uni0671 dx=60 dy=0 dh=60 dv=0 dx=0 dy=0 dh=0 dv=0
PairPos2: "'kern' Horizontal Kerning in Arabic lookup 2 per glyph data 2" afii57410 dx=60 dy=0 dh=60 dv=0 dx=0 dy=0 dh=0 dv=0
PairPos2: "'kern' Horizontal Kerning in Arabic lookup 2 per glyph data 2" afii57411 dx=60 dy=0 dh=60 dv=0 dx=0 dy=0 dh=0 dv=0
PairPos2: "'kern' Horizontal Kerning in Arabic lookup 2 per glyph data 2" uniFE8E.short dx=60 dy=0 dh=60 dv=0 dx=0 dy=0 dh=0 dv=0
PairPos2: "'kern' Horizontal Kerning in Arabic lookup 2 per glyph data 2" afii57415.short dx=60 dy=0 dh=60 dv=0 dx=0 dy=0 dh=0 dv=0
PairPos2: "'kern' Horizontal Kerning in Arabic lookup 2 per glyph data 2" afii57415 dx=60 dy=0 dh=60 dv=0 dx=0 dy=0 dh=0 dv=0
PairPos2: "'kern' Horizontal Kerning in Arabic lookup 2 per glyph data 1" uniFEF3 dx=40 dy=0 dh=40 dv=0 dx=0 dy=0 dh=0 dv=0
PairPos2: "'kern' Horizontal Kerning in Arabic lookup 2 per glyph data 1" uniFB58 dx=40 dy=0 dh=40 dv=0 dx=0 dy=0 dh=0 dv=0
PairPos2: "'kern' Horizontal Kerning in Arabic lookup 2 per glyph data 1" afii57413 dx=40 dy=0 dh=40 dv=0 dx=0 dy=0 dh=0 dv=0
PairPos2: "'kern' Horizontal Kerning in Arabic lookup 2 per glyph data 1" uniFB94 dx=110 dy=0 dh=110 dv=0 dx=0 dy=0 dh=0 dv=0
PairPos2: "'kern' Horizontal Kerning in Arabic lookup 2 per glyph data 1" afii57509 dx=110 dy=0 dh=110 dv=0 dx=0 dy=0 dh=0 dv=0
PairPos2: "'kern' Horizontal Kerning in Arabic lookup 2 per glyph data 1" uniFB90 dx=110 dy=0 dh=110 dv=0 dx=0 dy=0 dh=0 dv=0
PairPos2: "'kern' Horizontal Kerning in Arabic lookup 2 per glyph data 1" uni06A9 dx=110 dy=0 dh=110 dv=0 dx=0 dy=0 dh=0 dv=0
PairPos2: "'kern' Horizontal Kerning in Arabic lookup 2 per glyph data 1" uniFEDB dx=110 dy=0 dh=110 dv=0 dx=0 dy=0 dh=0 dv=0
EndChar

StartChar: d
Encoding: 70 100 33
Width: 542
GlyphClass: 2
Flags: W
AnchorPoint: "Anchor-8" 471 688 basechar 0
AnchorPoint: "Anchor-7" 357 584 basechar 0
AnchorPoint: "Anchor-6" 424 688 basechar 0
AnchorPoint: "Anchor-5" 0 0 basechar 0
AnchorPoint: "Anchor-4" 249 0 basechar 0
LayerCount: 2
Fore
SplineSet
482 701 m 1,0,-1
 482 0 l 1,1,-1
 366 0 l 1,2,-1
 356 31 l 1,3,4
 290 -14 290 -14 220 -14 c 0,5,6
 127 -14 127 -14 79.5 44.5 c 128,-1,7
 32 103 32 103 32 215 c 0,8,9
 32 303 32 303 66 359 c 128,-1,10
 100 415 100 415 153.5 440 c 128,-1,11
 207 465 207 465 267 465 c 0,12,13
 304 465 304 465 346 454 c 1,14,-1
 346 688 l 1,15,-1
 482 701 l 1,0,-1
193 119 m 128,-1,17
 214 88 214 88 256 88 c 0,18,19
 279 88 279 88 301 95 c 128,-1,20
 323 102 323 102 346 116 c 1,21,-1
 346 362 l 1,22,23
 315 369 315 369 288 369 c 0,24,25
 235 369 235 369 203.5 329.5 c 128,-1,26
 172 290 172 290 172 216 c 0,27,16
 172 150 172 150 193 119 c 128,-1,17
EndSplineSet
PairPos2: "'kern' Horizontal Kerning in Arabic lookup 2 per glyph data 2" uni0671 dx=60 dy=0 dh=60 dv=0 dx=0 dy=0 dh=0 dv=0
PairPos2: "'kern' Horizontal Kerning in Arabic lookup 2 per glyph data 2" afii57410 dx=60 dy=0 dh=60 dv=0 dx=0 dy=0 dh=0 dv=0
PairPos2: "'kern' Horizontal Kerning in Arabic lookup 2 per glyph data 2" afii57411 dx=60 dy=0 dh=60 dv=0 dx=0 dy=0 dh=0 dv=0
PairPos2: "'kern' Horizontal Kerning in Arabic lookup 2 per glyph data 2" uniFE8E.short dx=60 dy=0 dh=60 dv=0 dx=0 dy=0 dh=0 dv=0
PairPos2: "'kern' Horizontal Kerning in Arabic lookup 2 per glyph data 2" afii57415.short dx=60 dy=0 dh=60 dv=0 dx=0 dy=0 dh=0 dv=0
PairPos2: "'kern' Horizontal Kerning in Arabic lookup 2 per glyph data 2" afii57415 dx=60 dy=0 dh=60 dv=0 dx=0 dy=0 dh=0 dv=0
PairPos2: "'kern' Horizontal Kerning in Arabic lookup 2 per glyph data 1" uniFEF3 dx=40 dy=0 dh=40 dv=0 dx=0 dy=0 dh=0 dv=0
PairPos2: "'kern' Horizontal Kerning in Arabic lookup 2 per glyph data 1" uniFB58 dx=40 dy=0 dh=40 dv=0 dx=0 dy=0 dh=0 dv=0
PairPos2: "'kern' Horizontal Kerning in Arabic lookup 2 per glyph data 1" afii57413 dx=40 dy=0 dh=40 dv=0 dx=0 dy=0 dh=0 dv=0
PairPos2: "'kern' Horizontal Kerning in Arabic lookup 2 per glyph data 1" uniFB94 dx=110 dy=0 dh=110 dv=0 dx=0 dy=0 dh=0 dv=0
PairPos2: "'kern' Horizontal Kerning in Arabic lookup 2 per glyph data 1" afii57509 dx=110 dy=0 dh=110 dv=0 dx=0 dy=0 dh=0 dv=0
PairPos2: "'kern' Horizontal Kerning in Arabic lookup 2 per glyph data 1" uniFB90 dx=110 dy=0 dh=110 dv=0 dx=0 dy=0 dh=0 dv=0
PairPos2: "'kern' Horizontal Kerning in Arabic lookup 2 per glyph data 1" uni06A9 dx=110 dy=0 dh=110 dv=0 dx=0 dy=0 dh=0 dv=0
PairPos2: "'kern' Horizontal Kerning in Arabic lookup 2 per glyph data 1" uniFEDB dx=110 dy=0 dh=110 dv=0 dx=0 dy=0 dh=0 dv=0
EndChar

StartChar: e
Encoding: 71 101 34
Width: 492
GlyphClass: 2
Flags: W
AnchorPoint: "Anchor-8" 0 0 basechar 0
AnchorPoint: "Anchor-7" 0 0 basechar 0
AnchorPoint: "Anchor-6" 255 450 basechar 0
AnchorPoint: "Anchor-5" 405 10 basechar 0
AnchorPoint: "Anchor-4" 251 0 basechar 0
LayerCount: 2
Fore
SplineSet
456 196 m 1,1,-1
 168 196 l 1,2,3
 174 140 174 140 205 113.5 c 128,-1,4
 236 87 236 87 279 87 c 0,5,6
 311 87 311 87 341 96 c 128,-1,7
 371 105 371 105 405 125 c 1,8,-1
 451 43 l 1,9,10
 415 16 415 16 368 1 c 128,-1,11
 321 -14 321 -14 266 -14 c 0,12,13
 200 -14 200 -14 147.5 10 c 128,-1,14
 95 34 95 34 63.5 86.5 c 128,-1,15
 32 139 32 139 32 222 c 0,16,17
 32 298 32 298 58.5 353 c 128,-1,18
 85 408 85 408 135.5 436.5 c 128,-1,19
 186 465 186 465 255 465 c 0,20,21
 321 465 321 465 367.5 439 c 128,-1,22
 414 413 414 413 437 368 c 128,-1,23
 460 323 460 323 460 266 c 0,24,0
 460 246 460 246 456 196 c 1,1,-1
201.5 351.5 m 128,-1,26
 180 330 180 330 172 284 c 1,27,-1
 331 284 l 1,28,-1
 331 287 l 2,29,30
 331 333 331 333 311 353 c 128,-1,31
 291 373 291 373 258 373 c 0,32,25
 223 373 223 373 201.5 351.5 c 128,-1,26
EndSplineSet
PairPos2: "'kern' Horizontal Kerning in Arabic lookup 2 per glyph data 2" uni0671 dx=60 dy=0 dh=60 dv=0 dx=0 dy=0 dh=0 dv=0
PairPos2: "'kern' Horizontal Kerning in Arabic lookup 2 per glyph data 2" afii57410 dx=60 dy=0 dh=60 dv=0 dx=0 dy=0 dh=0 dv=0
PairPos2: "'kern' Horizontal Kerning in Arabic lookup 2 per glyph data 2" afii57411 dx=60 dy=0 dh=60 dv=0 dx=0 dy=0 dh=0 dv=0
PairPos2: "'kern' Horizontal Kerning in Arabic lookup 2 per glyph data 2" uniFE8E.short dx=60 dy=0 dh=60 dv=0 dx=0 dy=0 dh=0 dv=0
PairPos2: "'kern' Horizontal Kerning in Arabic lookup 2 per glyph data 2" afii57415.short dx=60 dy=0 dh=60 dv=0 dx=0 dy=0 dh=0 dv=0
PairPos2: "'kern' Horizontal Kerning in Arabic lookup 2 per glyph data 2" afii57415 dx=60 dy=0 dh=60 dv=0 dx=0 dy=0 dh=0 dv=0
PairPos2: "'kern' Horizontal Kerning in Arabic lookup 2 per glyph data 1" uniFEF3 dx=40 dy=0 dh=40 dv=0 dx=0 dy=0 dh=0 dv=0
PairPos2: "'kern' Horizontal Kerning in Arabic lookup 2 per glyph data 1" uniFB58 dx=40 dy=0 dh=40 dv=0 dx=0 dy=0 dh=0 dv=0
PairPos2: "'kern' Horizontal Kerning in Arabic lookup 2 per glyph data 1" afii57413 dx=40 dy=0 dh=40 dv=0 dx=0 dy=0 dh=0 dv=0
PairPos2: "'kern' Horizontal Kerning in Arabic lookup 2 per glyph data 1" uniFB94 dx=110 dy=0 dh=110 dv=0 dx=0 dy=0 dh=0 dv=0
PairPos2: "'kern' Horizontal Kerning in Arabic lookup 2 per glyph data 1" afii57509 dx=110 dy=0 dh=110 dv=0 dx=0 dy=0 dh=0 dv=0
PairPos2: "'kern' Horizontal Kerning in Arabic lookup 2 per glyph data 1" uniFB90 dx=110 dy=0 dh=110 dv=0 dx=0 dy=0 dh=0 dv=0
PairPos2: "'kern' Horizontal Kerning in Arabic lookup 2 per glyph data 1" uni06A9 dx=110 dy=0 dh=110 dv=0 dx=0 dy=0 dh=0 dv=0
PairPos2: "'kern' Horizontal Kerning in Arabic lookup 2 per glyph data 1" uniFEDB dx=110 dy=0 dh=110 dv=0 dx=0 dy=0 dh=0 dv=0
EndChar

StartChar: f
Encoding: 72 102 35
Width: 339
GlyphClass: 2
Flags: W
AnchorPoint: "Anchor-8" 0 0 basechar 0
AnchorPoint: "Anchor-7" 0 0 basechar 0
AnchorPoint: "Anchor-6" 259 688 basechar 0
AnchorPoint: "Anchor-5" 0 0 basechar 0
AnchorPoint: "Anchor-4" 144 0 basechar 0
LayerCount: 2
Fore
SplineSet
232.5 564 m 128,-1,1
 216 545 216 545 216 510 c 2,2,-1
 216 450 l 1,3,-1
 332 450 l 1,4,-1
 318 343 l 1,5,-1
 216 343 l 1,6,-1
 216 0 l 1,7,-1
 80 0 l 1,8,-1
 80 343 l 1,9,-1
 14 343 l 1,10,-1
 14 450 l 1,11,-1
 80 450 l 1,12,-1
 80 507 l 2,13,14
 80 561 80 561 101 604 c 128,-1,15
 122 647 122 647 162.5 671.5 c 128,-1,16
 203 696 203 696 261 696 c 0,17,18
 295 696 295 696 321 691 c 128,-1,19
 347 686 347 686 374 675 c 1,20,-1
 341 569 l 1,21,22
 323 577 323 577 308.5 580 c 128,-1,23
 294 583 294 583 277 583 c 0,24,0
 249 583 249 583 232.5 564 c 128,-1,1
EndSplineSet
PairPos2: "'kern' Horizontal Kerning in Arabic lookup 2 per glyph data 2" uni0671 dx=60 dy=0 dh=60 dv=0 dx=0 dy=0 dh=0 dv=0
PairPos2: "'kern' Horizontal Kerning in Arabic lookup 2 per glyph data 2" afii57410 dx=60 dy=0 dh=60 dv=0 dx=0 dy=0 dh=0 dv=0
PairPos2: "'kern' Horizontal Kerning in Arabic lookup 2 per glyph data 2" afii57411 dx=60 dy=0 dh=60 dv=0 dx=0 dy=0 dh=0 dv=0
PairPos2: "'kern' Horizontal Kerning in Arabic lookup 2 per glyph data 2" uniFE8E.short dx=60 dy=0 dh=60 dv=0 dx=0 dy=0 dh=0 dv=0
PairPos2: "'kern' Horizontal Kerning in Arabic lookup 2 per glyph data 2" afii57415.short dx=60 dy=0 dh=60 dv=0 dx=0 dy=0 dh=0 dv=0
PairPos2: "'kern' Horizontal Kerning in Arabic lookup 2 per glyph data 2" afii57415 dx=60 dy=0 dh=60 dv=0 dx=0 dy=0 dh=0 dv=0
PairPos2: "'kern' Horizontal Kerning in Arabic lookup 2 per glyph data 1" uniFEF3 dx=40 dy=0 dh=40 dv=0 dx=0 dy=0 dh=0 dv=0
PairPos2: "'kern' Horizontal Kerning in Arabic lookup 2 per glyph data 1" uniFB58 dx=40 dy=0 dh=40 dv=0 dx=0 dy=0 dh=0 dv=0
PairPos2: "'kern' Horizontal Kerning in Arabic lookup 2 per glyph data 1" afii57413 dx=40 dy=0 dh=40 dv=0 dx=0 dy=0 dh=0 dv=0
PairPos2: "'kern' Horizontal Kerning in Arabic lookup 2 per glyph data 1" uniFB94 dx=110 dy=0 dh=110 dv=0 dx=0 dy=0 dh=0 dv=0
PairPos2: "'kern' Horizontal Kerning in Arabic lookup 2 per glyph data 1" afii57509 dx=110 dy=0 dh=110 dv=0 dx=0 dy=0 dh=0 dv=0
PairPos2: "'kern' Horizontal Kerning in Arabic lookup 2 per glyph data 1" uniFB90 dx=110 dy=0 dh=110 dv=0 dx=0 dy=0 dh=0 dv=0
PairPos2: "'kern' Horizontal Kerning in Arabic lookup 2 per glyph data 1" uni06A9 dx=110 dy=0 dh=110 dv=0 dx=0 dy=0 dh=0 dv=0
PairPos2: "'kern' Horizontal Kerning in Arabic lookup 2 per glyph data 1" uniFEDB dx=110 dy=0 dh=110 dv=0 dx=0 dy=0 dh=0 dv=0
EndChar

StartChar: f.short
Encoding: 522 -1 36
Width: 339
GlyphClass: 2
Flags: W
AnchorPoint: "Anchor-8" 0 0 basechar 0
AnchorPoint: "Anchor-7" 0 0 basechar 0
AnchorPoint: "Anchor-6" 259 688 basechar 0
AnchorPoint: "Anchor-5" 0 0 basechar 0
AnchorPoint: "Anchor-4" 144 0 basechar 0
LayerCount: 2
Fore
SplineSet
216 450 m 1,0,-1
 332 450 l 1,1,-1
 318 343 l 1,2,-1
 216 343 l 1,3,-1
 216 0 l 1,4,-1
 80 0 l 1,5,-1
 80 343 l 1,6,-1
 14 343 l 1,7,-1
 14 450 l 1,8,-1
 80 450 l 1,9,-1
 80 508 l 2,10,11
 80 562 80 562 100.5 604.5 c 128,-1,12
 121 647 121 647 161.5 671 c 128,-1,13
 202 695 202 695 260 695 c 0,14,15
 308 695 308 695 346 680 c 1,16,-1
 312 573 l 1,17,18
 292 581 292 581 271 581 c 0,19,20
 246 581 246 581 231 563 c 128,-1,21
 216 545 216 545 216 511 c 2,22,-1
 216 450 l 1,0,-1
EndSplineSet
PairPos2: "'kern' Horizontal Kerning in Arabic lookup 2 per glyph data 2" uni0671 dx=60 dy=0 dh=60 dv=0 dx=0 dy=0 dh=0 dv=0
PairPos2: "'kern' Horizontal Kerning in Arabic lookup 2 per glyph data 2" afii57410 dx=60 dy=0 dh=60 dv=0 dx=0 dy=0 dh=0 dv=0
PairPos2: "'kern' Horizontal Kerning in Arabic lookup 2 per glyph data 2" afii57411 dx=60 dy=0 dh=60 dv=0 dx=0 dy=0 dh=0 dv=0
PairPos2: "'kern' Horizontal Kerning in Arabic lookup 2 per glyph data 2" uniFE8E.short dx=60 dy=0 dh=60 dv=0 dx=0 dy=0 dh=0 dv=0
PairPos2: "'kern' Horizontal Kerning in Arabic lookup 2 per glyph data 2" afii57415.short dx=60 dy=0 dh=60 dv=0 dx=0 dy=0 dh=0 dv=0
PairPos2: "'kern' Horizontal Kerning in Arabic lookup 2 per glyph data 2" afii57415 dx=60 dy=0 dh=60 dv=0 dx=0 dy=0 dh=0 dv=0
PairPos2: "'kern' Horizontal Kerning in Arabic lookup 2 per glyph data 1" uniFEF3 dx=40 dy=0 dh=40 dv=0 dx=0 dy=0 dh=0 dv=0
PairPos2: "'kern' Horizontal Kerning in Arabic lookup 2 per glyph data 1" uniFB58 dx=40 dy=0 dh=40 dv=0 dx=0 dy=0 dh=0 dv=0
PairPos2: "'kern' Horizontal Kerning in Arabic lookup 2 per glyph data 1" afii57413 dx=40 dy=0 dh=40 dv=0 dx=0 dy=0 dh=0 dv=0
PairPos2: "'kern' Horizontal Kerning in Arabic lookup 2 per glyph data 1" uniFB94 dx=110 dy=0 dh=110 dv=0 dx=0 dy=0 dh=0 dv=0
PairPos2: "'kern' Horizontal Kerning in Arabic lookup 2 per glyph data 1" afii57509 dx=110 dy=0 dh=110 dv=0 dx=0 dy=0 dh=0 dv=0
PairPos2: "'kern' Horizontal Kerning in Arabic lookup 2 per glyph data 1" uniFB90 dx=110 dy=0 dh=110 dv=0 dx=0 dy=0 dh=0 dv=0
PairPos2: "'kern' Horizontal Kerning in Arabic lookup 2 per glyph data 1" uni06A9 dx=110 dy=0 dh=110 dv=0 dx=0 dy=0 dh=0 dv=0
PairPos2: "'kern' Horizontal Kerning in Arabic lookup 2 per glyph data 1" uniFEDB dx=110 dy=0 dh=110 dv=0 dx=0 dy=0 dh=0 dv=0
EndChar

StartChar: g
Encoding: 73 103 37
Width: 528
GlyphClass: 2
Flags: W
AnchorPoint: "Anchor-8" 0 0 basechar 0
AnchorPoint: "Anchor-7" 0 0 basechar 0
AnchorPoint: "Anchor-6" 263 450 basechar 0
AnchorPoint: "Anchor-5" 0 0 basechar 0
AnchorPoint: "Anchor-4" 257 -186 basechar 0
LayerCount: 2
Fore
SplineSet
429.5 74 m 128,-1,1
 470 61 470 61 492.5 34.5 c 128,-1,2
 515 8 515 8 515 -36 c 0,3,4
 515 -86 515 -86 483.5 -123 c 128,-1,5
 452 -160 452 -160 393.5 -180 c 128,-1,6
 335 -200 335 -200 256 -200 c 0,7,8
 154 -200 154 -200 88 -168.5 c 128,-1,9
 22 -137 22 -137 22 -72 c 0,10,11
 22 -35 22 -35 41 -9.5 c 128,-1,12
 60 16 60 16 92 34 c 1,13,14
 65 56 65 56 65 88 c 0,15,16
 65 108 65 108 77.5 127 c 128,-1,17
 90 146 90 146 119 166 c 1,18,19
 78 187 78 187 57.5 221.5 c 128,-1,20
 37 256 37 256 37 299 c 0,21,22
 37 356 37 356 68 393 c 128,-1,23
 99 430 99 430 150 447.5 c 128,-1,24
 201 465 201 465 262 465 c 0,25,26
 297 465 297 465 320 460 c 1,27,-1
 478 527 l 1,28,-1
 517 422 l 1,29,-1
 423 400 l 1,30,31
 474 361 474 361 474 295 c 0,32,33
 474 240 474 240 443 205.5 c 128,-1,34
 412 171 412 171 362 155 c 128,-1,35
 312 139 312 139 253 139 c 0,36,37
 226 139 226 139 202 142 c 1,38,39
 196 132 196 132 196 125 c 0,40,41
 196 117 196 117 201.5 112 c 128,-1,42
 207 107 207 107 221.5 103.5 c 128,-1,43
 236 100 236 100 263 98 c 2,44,-1
 329 92 l 2,45,0
 389 87 389 87 429.5 74 c 128,-1,1
174 300 m 0,47,48
 174 266 174 266 195.5 250.5 c 128,-1,49
 217 235 217 235 259 235 c 256,50,51
 301 235 301 235 319.5 251.5 c 128,-1,52
 338 268 338 268 338 300 c 0,53,54
 338 333 338 333 317 350.5 c 128,-1,55
 296 368 296 368 256 368 c 0,56,46
 174 368 174 368 174 300 c 0,47,48
338.5 -92 m 128,-1,58
 367 -79 367 -79 367 -56 c 0,59,60
 367 -42 367 -42 358.5 -34 c 128,-1,61
 350 -26 350 -26 329.5 -21 c 128,-1,62
 309 -16 309 -16 271 -12 c 2,63,-1
 213 -7 l 2,64,65
 198 -6 198 -6 170 0 c 1,66,67
 161 -14 161 -14 156 -28 c 128,-1,68
 151 -42 151 -42 151 -53 c 0,69,70
 151 -79 151 -79 174 -92 c 128,-1,71
 197 -105 197 -105 258 -105 c 0,72,57
 310 -105 310 -105 338.5 -92 c 128,-1,58
EndSplineSet
PairPos2: "'kern' Horizontal Kerning in Arabic lookup 2 per glyph data 2" uni0671 dx=60 dy=0 dh=60 dv=0 dx=0 dy=0 dh=0 dv=0
PairPos2: "'kern' Horizontal Kerning in Arabic lookup 2 per glyph data 2" afii57410 dx=60 dy=0 dh=60 dv=0 dx=0 dy=0 dh=0 dv=0
PairPos2: "'kern' Horizontal Kerning in Arabic lookup 2 per glyph data 2" afii57411 dx=60 dy=0 dh=60 dv=0 dx=0 dy=0 dh=0 dv=0
PairPos2: "'kern' Horizontal Kerning in Arabic lookup 2 per glyph data 2" uniFE8E.short dx=60 dy=0 dh=60 dv=0 dx=0 dy=0 dh=0 dv=0
PairPos2: "'kern' Horizontal Kerning in Arabic lookup 2 per glyph data 2" afii57415.short dx=60 dy=0 dh=60 dv=0 dx=0 dy=0 dh=0 dv=0
PairPos2: "'kern' Horizontal Kerning in Arabic lookup 2 per glyph data 2" afii57415 dx=60 dy=0 dh=60 dv=0 dx=0 dy=0 dh=0 dv=0
PairPos2: "'kern' Horizontal Kerning in Arabic lookup 2 per glyph data 1" uniFEF3 dx=40 dy=0 dh=40 dv=0 dx=0 dy=0 dh=0 dv=0
PairPos2: "'kern' Horizontal Kerning in Arabic lookup 2 per glyph data 1" uniFB58 dx=40 dy=0 dh=40 dv=0 dx=0 dy=0 dh=0 dv=0
PairPos2: "'kern' Horizontal Kerning in Arabic lookup 2 per glyph data 1" afii57413 dx=40 dy=0 dh=40 dv=0 dx=0 dy=0 dh=0 dv=0
PairPos2: "'kern' Horizontal Kerning in Arabic lookup 2 per glyph data 1" uniFB94 dx=110 dy=0 dh=110 dv=0 dx=0 dy=0 dh=0 dv=0
PairPos2: "'kern' Horizontal Kerning in Arabic lookup 2 per glyph data 1" afii57509 dx=110 dy=0 dh=110 dv=0 dx=0 dy=0 dh=0 dv=0
PairPos2: "'kern' Horizontal Kerning in Arabic lookup 2 per glyph data 1" uniFB90 dx=110 dy=0 dh=110 dv=0 dx=0 dy=0 dh=0 dv=0
PairPos2: "'kern' Horizontal Kerning in Arabic lookup 2 per glyph data 1" uni06A9 dx=110 dy=0 dh=110 dv=0 dx=0 dy=0 dh=0 dv=0
PairPos2: "'kern' Horizontal Kerning in Arabic lookup 2 per glyph data 1" uniFEDB dx=110 dy=0 dh=110 dv=0 dx=0 dy=0 dh=0 dv=0
EndChar

StartChar: h
Encoding: 74 104 38
Width: 541
GlyphClass: 2
Flags: W
AnchorPoint: "Anchor-8" 197 688 basechar 0
AnchorPoint: "Anchor-7" 185 584 basechar 0
AnchorPoint: "Anchor-6" 267 688 basechar 0
AnchorPoint: "Anchor-5" 0 0 basechar 0
AnchorPoint: "Anchor-4" 270 0 basechar 0
LayerCount: 2
Fore
SplineSet
451 431 m 128,-1,1
 486 397 486 397 486 331 c 2,2,-1
 486 0 l 1,3,-1
 350 0 l 1,4,-1
 350 290 l 2,5,6
 350 318 350 318 344.5 333.5 c 128,-1,7
 339 349 339 349 326 356 c 128,-1,8
 313 363 313 363 289 363 c 0,9,10
 246 363 246 363 196 334 c 1,11,-1
 196 0 l 1,12,-1
 60 0 l 1,13,-1
 60 688 l 1,14,-1
 196 701 l 1,15,-1
 196 422 l 1,16,17
 266 465 266 465 347 465 c 0,18,0
 416 465 416 465 451 431 c 128,-1,1
EndSplineSet
PairPos2: "'kern' Horizontal Kerning in Arabic lookup 2 per glyph data 2" uni0671 dx=60 dy=0 dh=60 dv=0 dx=0 dy=0 dh=0 dv=0
PairPos2: "'kern' Horizontal Kerning in Arabic lookup 2 per glyph data 2" afii57410 dx=60 dy=0 dh=60 dv=0 dx=0 dy=0 dh=0 dv=0
PairPos2: "'kern' Horizontal Kerning in Arabic lookup 2 per glyph data 2" afii57411 dx=60 dy=0 dh=60 dv=0 dx=0 dy=0 dh=0 dv=0
PairPos2: "'kern' Horizontal Kerning in Arabic lookup 2 per glyph data 2" uniFE8E.short dx=60 dy=0 dh=60 dv=0 dx=0 dy=0 dh=0 dv=0
PairPos2: "'kern' Horizontal Kerning in Arabic lookup 2 per glyph data 2" afii57415.short dx=60 dy=0 dh=60 dv=0 dx=0 dy=0 dh=0 dv=0
PairPos2: "'kern' Horizontal Kerning in Arabic lookup 2 per glyph data 2" afii57415 dx=60 dy=0 dh=60 dv=0 dx=0 dy=0 dh=0 dv=0
PairPos2: "'kern' Horizontal Kerning in Arabic lookup 2 per glyph data 1" uniFEF3 dx=40 dy=0 dh=40 dv=0 dx=0 dy=0 dh=0 dv=0
PairPos2: "'kern' Horizontal Kerning in Arabic lookup 2 per glyph data 1" uniFB58 dx=40 dy=0 dh=40 dv=0 dx=0 dy=0 dh=0 dv=0
PairPos2: "'kern' Horizontal Kerning in Arabic lookup 2 per glyph data 1" afii57413 dx=40 dy=0 dh=40 dv=0 dx=0 dy=0 dh=0 dv=0
PairPos2: "'kern' Horizontal Kerning in Arabic lookup 2 per glyph data 1" uniFB94 dx=110 dy=0 dh=110 dv=0 dx=0 dy=0 dh=0 dv=0
PairPos2: "'kern' Horizontal Kerning in Arabic lookup 2 per glyph data 1" afii57509 dx=110 dy=0 dh=110 dv=0 dx=0 dy=0 dh=0 dv=0
PairPos2: "'kern' Horizontal Kerning in Arabic lookup 2 per glyph data 1" uniFB90 dx=110 dy=0 dh=110 dv=0 dx=0 dy=0 dh=0 dv=0
PairPos2: "'kern' Horizontal Kerning in Arabic lookup 2 per glyph data 1" uni06A9 dx=110 dy=0 dh=110 dv=0 dx=0 dy=0 dh=0 dv=0
PairPos2: "'kern' Horizontal Kerning in Arabic lookup 2 per glyph data 1" uniFEDB dx=110 dy=0 dh=110 dv=0 dx=0 dy=0 dh=0 dv=0
EndChar

StartChar: i
Encoding: 75 105 39
Width: 256
GlyphClass: 2
Flags: W
AnchorPoint: "Anchor-8" 0 0 basechar 0
AnchorPoint: "Anchor-7" 0 0 basechar 0
AnchorPoint: "Anchor-6" 127 686 basechar 0
AnchorPoint: "Anchor-5" 193 10 basechar 0
AnchorPoint: "Anchor-4" 0 0 basechar 0
LayerCount: 2
Fore
SplineSet
83 528.5 m 128,-1,1
 63 540 63 540 51 559 c 128,-1,2
 39 578 39 578 39 601 c 256,3,4
 39 624 39 624 51 643.5 c 128,-1,5
 63 663 63 663 83 674.5 c 128,-1,6
 103 686 103 686 126 686 c 0,7,8
 150 686 150 686 170.5 674.5 c 128,-1,9
 191 663 191 663 203 643.5 c 128,-1,10
 215 624 215 624 215 601 c 256,11,12
 215 578 215 578 203 559 c 128,-1,13
 191 540 191 540 170.5 528.5 c 128,-1,14
 150 517 150 517 126 517 c 0,15,0
 103 517 103 517 83 528.5 c 128,-1,1
60 0 m 1,16,-1
 60 447 l 1,17,-1
 196 460 l 1,18,-1
 196 0 l 1,19,-1
 60 0 l 1,16,-1
EndSplineSet
Substitution2: "Single Substitution lookup 23 subtable" dotlessi
Substitution2: "'aalt' Access All Alternates in Arabic lookup 0 subtable" dotlessi
PairPos2: "'kern' Horizontal Kerning in Arabic lookup 2 per glyph data 2" uni0671 dx=60 dy=0 dh=60 dv=0 dx=0 dy=0 dh=0 dv=0
PairPos2: "'kern' Horizontal Kerning in Arabic lookup 2 per glyph data 2" afii57410 dx=60 dy=0 dh=60 dv=0 dx=0 dy=0 dh=0 dv=0
PairPos2: "'kern' Horizontal Kerning in Arabic lookup 2 per glyph data 2" afii57411 dx=60 dy=0 dh=60 dv=0 dx=0 dy=0 dh=0 dv=0
PairPos2: "'kern' Horizontal Kerning in Arabic lookup 2 per glyph data 2" uniFE8E.short dx=60 dy=0 dh=60 dv=0 dx=0 dy=0 dh=0 dv=0
PairPos2: "'kern' Horizontal Kerning in Arabic lookup 2 per glyph data 2" afii57415.short dx=60 dy=0 dh=60 dv=0 dx=0 dy=0 dh=0 dv=0
PairPos2: "'kern' Horizontal Kerning in Arabic lookup 2 per glyph data 2" afii57415 dx=60 dy=0 dh=60 dv=0 dx=0 dy=0 dh=0 dv=0
PairPos2: "'kern' Horizontal Kerning in Arabic lookup 2 per glyph data 1" uniFEF3 dx=40 dy=0 dh=40 dv=0 dx=0 dy=0 dh=0 dv=0
PairPos2: "'kern' Horizontal Kerning in Arabic lookup 2 per glyph data 1" uniFB58 dx=40 dy=0 dh=40 dv=0 dx=0 dy=0 dh=0 dv=0
PairPos2: "'kern' Horizontal Kerning in Arabic lookup 2 per glyph data 1" afii57413 dx=40 dy=0 dh=40 dv=0 dx=0 dy=0 dh=0 dv=0
PairPos2: "'kern' Horizontal Kerning in Arabic lookup 2 per glyph data 1" uniFB94 dx=110 dy=0 dh=110 dv=0 dx=0 dy=0 dh=0 dv=0
PairPos2: "'kern' Horizontal Kerning in Arabic lookup 2 per glyph data 1" afii57509 dx=110 dy=0 dh=110 dv=0 dx=0 dy=0 dh=0 dv=0
PairPos2: "'kern' Horizontal Kerning in Arabic lookup 2 per glyph data 1" uniFB90 dx=110 dy=0 dh=110 dv=0 dx=0 dy=0 dh=0 dv=0
PairPos2: "'kern' Horizontal Kerning in Arabic lookup 2 per glyph data 1" uni06A9 dx=110 dy=0 dh=110 dv=0 dx=0 dy=0 dh=0 dv=0
PairPos2: "'kern' Horizontal Kerning in Arabic lookup 2 per glyph data 1" uniFEDB dx=110 dy=0 dh=110 dv=0 dx=0 dy=0 dh=0 dv=0
EndChar

StartChar: j
Encoding: 76 106 40
Width: 256
GlyphClass: 2
Flags: W
AnchorPoint: "Anchor-8" 0 0 basechar 0
AnchorPoint: "Anchor-7" 0 0 basechar 0
AnchorPoint: "Anchor-6" 128 686 basechar 0
AnchorPoint: "Anchor-5" 0 0 basechar 0
AnchorPoint: "Anchor-4" 0 0 basechar 0
LayerCount: 2
Fore
SplineSet
84 528.5 m 128,-1,1
 64 540 64 540 52 559 c 128,-1,2
 40 578 40 578 40 601 c 256,3,4
 40 624 40 624 52 643.5 c 128,-1,5
 64 663 64 663 84 674.5 c 128,-1,6
 104 686 104 686 127 686 c 0,7,8
 151 686 151 686 171.5 674.5 c 128,-1,9
 192 663 192 663 204 643.5 c 128,-1,10
 216 624 216 624 216 601 c 256,11,12
 216 578 216 578 204 559 c 128,-1,13
 192 540 192 540 171.5 528.5 c 128,-1,14
 151 517 151 517 127 517 c 0,15,0
 104 517 104 517 84 528.5 c 128,-1,1
-17 -194.5 m 128,-1,17
 -45 -189 -45 -189 -69 -179 c 1,18,-1
 -40 -88 l 1,19,20
 -10 -97 -10 -97 10 -97 c 0,21,22
 60 -97 60 -97 60 -41 c 2,23,-1
 60 450 l 1,24,-1
 196 463 l 1,25,-1
 196 -32 l 2,26,27
 196 -117 196 -117 152.5 -158.5 c 128,-1,28
 109 -200 109 -200 36 -200 c 0,29,16
 11 -200 11 -200 -17 -194.5 c 128,-1,17
EndSplineSet
PairPos2: "'kern' Horizontal Kerning in Arabic lookup 2 per glyph data 2" uni0671 dx=60 dy=0 dh=60 dv=0 dx=0 dy=0 dh=0 dv=0
PairPos2: "'kern' Horizontal Kerning in Arabic lookup 2 per glyph data 2" afii57410 dx=60 dy=0 dh=60 dv=0 dx=0 dy=0 dh=0 dv=0
PairPos2: "'kern' Horizontal Kerning in Arabic lookup 2 per glyph data 2" afii57411 dx=60 dy=0 dh=60 dv=0 dx=0 dy=0 dh=0 dv=0
PairPos2: "'kern' Horizontal Kerning in Arabic lookup 2 per glyph data 2" uniFE8E.short dx=60 dy=0 dh=60 dv=0 dx=0 dy=0 dh=0 dv=0
PairPos2: "'kern' Horizontal Kerning in Arabic lookup 2 per glyph data 2" afii57415.short dx=60 dy=0 dh=60 dv=0 dx=0 dy=0 dh=0 dv=0
PairPos2: "'kern' Horizontal Kerning in Arabic lookup 2 per glyph data 2" afii57415 dx=60 dy=0 dh=60 dv=0 dx=0 dy=0 dh=0 dv=0
PairPos2: "'kern' Horizontal Kerning in Arabic lookup 2 per glyph data 1" uniFEF3 dx=40 dy=0 dh=40 dv=0 dx=0 dy=0 dh=0 dv=0
PairPos2: "'kern' Horizontal Kerning in Arabic lookup 2 per glyph data 1" uniFB58 dx=40 dy=0 dh=40 dv=0 dx=0 dy=0 dh=0 dv=0
PairPos2: "'kern' Horizontal Kerning in Arabic lookup 2 per glyph data 1" afii57413 dx=40 dy=0 dh=40 dv=0 dx=0 dy=0 dh=0 dv=0
PairPos2: "'kern' Horizontal Kerning in Arabic lookup 2 per glyph data 1" uniFB94 dx=110 dy=0 dh=110 dv=0 dx=0 dy=0 dh=0 dv=0
PairPos2: "'kern' Horizontal Kerning in Arabic lookup 2 per glyph data 1" afii57509 dx=110 dy=0 dh=110 dv=0 dx=0 dy=0 dh=0 dv=0
PairPos2: "'kern' Horizontal Kerning in Arabic lookup 2 per glyph data 1" uniFB90 dx=110 dy=0 dh=110 dv=0 dx=0 dy=0 dh=0 dv=0
PairPos2: "'kern' Horizontal Kerning in Arabic lookup 2 per glyph data 1" uni06A9 dx=110 dy=0 dh=110 dv=0 dx=0 dy=0 dh=0 dv=0
PairPos2: "'kern' Horizontal Kerning in Arabic lookup 2 per glyph data 1" uniFEDB dx=110 dy=0 dh=110 dv=0 dx=0 dy=0 dh=0 dv=0
EndChar

StartChar: j.short
Encoding: 523 -1 41
Width: 256
GlyphClass: 2
Flags: W
AnchorPoint: "Anchor-8" 0 0 basechar 0
AnchorPoint: "Anchor-7" 0 0 basechar 0
AnchorPoint: "Anchor-6" 128 686 basechar 0
AnchorPoint: "Anchor-5" 0 0 basechar 0
AnchorPoint: "Anchor-4" 54 -186 basechar 0
LayerCount: 2
Fore
SplineSet
83 528.5 m 128,-1,1
 63 540 63 540 51 559 c 128,-1,2
 39 578 39 578 39 601 c 256,3,4
 39 624 39 624 51 643.5 c 128,-1,5
 63 663 63 663 83 674.5 c 128,-1,6
 103 686 103 686 127 686 c 256,7,8
 151 686 151 686 171 674.5 c 128,-1,9
 191 663 191 663 203 643.5 c 128,-1,10
 215 624 215 624 215 601 c 256,11,12
 215 578 215 578 203 559 c 128,-1,13
 191 540 191 540 171 528.5 c 128,-1,14
 151 517 151 517 127 517 c 256,15,0
 103 517 103 517 83 528.5 c 128,-1,1
-15 -187 m 1,17,-1
 14 -92 l 1,18,19
 23 -95 23 -95 32 -95 c 0,20,21
 45 -95 45 -95 52.5 -85.5 c 128,-1,22
 60 -76 60 -76 60 -57 c 2,23,-1
 60 450 l 1,24,-1
 196 463 l 1,25,-1
 196 -43 l 2,26,27
 196 -123 196 -123 158.5 -161.5 c 128,-1,28
 121 -200 121 -200 54 -200 c 0,29,16
 18 -200 18 -200 -15 -187 c 1,17,-1
EndSplineSet
PairPos2: "'kern' Horizontal Kerning in Arabic lookup 2 per glyph data 2" uni0671 dx=60 dy=0 dh=60 dv=0 dx=0 dy=0 dh=0 dv=0
PairPos2: "'kern' Horizontal Kerning in Arabic lookup 2 per glyph data 2" afii57410 dx=60 dy=0 dh=60 dv=0 dx=0 dy=0 dh=0 dv=0
PairPos2: "'kern' Horizontal Kerning in Arabic lookup 2 per glyph data 2" afii57411 dx=60 dy=0 dh=60 dv=0 dx=0 dy=0 dh=0 dv=0
PairPos2: "'kern' Horizontal Kerning in Arabic lookup 2 per glyph data 2" uniFE8E.short dx=60 dy=0 dh=60 dv=0 dx=0 dy=0 dh=0 dv=0
PairPos2: "'kern' Horizontal Kerning in Arabic lookup 2 per glyph data 2" afii57415.short dx=60 dy=0 dh=60 dv=0 dx=0 dy=0 dh=0 dv=0
PairPos2: "'kern' Horizontal Kerning in Arabic lookup 2 per glyph data 2" afii57415 dx=60 dy=0 dh=60 dv=0 dx=0 dy=0 dh=0 dv=0
PairPos2: "'kern' Horizontal Kerning in Arabic lookup 2 per glyph data 1" uniFEF3 dx=40 dy=0 dh=40 dv=0 dx=0 dy=0 dh=0 dv=0
PairPos2: "'kern' Horizontal Kerning in Arabic lookup 2 per glyph data 1" uniFB58 dx=40 dy=0 dh=40 dv=0 dx=0 dy=0 dh=0 dv=0
PairPos2: "'kern' Horizontal Kerning in Arabic lookup 2 per glyph data 1" afii57413 dx=40 dy=0 dh=40 dv=0 dx=0 dy=0 dh=0 dv=0
PairPos2: "'kern' Horizontal Kerning in Arabic lookup 2 per glyph data 1" uniFB94 dx=110 dy=0 dh=110 dv=0 dx=0 dy=0 dh=0 dv=0
PairPos2: "'kern' Horizontal Kerning in Arabic lookup 2 per glyph data 1" afii57509 dx=110 dy=0 dh=110 dv=0 dx=0 dy=0 dh=0 dv=0
PairPos2: "'kern' Horizontal Kerning in Arabic lookup 2 per glyph data 1" uniFB90 dx=110 dy=0 dh=110 dv=0 dx=0 dy=0 dh=0 dv=0
PairPos2: "'kern' Horizontal Kerning in Arabic lookup 2 per glyph data 1" uni06A9 dx=110 dy=0 dh=110 dv=0 dx=0 dy=0 dh=0 dv=0
PairPos2: "'kern' Horizontal Kerning in Arabic lookup 2 per glyph data 1" uniFEDB dx=110 dy=0 dh=110 dv=0 dx=0 dy=0 dh=0 dv=0
EndChar

StartChar: k
Encoding: 77 107 42
Width: 516
GlyphClass: 2
Flags: W
AnchorPoint: "Anchor-8" 197 688 basechar 0
AnchorPoint: "Anchor-7" 129 320 basechar 0
AnchorPoint: "Anchor-6" 121 688 basechar 0
AnchorPoint: "Anchor-5" 0 0 basechar 0
AnchorPoint: "Anchor-4" 253 0 basechar 0
LayerCount: 2
Fore
SplineSet
338 244 m 1,0,-1
 512 8 l 1,1,-1
 512 0 l 1,2,-1
 353 0 l 1,3,-1
 196 224 l 1,4,-1
 196 0 l 1,5,-1
 60 0 l 1,6,-1
 60 688 l 1,7,-1
 196 701 l 1,8,-1
 196 248 l 1,9,-1
 359 450 l 1,10,-1
 503 450 l 1,11,-1
 503 443 l 1,12,-1
 338 244 l 1,0,-1
EndSplineSet
PairPos2: "'kern' Horizontal Kerning in Arabic lookup 2 per glyph data 2" uni0671 dx=60 dy=0 dh=60 dv=0 dx=0 dy=0 dh=0 dv=0
PairPos2: "'kern' Horizontal Kerning in Arabic lookup 2 per glyph data 2" afii57410 dx=60 dy=0 dh=60 dv=0 dx=0 dy=0 dh=0 dv=0
PairPos2: "'kern' Horizontal Kerning in Arabic lookup 2 per glyph data 2" afii57411 dx=60 dy=0 dh=60 dv=0 dx=0 dy=0 dh=0 dv=0
PairPos2: "'kern' Horizontal Kerning in Arabic lookup 2 per glyph data 2" uniFE8E.short dx=60 dy=0 dh=60 dv=0 dx=0 dy=0 dh=0 dv=0
PairPos2: "'kern' Horizontal Kerning in Arabic lookup 2 per glyph data 2" afii57415.short dx=60 dy=0 dh=60 dv=0 dx=0 dy=0 dh=0 dv=0
PairPos2: "'kern' Horizontal Kerning in Arabic lookup 2 per glyph data 2" afii57415 dx=60 dy=0 dh=60 dv=0 dx=0 dy=0 dh=0 dv=0
PairPos2: "'kern' Horizontal Kerning in Arabic lookup 2 per glyph data 1" uniFEF3 dx=40 dy=0 dh=40 dv=0 dx=0 dy=0 dh=0 dv=0
PairPos2: "'kern' Horizontal Kerning in Arabic lookup 2 per glyph data 1" uniFB58 dx=40 dy=0 dh=40 dv=0 dx=0 dy=0 dh=0 dv=0
PairPos2: "'kern' Horizontal Kerning in Arabic lookup 2 per glyph data 1" afii57413 dx=40 dy=0 dh=40 dv=0 dx=0 dy=0 dh=0 dv=0
PairPos2: "'kern' Horizontal Kerning in Arabic lookup 2 per glyph data 1" uniFB94 dx=110 dy=0 dh=110 dv=0 dx=0 dy=0 dh=0 dv=0
PairPos2: "'kern' Horizontal Kerning in Arabic lookup 2 per glyph data 1" afii57509 dx=110 dy=0 dh=110 dv=0 dx=0 dy=0 dh=0 dv=0
PairPos2: "'kern' Horizontal Kerning in Arabic lookup 2 per glyph data 1" uniFB90 dx=110 dy=0 dh=110 dv=0 dx=0 dy=0 dh=0 dv=0
PairPos2: "'kern' Horizontal Kerning in Arabic lookup 2 per glyph data 1" uni06A9 dx=110 dy=0 dh=110 dv=0 dx=0 dy=0 dh=0 dv=0
PairPos2: "'kern' Horizontal Kerning in Arabic lookup 2 per glyph data 1" uniFEDB dx=110 dy=0 dh=110 dv=0 dx=0 dy=0 dh=0 dv=0
EndChar

StartChar: l
Encoding: 78 108 43
Width: 256
GlyphClass: 2
Flags: W
AnchorPoint: "Anchor-8" 197 688 basechar 0
AnchorPoint: "Anchor-7" 129 320 basechar 0
AnchorPoint: "Anchor-6" 129 688 basechar 0
AnchorPoint: "Anchor-5" 0 0 basechar 0
AnchorPoint: "Anchor-4" 129 0 basechar 0
LayerCount: 2
Fore
SplineSet
60 0 m 1,0,-1
 60 688 l 1,1,-1
 196 701 l 1,2,-1
 196 0 l 1,3,-1
 60 0 l 1,0,-1
EndSplineSet
PairPos2: "'kern' Horizontal Kerning in Arabic lookup 2 per glyph data 2" uni0671 dx=60 dy=0 dh=60 dv=0 dx=0 dy=0 dh=0 dv=0
PairPos2: "'kern' Horizontal Kerning in Arabic lookup 2 per glyph data 2" afii57410 dx=60 dy=0 dh=60 dv=0 dx=0 dy=0 dh=0 dv=0
PairPos2: "'kern' Horizontal Kerning in Arabic lookup 2 per glyph data 2" afii57411 dx=60 dy=0 dh=60 dv=0 dx=0 dy=0 dh=0 dv=0
PairPos2: "'kern' Horizontal Kerning in Arabic lookup 2 per glyph data 2" uniFE8E.short dx=60 dy=0 dh=60 dv=0 dx=0 dy=0 dh=0 dv=0
PairPos2: "'kern' Horizontal Kerning in Arabic lookup 2 per glyph data 2" afii57415.short dx=60 dy=0 dh=60 dv=0 dx=0 dy=0 dh=0 dv=0
PairPos2: "'kern' Horizontal Kerning in Arabic lookup 2 per glyph data 2" afii57415 dx=60 dy=0 dh=60 dv=0 dx=0 dy=0 dh=0 dv=0
PairPos2: "'kern' Horizontal Kerning in Arabic lookup 2 per glyph data 1" uniFEF3 dx=40 dy=0 dh=40 dv=0 dx=0 dy=0 dh=0 dv=0
PairPos2: "'kern' Horizontal Kerning in Arabic lookup 2 per glyph data 1" uniFB58 dx=40 dy=0 dh=40 dv=0 dx=0 dy=0 dh=0 dv=0
PairPos2: "'kern' Horizontal Kerning in Arabic lookup 2 per glyph data 1" afii57413 dx=40 dy=0 dh=40 dv=0 dx=0 dy=0 dh=0 dv=0
PairPos2: "'kern' Horizontal Kerning in Arabic lookup 2 per glyph data 1" uniFB94 dx=110 dy=0 dh=110 dv=0 dx=0 dy=0 dh=0 dv=0
PairPos2: "'kern' Horizontal Kerning in Arabic lookup 2 per glyph data 1" afii57509 dx=110 dy=0 dh=110 dv=0 dx=0 dy=0 dh=0 dv=0
PairPos2: "'kern' Horizontal Kerning in Arabic lookup 2 per glyph data 1" uniFB90 dx=110 dy=0 dh=110 dv=0 dx=0 dy=0 dh=0 dv=0
PairPos2: "'kern' Horizontal Kerning in Arabic lookup 2 per glyph data 1" uni06A9 dx=110 dy=0 dh=110 dv=0 dx=0 dy=0 dh=0 dv=0
PairPos2: "'kern' Horizontal Kerning in Arabic lookup 2 per glyph data 1" uniFEDB dx=110 dy=0 dh=110 dv=0 dx=0 dy=0 dh=0 dv=0
EndChar

StartChar: m
Encoding: 79 109 44
Width: 796
GlyphClass: 2
Flags: W
AnchorPoint: "Anchor-8" 0 0 basechar 0
AnchorPoint: "Anchor-7" 0 0 basechar 0
AnchorPoint: "Anchor-6" 438 450 basechar 0
AnchorPoint: "Anchor-5" 0 0 basechar 0
AnchorPoint: "Anchor-4" 396 0 basechar 0
LayerCount: 2
Fore
SplineSet
707.5 430.5 m 128,-1,1
 741 396 741 396 741 331 c 2,2,-1
 741 0 l 1,3,-1
 605 0 l 1,4,-1
 605 290 l 2,5,6
 605 330 605 330 593.5 346.5 c 128,-1,7
 582 363 582 363 555 363 c 0,8,9
 519 363 519 363 469 334 c 1,10,-1
 469 331 l 1,11,-1
 469 0 l 1,12,-1
 333 0 l 1,13,-1
 333 290 l 2,14,15
 333 330 333 330 321.5 346.5 c 128,-1,16
 310 363 310 363 283 363 c 0,17,18
 244 363 244 363 196 334 c 1,19,-1
 196 0 l 1,20,-1
 60 0 l 1,21,-1
 60 447 l 1,22,-1
 196 460 l 1,23,-1
 196 421 l 1,24,25
 265 465 265 465 339 465 c 0,26,27
 415 465 415 465 448 415 c 1,28,29
 488 439 488 439 528 452 c 128,-1,30
 568 465 568 465 611 465 c 0,31,0
 674 465 674 465 707.5 430.5 c 128,-1,1
EndSplineSet
PairPos2: "'kern' Horizontal Kerning in Arabic lookup 2 per glyph data 2" uni0671 dx=60 dy=0 dh=60 dv=0 dx=0 dy=0 dh=0 dv=0
PairPos2: "'kern' Horizontal Kerning in Arabic lookup 2 per glyph data 2" afii57410 dx=60 dy=0 dh=60 dv=0 dx=0 dy=0 dh=0 dv=0
PairPos2: "'kern' Horizontal Kerning in Arabic lookup 2 per glyph data 2" afii57411 dx=60 dy=0 dh=60 dv=0 dx=0 dy=0 dh=0 dv=0
PairPos2: "'kern' Horizontal Kerning in Arabic lookup 2 per glyph data 2" uniFE8E.short dx=60 dy=0 dh=60 dv=0 dx=0 dy=0 dh=0 dv=0
PairPos2: "'kern' Horizontal Kerning in Arabic lookup 2 per glyph data 2" afii57415.short dx=60 dy=0 dh=60 dv=0 dx=0 dy=0 dh=0 dv=0
PairPos2: "'kern' Horizontal Kerning in Arabic lookup 2 per glyph data 2" afii57415 dx=60 dy=0 dh=60 dv=0 dx=0 dy=0 dh=0 dv=0
PairPos2: "'kern' Horizontal Kerning in Arabic lookup 2 per glyph data 1" uniFEF3 dx=40 dy=0 dh=40 dv=0 dx=0 dy=0 dh=0 dv=0
PairPos2: "'kern' Horizontal Kerning in Arabic lookup 2 per glyph data 1" uniFB58 dx=40 dy=0 dh=40 dv=0 dx=0 dy=0 dh=0 dv=0
PairPos2: "'kern' Horizontal Kerning in Arabic lookup 2 per glyph data 1" afii57413 dx=40 dy=0 dh=40 dv=0 dx=0 dy=0 dh=0 dv=0
PairPos2: "'kern' Horizontal Kerning in Arabic lookup 2 per glyph data 1" uniFB94 dx=110 dy=0 dh=110 dv=0 dx=0 dy=0 dh=0 dv=0
PairPos2: "'kern' Horizontal Kerning in Arabic lookup 2 per glyph data 1" afii57509 dx=110 dy=0 dh=110 dv=0 dx=0 dy=0 dh=0 dv=0
PairPos2: "'kern' Horizontal Kerning in Arabic lookup 2 per glyph data 1" uniFB90 dx=110 dy=0 dh=110 dv=0 dx=0 dy=0 dh=0 dv=0
PairPos2: "'kern' Horizontal Kerning in Arabic lookup 2 per glyph data 1" uni06A9 dx=110 dy=0 dh=110 dv=0 dx=0 dy=0 dh=0 dv=0
PairPos2: "'kern' Horizontal Kerning in Arabic lookup 2 per glyph data 1" uniFEDB dx=110 dy=0 dh=110 dv=0 dx=0 dy=0 dh=0 dv=0
EndChar

StartChar: n
Encoding: 80 110 45
Width: 542
GlyphClass: 2
Flags: W
AnchorPoint: "Anchor-8" 0 0 basechar 0
AnchorPoint: "Anchor-7" 0 0 basechar 0
AnchorPoint: "Anchor-6" 273 450 basechar 0
AnchorPoint: "Anchor-5" 0 0 basechar 0
AnchorPoint: "Anchor-4" 272 0 basechar 0
LayerCount: 2
Fore
SplineSet
452 430.5 m 128,-1,1
 487 396 487 396 487 330 c 2,2,-1
 487 0 l 1,3,-1
 351 0 l 1,4,-1
 351 290 l 2,5,6
 351 318 351 318 345.5 333.5 c 128,-1,7
 340 349 340 349 327 356 c 128,-1,8
 314 363 314 363 290 363 c 0,9,10
 250 363 250 363 196 331 c 1,11,-1
 196 0 l 1,12,-1
 60 0 l 1,13,-1
 60 447 l 1,14,-1
 196 460 l 1,15,-1
 196 416 l 1,16,17
 233 439 233 439 270.5 452 c 128,-1,18
 308 465 308 465 348 465 c 0,19,0
 417 465 417 465 452 430.5 c 128,-1,1
EndSplineSet
PairPos2: "'kern' Horizontal Kerning in Arabic lookup 2 per glyph data 2" uni0671 dx=60 dy=0 dh=60 dv=0 dx=0 dy=0 dh=0 dv=0
PairPos2: "'kern' Horizontal Kerning in Arabic lookup 2 per glyph data 2" afii57410 dx=60 dy=0 dh=60 dv=0 dx=0 dy=0 dh=0 dv=0
PairPos2: "'kern' Horizontal Kerning in Arabic lookup 2 per glyph data 2" afii57411 dx=60 dy=0 dh=60 dv=0 dx=0 dy=0 dh=0 dv=0
PairPos2: "'kern' Horizontal Kerning in Arabic lookup 2 per glyph data 2" uniFE8E.short dx=60 dy=0 dh=60 dv=0 dx=0 dy=0 dh=0 dv=0
PairPos2: "'kern' Horizontal Kerning in Arabic lookup 2 per glyph data 2" afii57415.short dx=60 dy=0 dh=60 dv=0 dx=0 dy=0 dh=0 dv=0
PairPos2: "'kern' Horizontal Kerning in Arabic lookup 2 per glyph data 2" afii57415 dx=60 dy=0 dh=60 dv=0 dx=0 dy=0 dh=0 dv=0
PairPos2: "'kern' Horizontal Kerning in Arabic lookup 2 per glyph data 1" uniFEF3 dx=40 dy=0 dh=40 dv=0 dx=0 dy=0 dh=0 dv=0
PairPos2: "'kern' Horizontal Kerning in Arabic lookup 2 per glyph data 1" uniFB58 dx=40 dy=0 dh=40 dv=0 dx=0 dy=0 dh=0 dv=0
PairPos2: "'kern' Horizontal Kerning in Arabic lookup 2 per glyph data 1" afii57413 dx=40 dy=0 dh=40 dv=0 dx=0 dy=0 dh=0 dv=0
PairPos2: "'kern' Horizontal Kerning in Arabic lookup 2 per glyph data 1" uniFB94 dx=110 dy=0 dh=110 dv=0 dx=0 dy=0 dh=0 dv=0
PairPos2: "'kern' Horizontal Kerning in Arabic lookup 2 per glyph data 1" afii57509 dx=110 dy=0 dh=110 dv=0 dx=0 dy=0 dh=0 dv=0
PairPos2: "'kern' Horizontal Kerning in Arabic lookup 2 per glyph data 1" uniFB90 dx=110 dy=0 dh=110 dv=0 dx=0 dy=0 dh=0 dv=0
PairPos2: "'kern' Horizontal Kerning in Arabic lookup 2 per glyph data 1" uni06A9 dx=110 dy=0 dh=110 dv=0 dx=0 dy=0 dh=0 dv=0
PairPos2: "'kern' Horizontal Kerning in Arabic lookup 2 per glyph data 1" uniFEDB dx=110 dy=0 dh=110 dv=0 dx=0 dy=0 dh=0 dv=0
EndChar

StartChar: o
Encoding: 81 111 46
Width: 542
GlyphClass: 2
Flags: W
AnchorPoint: "Anchor-8" 522 450 basechar 0
AnchorPoint: "Anchor-7" 271 225 basechar 0
AnchorPoint: "Anchor-6" 271 450 basechar 0
AnchorPoint: "Anchor-5" 488 10 basechar 0
AnchorPoint: "Anchor-4" 271 0 basechar 0
LayerCount: 2
Fore
SplineSet
136.5 18 m 128,-1,1
 84 50 84 50 58 104.5 c 128,-1,2
 32 159 32 159 32 226 c 0,3,4
 32 312 32 312 65.5 365 c 128,-1,5
 99 418 99 418 154 441.5 c 128,-1,6
 209 465 209 465 277 465 c 0,7,8
 353 465 353 465 405.5 434.5 c 128,-1,9
 458 404 458 404 484 350 c 128,-1,10
 510 296 510 296 510 225 c 0,11,12
 510 142 510 142 477.5 88.5 c 128,-1,13
 445 35 445 35 389.5 10.5 c 128,-1,14
 334 -14 334 -14 264 -14 c 0,15,0
 189 -14 189 -14 136.5 18 c 128,-1,1
347 124.5 m 128,-1,17
 369 162 369 162 369 226 c 0,18,19
 369 294 369 294 345.5 329 c 128,-1,20
 322 364 322 364 273 364 c 0,21,22
 220 364 220 364 196 329.5 c 128,-1,23
 172 295 172 295 172 226 c 0,24,25
 172 161 172 161 196.5 124 c 128,-1,26
 221 87 221 87 271 87 c 0,27,16
 325 87 325 87 347 124.5 c 128,-1,17
EndSplineSet
Substitution2: "Single Substitution lookup 23 subtable" ordmasculine
Substitution2: "'aalt' Access All Alternates in Arabic lookup 0 subtable" ordmasculine
PairPos2: "'kern' Horizontal Kerning in Arabic lookup 2 per glyph data 2" uni0671 dx=60 dy=0 dh=60 dv=0 dx=0 dy=0 dh=0 dv=0
PairPos2: "'kern' Horizontal Kerning in Arabic lookup 2 per glyph data 2" afii57410 dx=60 dy=0 dh=60 dv=0 dx=0 dy=0 dh=0 dv=0
PairPos2: "'kern' Horizontal Kerning in Arabic lookup 2 per glyph data 2" afii57411 dx=60 dy=0 dh=60 dv=0 dx=0 dy=0 dh=0 dv=0
PairPos2: "'kern' Horizontal Kerning in Arabic lookup 2 per glyph data 2" uniFE8E.short dx=60 dy=0 dh=60 dv=0 dx=0 dy=0 dh=0 dv=0
PairPos2: "'kern' Horizontal Kerning in Arabic lookup 2 per glyph data 2" afii57415.short dx=60 dy=0 dh=60 dv=0 dx=0 dy=0 dh=0 dv=0
PairPos2: "'kern' Horizontal Kerning in Arabic lookup 2 per glyph data 2" afii57415 dx=60 dy=0 dh=60 dv=0 dx=0 dy=0 dh=0 dv=0
PairPos2: "'kern' Horizontal Kerning in Arabic lookup 2 per glyph data 1" uniFEF3 dx=40 dy=0 dh=40 dv=0 dx=0 dy=0 dh=0 dv=0
PairPos2: "'kern' Horizontal Kerning in Arabic lookup 2 per glyph data 1" uniFB58 dx=40 dy=0 dh=40 dv=0 dx=0 dy=0 dh=0 dv=0
PairPos2: "'kern' Horizontal Kerning in Arabic lookup 2 per glyph data 1" afii57413 dx=40 dy=0 dh=40 dv=0 dx=0 dy=0 dh=0 dv=0
PairPos2: "'kern' Horizontal Kerning in Arabic lookup 2 per glyph data 1" uniFB94 dx=110 dy=0 dh=110 dv=0 dx=0 dy=0 dh=0 dv=0
PairPos2: "'kern' Horizontal Kerning in Arabic lookup 2 per glyph data 1" afii57509 dx=110 dy=0 dh=110 dv=0 dx=0 dy=0 dh=0 dv=0
PairPos2: "'kern' Horizontal Kerning in Arabic lookup 2 per glyph data 1" uniFB90 dx=110 dy=0 dh=110 dv=0 dx=0 dy=0 dh=0 dv=0
PairPos2: "'kern' Horizontal Kerning in Arabic lookup 2 per glyph data 1" uni06A9 dx=110 dy=0 dh=110 dv=0 dx=0 dy=0 dh=0 dv=0
PairPos2: "'kern' Horizontal Kerning in Arabic lookup 2 per glyph data 1" uniFEDB dx=110 dy=0 dh=110 dv=0 dx=0 dy=0 dh=0 dv=0
EndChar

StartChar: p
Encoding: 82 112 47
Width: 545
GlyphClass: 2
Flags: W
AnchorPoint: "Anchor-8" 0 0 basechar 0
AnchorPoint: "Anchor-7" 0 0 basechar 0
AnchorPoint: "Anchor-6" 280 450 basechar 0
AnchorPoint: "Anchor-5" 0 0 basechar 0
AnchorPoint: "Anchor-4" 128 -186 basechar 0
LayerCount: 2
Fore
SplineSet
468.5 407 m 128,-1,1
 513 349 513 349 513 235 c 0,2,3
 513 147 513 147 478 91.5 c 128,-1,4
 443 36 443 36 388.5 11 c 128,-1,5
 334 -14 334 -14 272 -14 c 0,6,7
 235 -14 235 -14 196 -3 c 1,8,-1
 196 -186 l 1,9,-1
 60 -186 l 1,10,-1
 60 447 l 1,11,-1
 196 460 l 1,12,-1
 196 423 l 1,13,14
 265 465 265 465 332 465 c 0,15,0
 424 465 424 465 468.5 407 c 128,-1,1
340.5 122.5 m 128,-1,17
 373 160 373 160 373 235 c 0,18,19
 373 284 373 284 364.5 311.5 c 128,-1,20
 356 339 356 339 337 351 c 128,-1,21
 318 363 318 363 285 363 c 0,22,23
 245 363 245 363 196 335 c 1,24,-1
 196 90 l 1,25,26
 224 85 224 85 249 85 c 0,27,16
 308 85 308 85 340.5 122.5 c 128,-1,17
EndSplineSet
PairPos2: "'kern' Horizontal Kerning in Arabic lookup 2 per glyph data 2" uni0671 dx=60 dy=0 dh=60 dv=0 dx=0 dy=0 dh=0 dv=0
PairPos2: "'kern' Horizontal Kerning in Arabic lookup 2 per glyph data 2" afii57410 dx=60 dy=0 dh=60 dv=0 dx=0 dy=0 dh=0 dv=0
PairPos2: "'kern' Horizontal Kerning in Arabic lookup 2 per glyph data 2" afii57411 dx=60 dy=0 dh=60 dv=0 dx=0 dy=0 dh=0 dv=0
PairPos2: "'kern' Horizontal Kerning in Arabic lookup 2 per glyph data 2" uniFE8E.short dx=60 dy=0 dh=60 dv=0 dx=0 dy=0 dh=0 dv=0
PairPos2: "'kern' Horizontal Kerning in Arabic lookup 2 per glyph data 2" afii57415.short dx=60 dy=0 dh=60 dv=0 dx=0 dy=0 dh=0 dv=0
PairPos2: "'kern' Horizontal Kerning in Arabic lookup 2 per glyph data 2" afii57415 dx=60 dy=0 dh=60 dv=0 dx=0 dy=0 dh=0 dv=0
PairPos2: "'kern' Horizontal Kerning in Arabic lookup 2 per glyph data 1" uniFEF3 dx=40 dy=0 dh=40 dv=0 dx=0 dy=0 dh=0 dv=0
PairPos2: "'kern' Horizontal Kerning in Arabic lookup 2 per glyph data 1" uniFB58 dx=40 dy=0 dh=40 dv=0 dx=0 dy=0 dh=0 dv=0
PairPos2: "'kern' Horizontal Kerning in Arabic lookup 2 per glyph data 1" afii57413 dx=40 dy=0 dh=40 dv=0 dx=0 dy=0 dh=0 dv=0
PairPos2: "'kern' Horizontal Kerning in Arabic lookup 2 per glyph data 1" uniFB94 dx=110 dy=0 dh=110 dv=0 dx=0 dy=0 dh=0 dv=0
PairPos2: "'kern' Horizontal Kerning in Arabic lookup 2 per glyph data 1" afii57509 dx=110 dy=0 dh=110 dv=0 dx=0 dy=0 dh=0 dv=0
PairPos2: "'kern' Horizontal Kerning in Arabic lookup 2 per glyph data 1" uniFB90 dx=110 dy=0 dh=110 dv=0 dx=0 dy=0 dh=0 dv=0
PairPos2: "'kern' Horizontal Kerning in Arabic lookup 2 per glyph data 1" uni06A9 dx=110 dy=0 dh=110 dv=0 dx=0 dy=0 dh=0 dv=0
PairPos2: "'kern' Horizontal Kerning in Arabic lookup 2 per glyph data 1" uniFEDB dx=110 dy=0 dh=110 dv=0 dx=0 dy=0 dh=0 dv=0
EndChar

StartChar: q
Encoding: 83 113 48
Width: 542
GlyphClass: 2
Flags: W
AnchorPoint: "Anchor-8" 0 0 basechar 0
AnchorPoint: "Anchor-7" 0 0 basechar 0
AnchorPoint: "Anchor-6" 262 450 basechar 0
AnchorPoint: "Anchor-5" 0 0 basechar 0
AnchorPoint: "Anchor-4" 414 -186 basechar 0
LayerCount: 2
Fore
SplineSet
376 457.5 m 128,-1,1
 419 451 419 451 482 430 c 1,2,-1
 482 -186 l 1,3,-1
 346 -186 l 1,4,-1
 346 24 l 1,5,6
 286 -14 286 -14 218 -14 c 0,7,8
 125 -14 125 -14 78.5 45 c 128,-1,9
 32 104 32 104 32 214 c 0,10,11
 32 305 32 305 70.5 361 c 128,-1,12
 109 417 109 417 167 440.5 c 128,-1,13
 225 464 225 464 289 464 c 0,14,0
 333 464 333 464 376 457.5 c 128,-1,1
299 95 m 128,-1,16
 321 102 321 102 346 116 c 1,17,-1
 346 362 l 1,18,19
 318 368 318 368 293 368 c 0,20,21
 238 368 238 368 205 329.5 c 128,-1,22
 172 291 172 291 172 214 c 0,23,24
 172 151 172 151 192 119.5 c 128,-1,25
 212 88 212 88 254 88 c 0,26,15
 277 88 277 88 299 95 c 128,-1,16
EndSplineSet
PairPos2: "'kern' Horizontal Kerning in Arabic lookup 2 per glyph data 2" uni0671 dx=60 dy=0 dh=60 dv=0 dx=0 dy=0 dh=0 dv=0
PairPos2: "'kern' Horizontal Kerning in Arabic lookup 2 per glyph data 2" afii57410 dx=60 dy=0 dh=60 dv=0 dx=0 dy=0 dh=0 dv=0
PairPos2: "'kern' Horizontal Kerning in Arabic lookup 2 per glyph data 2" afii57411 dx=60 dy=0 dh=60 dv=0 dx=0 dy=0 dh=0 dv=0
PairPos2: "'kern' Horizontal Kerning in Arabic lookup 2 per glyph data 2" uniFE8E.short dx=60 dy=0 dh=60 dv=0 dx=0 dy=0 dh=0 dv=0
PairPos2: "'kern' Horizontal Kerning in Arabic lookup 2 per glyph data 2" afii57415.short dx=60 dy=0 dh=60 dv=0 dx=0 dy=0 dh=0 dv=0
PairPos2: "'kern' Horizontal Kerning in Arabic lookup 2 per glyph data 2" afii57415 dx=60 dy=0 dh=60 dv=0 dx=0 dy=0 dh=0 dv=0
PairPos2: "'kern' Horizontal Kerning in Arabic lookup 2 per glyph data 1" uniFEF3 dx=40 dy=0 dh=40 dv=0 dx=0 dy=0 dh=0 dv=0
PairPos2: "'kern' Horizontal Kerning in Arabic lookup 2 per glyph data 1" uniFB58 dx=40 dy=0 dh=40 dv=0 dx=0 dy=0 dh=0 dv=0
PairPos2: "'kern' Horizontal Kerning in Arabic lookup 2 per glyph data 1" afii57413 dx=40 dy=0 dh=40 dv=0 dx=0 dy=0 dh=0 dv=0
PairPos2: "'kern' Horizontal Kerning in Arabic lookup 2 per glyph data 1" uniFB94 dx=110 dy=0 dh=110 dv=0 dx=0 dy=0 dh=0 dv=0
PairPos2: "'kern' Horizontal Kerning in Arabic lookup 2 per glyph data 1" afii57509 dx=110 dy=0 dh=110 dv=0 dx=0 dy=0 dh=0 dv=0
PairPos2: "'kern' Horizontal Kerning in Arabic lookup 2 per glyph data 1" uniFB90 dx=110 dy=0 dh=110 dv=0 dx=0 dy=0 dh=0 dv=0
PairPos2: "'kern' Horizontal Kerning in Arabic lookup 2 per glyph data 1" uni06A9 dx=110 dy=0 dh=110 dv=0 dx=0 dy=0 dh=0 dv=0
PairPos2: "'kern' Horizontal Kerning in Arabic lookup 2 per glyph data 1" uniFEDB dx=110 dy=0 dh=110 dv=0 dx=0 dy=0 dh=0 dv=0
EndChar

StartChar: r
Encoding: 84 114 49
Width: 385
GlyphClass: 2
Flags: W
AnchorPoint: "Anchor-8" 0 0 basechar 0
AnchorPoint: "Anchor-7" 0 0 basechar 0
AnchorPoint: "Anchor-6" 214 450 basechar 0
AnchorPoint: "Anchor-5" 0 0 basechar 0
AnchorPoint: "Anchor-4" 128 0 basechar 0
LayerCount: 2
Fore
SplineSet
374 456 m 1,1,-1
 354 319 l 1,2,3
 338 325 338 325 325 328 c 128,-1,4
 312 331 312 331 295 331 c 0,5,6
 269 331 269 331 244.5 318.5 c 128,-1,7
 220 306 220 306 196 274 c 1,8,-1
 196 0 l 1,9,-1
 60 0 l 1,10,-1
 60 447 l 1,11,-1
 196 460 l 1,12,-1
 196 397 l 1,13,14
 246 465 246 465 320 465 c 0,15,0
 349 465 349 465 374 456 c 1,1,-1
EndSplineSet
PairPos2: "'kern' Horizontal Kerning in Arabic lookup 2 per glyph data 2" uni0671 dx=60 dy=0 dh=60 dv=0 dx=0 dy=0 dh=0 dv=0
PairPos2: "'kern' Horizontal Kerning in Arabic lookup 2 per glyph data 2" afii57410 dx=60 dy=0 dh=60 dv=0 dx=0 dy=0 dh=0 dv=0
PairPos2: "'kern' Horizontal Kerning in Arabic lookup 2 per glyph data 2" afii57411 dx=60 dy=0 dh=60 dv=0 dx=0 dy=0 dh=0 dv=0
PairPos2: "'kern' Horizontal Kerning in Arabic lookup 2 per glyph data 2" uniFE8E.short dx=60 dy=0 dh=60 dv=0 dx=0 dy=0 dh=0 dv=0
PairPos2: "'kern' Horizontal Kerning in Arabic lookup 2 per glyph data 2" afii57415.short dx=60 dy=0 dh=60 dv=0 dx=0 dy=0 dh=0 dv=0
PairPos2: "'kern' Horizontal Kerning in Arabic lookup 2 per glyph data 2" afii57415 dx=60 dy=0 dh=60 dv=0 dx=0 dy=0 dh=0 dv=0
PairPos2: "'kern' Horizontal Kerning in Arabic lookup 2 per glyph data 1" uniFEF3 dx=40 dy=0 dh=40 dv=0 dx=0 dy=0 dh=0 dv=0
PairPos2: "'kern' Horizontal Kerning in Arabic lookup 2 per glyph data 1" uniFB58 dx=40 dy=0 dh=40 dv=0 dx=0 dy=0 dh=0 dv=0
PairPos2: "'kern' Horizontal Kerning in Arabic lookup 2 per glyph data 1" afii57413 dx=40 dy=0 dh=40 dv=0 dx=0 dy=0 dh=0 dv=0
PairPos2: "'kern' Horizontal Kerning in Arabic lookup 2 per glyph data 1" uniFB94 dx=110 dy=0 dh=110 dv=0 dx=0 dy=0 dh=0 dv=0
PairPos2: "'kern' Horizontal Kerning in Arabic lookup 2 per glyph data 1" afii57509 dx=110 dy=0 dh=110 dv=0 dx=0 dy=0 dh=0 dv=0
PairPos2: "'kern' Horizontal Kerning in Arabic lookup 2 per glyph data 1" uniFB90 dx=110 dy=0 dh=110 dv=0 dx=0 dy=0 dh=0 dv=0
PairPos2: "'kern' Horizontal Kerning in Arabic lookup 2 per glyph data 1" uni06A9 dx=110 dy=0 dh=110 dv=0 dx=0 dy=0 dh=0 dv=0
PairPos2: "'kern' Horizontal Kerning in Arabic lookup 2 per glyph data 1" uniFEDB dx=110 dy=0 dh=110 dv=0 dx=0 dy=0 dh=0 dv=0
EndChar

StartChar: s
Encoding: 85 115 50
Width: 437
GlyphClass: 2
Flags: W
AnchorPoint: "Anchor-8" 0 0 basechar 0
AnchorPoint: "Anchor-7" 0 0 basechar 0
AnchorPoint: "Anchor-6" 214 450 basechar 0
AnchorPoint: "Anchor-5" 0 0 basechar 0
AnchorPoint: "Anchor-4" 212 0 basechar 0
LayerCount: 2
Fore
SplineSet
105.5 1.5 m 128,-1,1
 55 17 55 17 11 48 c 1,2,-1
 68 135 l 1,3,4
 105 108 105 108 143 96.5 c 128,-1,5
 181 85 181 85 216 85 c 0,6,7
 249 85 249 85 264.5 95 c 128,-1,8
 280 105 280 105 280 122 c 0,9,10
 280 133 280 133 274 141.5 c 128,-1,11
 268 150 268 150 249.5 158.5 c 128,-1,12
 231 167 231 167 195 177 c 2,13,-1
 166 185 l 2,14,15
 94 205 94 205 62.5 237 c 128,-1,16
 31 269 31 269 31 324 c 0,17,18
 31 366 31 366 54 398 c 128,-1,19
 77 430 77 430 119 447.5 c 128,-1,20
 161 465 161 465 215 465 c 0,21,22
 317 465 317 465 400 416 c 1,23,-1
 348 329 l 1,24,25
 307 350 307 350 279 358 c 128,-1,26
 251 366 251 366 219 366 c 0,27,28
 194 366 194 366 181.5 357 c 128,-1,29
 169 348 169 348 169 334 c 0,30,31
 169 324 169 324 174 317.5 c 128,-1,32
 179 311 179 311 192.5 305.5 c 128,-1,33
 206 300 206 300 235 292 c 2,34,-1
 268 283 l 2,35,36
 345 263 345 263 380.5 227 c 128,-1,37
 416 191 416 191 416 136 c 0,38,39
 416 93 416 93 394.5 59 c 128,-1,40
 373 25 373 25 328.5 5.5 c 128,-1,41
 284 -14 284 -14 220 -14 c 256,42,0
 156 -14 156 -14 105.5 1.5 c 128,-1,1
EndSplineSet
PairPos2: "'kern' Horizontal Kerning in Arabic lookup 2 per glyph data 2" uni0671 dx=60 dy=0 dh=60 dv=0 dx=0 dy=0 dh=0 dv=0
PairPos2: "'kern' Horizontal Kerning in Arabic lookup 2 per glyph data 2" afii57410 dx=60 dy=0 dh=60 dv=0 dx=0 dy=0 dh=0 dv=0
PairPos2: "'kern' Horizontal Kerning in Arabic lookup 2 per glyph data 2" afii57411 dx=60 dy=0 dh=60 dv=0 dx=0 dy=0 dh=0 dv=0
PairPos2: "'kern' Horizontal Kerning in Arabic lookup 2 per glyph data 2" uniFE8E.short dx=60 dy=0 dh=60 dv=0 dx=0 dy=0 dh=0 dv=0
PairPos2: "'kern' Horizontal Kerning in Arabic lookup 2 per glyph data 2" afii57415.short dx=60 dy=0 dh=60 dv=0 dx=0 dy=0 dh=0 dv=0
PairPos2: "'kern' Horizontal Kerning in Arabic lookup 2 per glyph data 2" afii57415 dx=60 dy=0 dh=60 dv=0 dx=0 dy=0 dh=0 dv=0
PairPos2: "'kern' Horizontal Kerning in Arabic lookup 2 per glyph data 1" uniFEF3 dx=40 dy=0 dh=40 dv=0 dx=0 dy=0 dh=0 dv=0
PairPos2: "'kern' Horizontal Kerning in Arabic lookup 2 per glyph data 1" uniFB58 dx=40 dy=0 dh=40 dv=0 dx=0 dy=0 dh=0 dv=0
PairPos2: "'kern' Horizontal Kerning in Arabic lookup 2 per glyph data 1" afii57413 dx=40 dy=0 dh=40 dv=0 dx=0 dy=0 dh=0 dv=0
PairPos2: "'kern' Horizontal Kerning in Arabic lookup 2 per glyph data 1" uniFB94 dx=110 dy=0 dh=110 dv=0 dx=0 dy=0 dh=0 dv=0
PairPos2: "'kern' Horizontal Kerning in Arabic lookup 2 per glyph data 1" afii57509 dx=110 dy=0 dh=110 dv=0 dx=0 dy=0 dh=0 dv=0
PairPos2: "'kern' Horizontal Kerning in Arabic lookup 2 per glyph data 1" uniFB90 dx=110 dy=0 dh=110 dv=0 dx=0 dy=0 dh=0 dv=0
PairPos2: "'kern' Horizontal Kerning in Arabic lookup 2 per glyph data 1" uni06A9 dx=110 dy=0 dh=110 dv=0 dx=0 dy=0 dh=0 dv=0
PairPos2: "'kern' Horizontal Kerning in Arabic lookup 2 per glyph data 1" uniFEDB dx=110 dy=0 dh=110 dv=0 dx=0 dy=0 dh=0 dv=0
EndChar

StartChar: t
Encoding: 86 116 51
Width: 370
GlyphClass: 2
Flags: W
AnchorPoint: "Anchor-8" 222 648 basechar 0
AnchorPoint: "Anchor-7" 166 246 basechar 0
AnchorPoint: "Anchor-6" 156 561 basechar 0
AnchorPoint: "Anchor-5" 0 0 basechar 0
AnchorPoint: "Anchor-4" 231 0 basechar 0
LayerCount: 2
Fore
SplineSet
362 19 m 1,0,1
 303 -14 303 -14 230 -14 c 0,2,3
 193 -14 193 -14 161.5 0.5 c 128,-1,4
 130 15 130 15 110 47 c 128,-1,5
 90 79 90 79 90 128 c 2,6,-1
 90 343 l 1,7,-1
 8 343 l 1,8,-1
 8 450 l 1,9,-1
 90 450 l 1,10,-1
 90 551 l 1,11,-1
 226 570 l 1,12,-1
 226 450 l 1,13,-1
 351 450 l 1,14,-1
 337 343 l 1,15,-1
 226 343 l 1,16,-1
 226 149 l 2,17,18
 226 119 226 119 236.5 107 c 128,-1,19
 247 95 247 95 266 95 c 0,20,21
 280 95 280 95 293 98.5 c 128,-1,22
 306 102 306 102 325 110 c 1,23,-1
 362 19 l 1,0,1
EndSplineSet
PairPos2: "'kern' Horizontal Kerning in Arabic lookup 2 per glyph data 2" uni0671 dx=60 dy=0 dh=60 dv=0 dx=0 dy=0 dh=0 dv=0
PairPos2: "'kern' Horizontal Kerning in Arabic lookup 2 per glyph data 2" afii57410 dx=60 dy=0 dh=60 dv=0 dx=0 dy=0 dh=0 dv=0
PairPos2: "'kern' Horizontal Kerning in Arabic lookup 2 per glyph data 2" afii57411 dx=60 dy=0 dh=60 dv=0 dx=0 dy=0 dh=0 dv=0
PairPos2: "'kern' Horizontal Kerning in Arabic lookup 2 per glyph data 2" uniFE8E.short dx=60 dy=0 dh=60 dv=0 dx=0 dy=0 dh=0 dv=0
PairPos2: "'kern' Horizontal Kerning in Arabic lookup 2 per glyph data 2" afii57415.short dx=60 dy=0 dh=60 dv=0 dx=0 dy=0 dh=0 dv=0
PairPos2: "'kern' Horizontal Kerning in Arabic lookup 2 per glyph data 2" afii57415 dx=60 dy=0 dh=60 dv=0 dx=0 dy=0 dh=0 dv=0
PairPos2: "'kern' Horizontal Kerning in Arabic lookup 2 per glyph data 1" uniFEF3 dx=40 dy=0 dh=40 dv=0 dx=0 dy=0 dh=0 dv=0
PairPos2: "'kern' Horizontal Kerning in Arabic lookup 2 per glyph data 1" uniFB58 dx=40 dy=0 dh=40 dv=0 dx=0 dy=0 dh=0 dv=0
PairPos2: "'kern' Horizontal Kerning in Arabic lookup 2 per glyph data 1" afii57413 dx=40 dy=0 dh=40 dv=0 dx=0 dy=0 dh=0 dv=0
PairPos2: "'kern' Horizontal Kerning in Arabic lookup 2 per glyph data 1" uniFB94 dx=110 dy=0 dh=110 dv=0 dx=0 dy=0 dh=0 dv=0
PairPos2: "'kern' Horizontal Kerning in Arabic lookup 2 per glyph data 1" afii57509 dx=110 dy=0 dh=110 dv=0 dx=0 dy=0 dh=0 dv=0
PairPos2: "'kern' Horizontal Kerning in Arabic lookup 2 per glyph data 1" uniFB90 dx=110 dy=0 dh=110 dv=0 dx=0 dy=0 dh=0 dv=0
PairPos2: "'kern' Horizontal Kerning in Arabic lookup 2 per glyph data 1" uni06A9 dx=110 dy=0 dh=110 dv=0 dx=0 dy=0 dh=0 dv=0
PairPos2: "'kern' Horizontal Kerning in Arabic lookup 2 per glyph data 1" uniFEDB dx=110 dy=0 dh=110 dv=0 dx=0 dy=0 dh=0 dv=0
EndChar

StartChar: u
Encoding: 87 117 52
Width: 540
GlyphClass: 2
Flags: W
AnchorPoint: "Anchor-8" 519 450 basechar 0
AnchorPoint: "Anchor-7" 0 0 basechar 0
AnchorPoint: "Anchor-6" 267 450 basechar 0
AnchorPoint: "Anchor-5" 488 10 basechar 0
AnchorPoint: "Anchor-4" 223 0 basechar 0
LayerCount: 2
Fore
SplineSet
480 460 m 1,0,-1
 480 0 l 1,1,-1
 364 0 l 1,2,-1
 353 36 l 1,3,4
 276 -14 276 -14 195 -14 c 0,5,6
 128 -14 128 -14 91.5 23 c 128,-1,7
 55 60 55 60 55 125 c 2,8,-1
 55 447 l 1,9,-1
 191 460 l 1,10,-1
 191 165 l 2,11,12
 191 125 191 125 204 107.5 c 128,-1,13
 217 90 217 90 251 90 c 0,14,15
 287 90 287 90 344 121 c 1,16,-1
 344 447 l 1,17,-1
 480 460 l 1,0,-1
EndSplineSet
PairPos2: "'kern' Horizontal Kerning in Arabic lookup 2 per glyph data 2" uni0671 dx=60 dy=0 dh=60 dv=0 dx=0 dy=0 dh=0 dv=0
PairPos2: "'kern' Horizontal Kerning in Arabic lookup 2 per glyph data 2" afii57410 dx=60 dy=0 dh=60 dv=0 dx=0 dy=0 dh=0 dv=0
PairPos2: "'kern' Horizontal Kerning in Arabic lookup 2 per glyph data 2" afii57411 dx=60 dy=0 dh=60 dv=0 dx=0 dy=0 dh=0 dv=0
PairPos2: "'kern' Horizontal Kerning in Arabic lookup 2 per glyph data 2" uniFE8E.short dx=60 dy=0 dh=60 dv=0 dx=0 dy=0 dh=0 dv=0
PairPos2: "'kern' Horizontal Kerning in Arabic lookup 2 per glyph data 2" afii57415.short dx=60 dy=0 dh=60 dv=0 dx=0 dy=0 dh=0 dv=0
PairPos2: "'kern' Horizontal Kerning in Arabic lookup 2 per glyph data 2" afii57415 dx=60 dy=0 dh=60 dv=0 dx=0 dy=0 dh=0 dv=0
PairPos2: "'kern' Horizontal Kerning in Arabic lookup 2 per glyph data 1" uniFEF3 dx=40 dy=0 dh=40 dv=0 dx=0 dy=0 dh=0 dv=0
PairPos2: "'kern' Horizontal Kerning in Arabic lookup 2 per glyph data 1" uniFB58 dx=40 dy=0 dh=40 dv=0 dx=0 dy=0 dh=0 dv=0
PairPos2: "'kern' Horizontal Kerning in Arabic lookup 2 per glyph data 1" afii57413 dx=40 dy=0 dh=40 dv=0 dx=0 dy=0 dh=0 dv=0
PairPos2: "'kern' Horizontal Kerning in Arabic lookup 2 per glyph data 1" uniFB94 dx=110 dy=0 dh=110 dv=0 dx=0 dy=0 dh=0 dv=0
PairPos2: "'kern' Horizontal Kerning in Arabic lookup 2 per glyph data 1" afii57509 dx=110 dy=0 dh=110 dv=0 dx=0 dy=0 dh=0 dv=0
PairPos2: "'kern' Horizontal Kerning in Arabic lookup 2 per glyph data 1" uniFB90 dx=110 dy=0 dh=110 dv=0 dx=0 dy=0 dh=0 dv=0
PairPos2: "'kern' Horizontal Kerning in Arabic lookup 2 per glyph data 1" uni06A9 dx=110 dy=0 dh=110 dv=0 dx=0 dy=0 dh=0 dv=0
PairPos2: "'kern' Horizontal Kerning in Arabic lookup 2 per glyph data 1" uniFEDB dx=110 dy=0 dh=110 dv=0 dx=0 dy=0 dh=0 dv=0
EndChar

StartChar: v
Encoding: 88 118 53
Width: 476
GlyphClass: 2
Flags: W
AnchorPoint: "Anchor-8" 0 0 basechar 0
AnchorPoint: "Anchor-7" 0 0 basechar 0
AnchorPoint: "Anchor-6" 243 450 basechar 0
AnchorPoint: "Anchor-5" 0 0 basechar 0
AnchorPoint: "Anchor-4" 243 0 basechar 0
LayerCount: 2
Fore
SplineSet
475 450 m 1,0,-1
 475 443 l 1,1,-1
 309 0 l 1,2,-1
 172 0 l 1,3,-1
 1 443 l 1,4,-1
 1 450 l 1,5,-1
 145 450 l 1,6,-1
 222 211 l 2,7,8
 236 165 236 165 243 132 c 1,9,10
 245 140 245 140 250 164 c 128,-1,11
 255 188 255 188 261 211 c 2,12,-1
 325 450 l 1,13,-1
 475 450 l 1,0,-1
EndSplineSet
PairPos2: "'kern' Horizontal Kerning in Arabic lookup 2 per glyph data 2" uni0671 dx=60 dy=0 dh=60 dv=0 dx=0 dy=0 dh=0 dv=0
PairPos2: "'kern' Horizontal Kerning in Arabic lookup 2 per glyph data 2" afii57410 dx=60 dy=0 dh=60 dv=0 dx=0 dy=0 dh=0 dv=0
PairPos2: "'kern' Horizontal Kerning in Arabic lookup 2 per glyph data 2" afii57411 dx=60 dy=0 dh=60 dv=0 dx=0 dy=0 dh=0 dv=0
PairPos2: "'kern' Horizontal Kerning in Arabic lookup 2 per glyph data 2" uniFE8E.short dx=60 dy=0 dh=60 dv=0 dx=0 dy=0 dh=0 dv=0
PairPos2: "'kern' Horizontal Kerning in Arabic lookup 2 per glyph data 2" afii57415.short dx=60 dy=0 dh=60 dv=0 dx=0 dy=0 dh=0 dv=0
PairPos2: "'kern' Horizontal Kerning in Arabic lookup 2 per glyph data 2" afii57415 dx=60 dy=0 dh=60 dv=0 dx=0 dy=0 dh=0 dv=0
PairPos2: "'kern' Horizontal Kerning in Arabic lookup 2 per glyph data 1" uniFEF3 dx=40 dy=0 dh=40 dv=0 dx=0 dy=0 dh=0 dv=0
PairPos2: "'kern' Horizontal Kerning in Arabic lookup 2 per glyph data 1" uniFB58 dx=40 dy=0 dh=40 dv=0 dx=0 dy=0 dh=0 dv=0
PairPos2: "'kern' Horizontal Kerning in Arabic lookup 2 per glyph data 1" afii57413 dx=40 dy=0 dh=40 dv=0 dx=0 dy=0 dh=0 dv=0
PairPos2: "'kern' Horizontal Kerning in Arabic lookup 2 per glyph data 1" uniFB94 dx=110 dy=0 dh=110 dv=0 dx=0 dy=0 dh=0 dv=0
PairPos2: "'kern' Horizontal Kerning in Arabic lookup 2 per glyph data 1" afii57509 dx=110 dy=0 dh=110 dv=0 dx=0 dy=0 dh=0 dv=0
PairPos2: "'kern' Horizontal Kerning in Arabic lookup 2 per glyph data 1" uniFB90 dx=110 dy=0 dh=110 dv=0 dx=0 dy=0 dh=0 dv=0
PairPos2: "'kern' Horizontal Kerning in Arabic lookup 2 per glyph data 1" uni06A9 dx=110 dy=0 dh=110 dv=0 dx=0 dy=0 dh=0 dv=0
PairPos2: "'kern' Horizontal Kerning in Arabic lookup 2 per glyph data 1" uniFEDB dx=110 dy=0 dh=110 dv=0 dx=0 dy=0 dh=0 dv=0
EndChar

StartChar: w
Encoding: 89 119 54
Width: 687
GlyphClass: 2
Flags: W
AnchorPoint: "Anchor-8" 0 0 basechar 0
AnchorPoint: "Anchor-7" 0 0 basechar 0
AnchorPoint: "Anchor-6" 349 450 basechar 0
AnchorPoint: "Anchor-5" 0 0 basechar 0
AnchorPoint: "Anchor-4" 348 0 basechar 0
LayerCount: 2
Fore
SplineSet
683 450 m 1,0,-1
 683 443 l 1,1,-1
 554 0 l 1,2,-1
 428 0 l 1,3,-1
 365 219 l 2,4,5
 351 270 351 270 346 301 c 1,6,7
 342 265 342 265 329 219 c 2,8,-1
 270 -2 l 1,9,-1
 140 -2 l 1,10,-1
 4 443 l 1,11,-1
 4 450 l 1,12,-1
 151 450 l 1,13,-1
 199 239 l 2,14,15
 208 197 208 197 212 156 c 1,16,17
 220 201 220 201 229 238 c 2,18,-1
 284 450 l 1,19,-1
 414 450 l 1,20,-1
 470 244 l 2,21,22
 481 197 481 197 488 158 c 1,23,24
 492 200 492 200 501 244 c 2,25,-1
 542 450 l 1,26,-1
 683 450 l 1,0,-1
EndSplineSet
PairPos2: "'kern' Horizontal Kerning in Arabic lookup 2 per glyph data 2" uni0671 dx=60 dy=0 dh=60 dv=0 dx=0 dy=0 dh=0 dv=0
PairPos2: "'kern' Horizontal Kerning in Arabic lookup 2 per glyph data 2" afii57410 dx=60 dy=0 dh=60 dv=0 dx=0 dy=0 dh=0 dv=0
PairPos2: "'kern' Horizontal Kerning in Arabic lookup 2 per glyph data 2" afii57411 dx=60 dy=0 dh=60 dv=0 dx=0 dy=0 dh=0 dv=0
PairPos2: "'kern' Horizontal Kerning in Arabic lookup 2 per glyph data 2" uniFE8E.short dx=60 dy=0 dh=60 dv=0 dx=0 dy=0 dh=0 dv=0
PairPos2: "'kern' Horizontal Kerning in Arabic lookup 2 per glyph data 2" afii57415.short dx=60 dy=0 dh=60 dv=0 dx=0 dy=0 dh=0 dv=0
PairPos2: "'kern' Horizontal Kerning in Arabic lookup 2 per glyph data 2" afii57415 dx=60 dy=0 dh=60 dv=0 dx=0 dy=0 dh=0 dv=0
PairPos2: "'kern' Horizontal Kerning in Arabic lookup 2 per glyph data 1" uniFEF3 dx=40 dy=0 dh=40 dv=0 dx=0 dy=0 dh=0 dv=0
PairPos2: "'kern' Horizontal Kerning in Arabic lookup 2 per glyph data 1" uniFB58 dx=40 dy=0 dh=40 dv=0 dx=0 dy=0 dh=0 dv=0
PairPos2: "'kern' Horizontal Kerning in Arabic lookup 2 per glyph data 1" afii57413 dx=40 dy=0 dh=40 dv=0 dx=0 dy=0 dh=0 dv=0
PairPos2: "'kern' Horizontal Kerning in Arabic lookup 2 per glyph data 1" uniFB94 dx=110 dy=0 dh=110 dv=0 dx=0 dy=0 dh=0 dv=0
PairPos2: "'kern' Horizontal Kerning in Arabic lookup 2 per glyph data 1" afii57509 dx=110 dy=0 dh=110 dv=0 dx=0 dy=0 dh=0 dv=0
PairPos2: "'kern' Horizontal Kerning in Arabic lookup 2 per glyph data 1" uniFB90 dx=110 dy=0 dh=110 dv=0 dx=0 dy=0 dh=0 dv=0
PairPos2: "'kern' Horizontal Kerning in Arabic lookup 2 per glyph data 1" uni06A9 dx=110 dy=0 dh=110 dv=0 dx=0 dy=0 dh=0 dv=0
PairPos2: "'kern' Horizontal Kerning in Arabic lookup 2 per glyph data 1" uniFEDB dx=110 dy=0 dh=110 dv=0 dx=0 dy=0 dh=0 dv=0
EndChar

StartChar: x
Encoding: 90 120 55
Width: 501
GlyphClass: 2
Flags: W
AnchorPoint: "Anchor-8" 0 0 basechar 0
AnchorPoint: "Anchor-7" 0 0 basechar 0
AnchorPoint: "Anchor-6" 259 450 basechar 0
AnchorPoint: "Anchor-5" 0 0 basechar 0
AnchorPoint: "Anchor-4" 251 0 basechar 0
LayerCount: 2
Fore
SplineSet
339 235 m 1,0,-1
 491 8 l 1,1,-1
 491 0 l 1,2,-1
 331 0 l 1,3,-1
 249 146 l 1,4,-1
 157 0 l 1,5,-1
 11 0 l 1,6,-1
 11 8 l 1,7,-1
 167 232 l 1,8,-1
 22 443 l 1,9,-1
 22 450 l 1,10,-1
 180 450 l 1,11,-1
 258 318 l 1,12,-1
 336 450 l 1,13,-1
 477 450 l 1,14,-1
 477 443 l 1,15,-1
 339 235 l 1,0,-1
EndSplineSet
PairPos2: "'kern' Horizontal Kerning in Arabic lookup 2 per glyph data 2" uni0671 dx=60 dy=0 dh=60 dv=0 dx=0 dy=0 dh=0 dv=0
PairPos2: "'kern' Horizontal Kerning in Arabic lookup 2 per glyph data 2" afii57410 dx=60 dy=0 dh=60 dv=0 dx=0 dy=0 dh=0 dv=0
PairPos2: "'kern' Horizontal Kerning in Arabic lookup 2 per glyph data 2" afii57411 dx=60 dy=0 dh=60 dv=0 dx=0 dy=0 dh=0 dv=0
PairPos2: "'kern' Horizontal Kerning in Arabic lookup 2 per glyph data 2" uniFE8E.short dx=60 dy=0 dh=60 dv=0 dx=0 dy=0 dh=0 dv=0
PairPos2: "'kern' Horizontal Kerning in Arabic lookup 2 per glyph data 2" afii57415.short dx=60 dy=0 dh=60 dv=0 dx=0 dy=0 dh=0 dv=0
PairPos2: "'kern' Horizontal Kerning in Arabic lookup 2 per glyph data 2" afii57415 dx=60 dy=0 dh=60 dv=0 dx=0 dy=0 dh=0 dv=0
PairPos2: "'kern' Horizontal Kerning in Arabic lookup 2 per glyph data 1" uniFEF3 dx=40 dy=0 dh=40 dv=0 dx=0 dy=0 dh=0 dv=0
PairPos2: "'kern' Horizontal Kerning in Arabic lookup 2 per glyph data 1" uniFB58 dx=40 dy=0 dh=40 dv=0 dx=0 dy=0 dh=0 dv=0
PairPos2: "'kern' Horizontal Kerning in Arabic lookup 2 per glyph data 1" afii57413 dx=40 dy=0 dh=40 dv=0 dx=0 dy=0 dh=0 dv=0
PairPos2: "'kern' Horizontal Kerning in Arabic lookup 2 per glyph data 1" uniFB94 dx=110 dy=0 dh=110 dv=0 dx=0 dy=0 dh=0 dv=0
PairPos2: "'kern' Horizontal Kerning in Arabic lookup 2 per glyph data 1" afii57509 dx=110 dy=0 dh=110 dv=0 dx=0 dy=0 dh=0 dv=0
PairPos2: "'kern' Horizontal Kerning in Arabic lookup 2 per glyph data 1" uniFB90 dx=110 dy=0 dh=110 dv=0 dx=0 dy=0 dh=0 dv=0
PairPos2: "'kern' Horizontal Kerning in Arabic lookup 2 per glyph data 1" uni06A9 dx=110 dy=0 dh=110 dv=0 dx=0 dy=0 dh=0 dv=0
PairPos2: "'kern' Horizontal Kerning in Arabic lookup 2 per glyph data 1" uniFEDB dx=110 dy=0 dh=110 dv=0 dx=0 dy=0 dh=0 dv=0
EndChar

StartChar: y
Encoding: 91 121 56
Width: 472
GlyphClass: 2
Flags: W
AnchorPoint: "Anchor-8" 0 0 basechar 0
AnchorPoint: "Anchor-7" 0 0 basechar 0
AnchorPoint: "Anchor-6" 235 450 basechar 0
AnchorPoint: "Anchor-5" 0 0 basechar 0
AnchorPoint: "Anchor-4" 98 -186 basechar 0
LayerCount: 2
Fore
SplineSet
472 450 m 1,0,-1
 472 443 l 1,1,-1
 335 17 l 2,2,3
 310 -61 310 -61 278.5 -108 c 128,-1,4
 247 -155 247 -155 203.5 -177.5 c 128,-1,5
 160 -200 160 -200 98 -200 c 0,6,7
 44 -200 44 -200 -2 -182 c 1,8,-1
 32 -87 l 1,9,10
 59 -97 59 -97 88 -97 c 0,11,12
 112 -97 112 -97 131 -90.5 c 128,-1,13
 150 -84 150 -84 168 -62.5 c 128,-1,14
 186 -41 186 -41 202 0 c 1,15,-1
 166 0 l 1,16,-1
 -2 443 l 1,17,-1
 -2 450 l 1,18,-1
 140 450 l 1,19,-1
 220 209 l 2,20,21
 229 182 229 182 242 128 c 1,22,23
 251 168 251 168 263 207 c 2,24,-1
 331 450 l 1,25,-1
 472 450 l 1,0,-1
EndSplineSet
PairPos2: "'kern' Horizontal Kerning in Arabic lookup 2 per glyph data 2" uni0671 dx=60 dy=0 dh=60 dv=0 dx=0 dy=0 dh=0 dv=0
PairPos2: "'kern' Horizontal Kerning in Arabic lookup 2 per glyph data 2" afii57410 dx=60 dy=0 dh=60 dv=0 dx=0 dy=0 dh=0 dv=0
PairPos2: "'kern' Horizontal Kerning in Arabic lookup 2 per glyph data 2" afii57411 dx=60 dy=0 dh=60 dv=0 dx=0 dy=0 dh=0 dv=0
PairPos2: "'kern' Horizontal Kerning in Arabic lookup 2 per glyph data 2" uniFE8E.short dx=60 dy=0 dh=60 dv=0 dx=0 dy=0 dh=0 dv=0
PairPos2: "'kern' Horizontal Kerning in Arabic lookup 2 per glyph data 2" afii57415.short dx=60 dy=0 dh=60 dv=0 dx=0 dy=0 dh=0 dv=0
PairPos2: "'kern' Horizontal Kerning in Arabic lookup 2 per glyph data 2" afii57415 dx=60 dy=0 dh=60 dv=0 dx=0 dy=0 dh=0 dv=0
PairPos2: "'kern' Horizontal Kerning in Arabic lookup 2 per glyph data 1" uniFEF3 dx=40 dy=0 dh=40 dv=0 dx=0 dy=0 dh=0 dv=0
PairPos2: "'kern' Horizontal Kerning in Arabic lookup 2 per glyph data 1" uniFB58 dx=40 dy=0 dh=40 dv=0 dx=0 dy=0 dh=0 dv=0
PairPos2: "'kern' Horizontal Kerning in Arabic lookup 2 per glyph data 1" afii57413 dx=40 dy=0 dh=40 dv=0 dx=0 dy=0 dh=0 dv=0
PairPos2: "'kern' Horizontal Kerning in Arabic lookup 2 per glyph data 1" uniFB94 dx=110 dy=0 dh=110 dv=0 dx=0 dy=0 dh=0 dv=0
PairPos2: "'kern' Horizontal Kerning in Arabic lookup 2 per glyph data 1" afii57509 dx=110 dy=0 dh=110 dv=0 dx=0 dy=0 dh=0 dv=0
PairPos2: "'kern' Horizontal Kerning in Arabic lookup 2 per glyph data 1" uniFB90 dx=110 dy=0 dh=110 dv=0 dx=0 dy=0 dh=0 dv=0
PairPos2: "'kern' Horizontal Kerning in Arabic lookup 2 per glyph data 1" uni06A9 dx=110 dy=0 dh=110 dv=0 dx=0 dy=0 dh=0 dv=0
PairPos2: "'kern' Horizontal Kerning in Arabic lookup 2 per glyph data 1" uniFEDB dx=110 dy=0 dh=110 dv=0 dx=0 dy=0 dh=0 dv=0
EndChar

StartChar: z
Encoding: 92 122 57
Width: 444
GlyphClass: 2
Flags: W
AnchorPoint: "Anchor-8" 0 0 basechar 0
AnchorPoint: "Anchor-7" 0 0 basechar 0
AnchorPoint: "Anchor-6" 229 450 basechar 0
AnchorPoint: "Anchor-5" 0 0 basechar 0
AnchorPoint: "Anchor-4" 222 0 basechar 0
LayerCount: 2
Fore
SplineSet
420 450 m 1,0,-1
 420 390 l 1,1,-1
 210 113 l 1,2,-1
 417 113 l 1,3,-1
 417 0 l 1,4,-1
 18 0 l 1,5,-1
 18 62 l 1,6,-1
 230 337 l 1,7,-1
 33 337 l 1,8,-1
 48 450 l 1,9,-1
 420 450 l 1,0,-1
EndSplineSet
PairPos2: "'kern' Horizontal Kerning in Arabic lookup 2 per glyph data 2" uni0671 dx=60 dy=0 dh=60 dv=0 dx=0 dy=0 dh=0 dv=0
PairPos2: "'kern' Horizontal Kerning in Arabic lookup 2 per glyph data 2" afii57410 dx=60 dy=0 dh=60 dv=0 dx=0 dy=0 dh=0 dv=0
PairPos2: "'kern' Horizontal Kerning in Arabic lookup 2 per glyph data 2" afii57411 dx=60 dy=0 dh=60 dv=0 dx=0 dy=0 dh=0 dv=0
PairPos2: "'kern' Horizontal Kerning in Arabic lookup 2 per glyph data 2" uniFE8E.short dx=60 dy=0 dh=60 dv=0 dx=0 dy=0 dh=0 dv=0
PairPos2: "'kern' Horizontal Kerning in Arabic lookup 2 per glyph data 2" afii57415.short dx=60 dy=0 dh=60 dv=0 dx=0 dy=0 dh=0 dv=0
PairPos2: "'kern' Horizontal Kerning in Arabic lookup 2 per glyph data 2" afii57415 dx=60 dy=0 dh=60 dv=0 dx=0 dy=0 dh=0 dv=0
PairPos2: "'kern' Horizontal Kerning in Arabic lookup 2 per glyph data 1" uniFEF3 dx=40 dy=0 dh=40 dv=0 dx=0 dy=0 dh=0 dv=0
PairPos2: "'kern' Horizontal Kerning in Arabic lookup 2 per glyph data 1" uniFB58 dx=40 dy=0 dh=40 dv=0 dx=0 dy=0 dh=0 dv=0
PairPos2: "'kern' Horizontal Kerning in Arabic lookup 2 per glyph data 1" afii57413 dx=40 dy=0 dh=40 dv=0 dx=0 dy=0 dh=0 dv=0
PairPos2: "'kern' Horizontal Kerning in Arabic lookup 2 per glyph data 1" uniFB94 dx=110 dy=0 dh=110 dv=0 dx=0 dy=0 dh=0 dv=0
PairPos2: "'kern' Horizontal Kerning in Arabic lookup 2 per glyph data 1" afii57509 dx=110 dy=0 dh=110 dv=0 dx=0 dy=0 dh=0 dv=0
PairPos2: "'kern' Horizontal Kerning in Arabic lookup 2 per glyph data 1" uniFB90 dx=110 dy=0 dh=110 dv=0 dx=0 dy=0 dh=0 dv=0
PairPos2: "'kern' Horizontal Kerning in Arabic lookup 2 per glyph data 1" uni06A9 dx=110 dy=0 dh=110 dv=0 dx=0 dy=0 dh=0 dv=0
PairPos2: "'kern' Horizontal Kerning in Arabic lookup 2 per glyph data 1" uniFEDB dx=110 dy=0 dh=110 dv=0 dx=0 dy=0 dh=0 dv=0
EndChar

StartChar: uniFB01
Encoding: 385 64257 58
Width: 596
GlyphClass: 1
LigCaretCntFixed: 1
Flags: W
LayerCount: 2
Fore
SplineSet
232.5 563 m 128,-1,1
 216 545 216 545 216 511 c 2,2,-1
 216 450 l 1,3,-1
 331 450 l 1,4,-1
 316 343 l 1,5,-1
 216 343 l 1,6,-1
 216 0 l 1,7,-1
 80 0 l 1,8,-1
 80 343 l 1,9,-1
 14 343 l 1,10,-1
 14 450 l 1,11,-1
 80 450 l 1,12,-1
 80 508 l 2,13,14
 80 562 80 562 101 604.5 c 128,-1,15
 122 647 122 647 162.5 671 c 128,-1,16
 203 695 203 695 261 695 c 0,17,18
 288 695 288 695 310.5 691 c 128,-1,19
 333 687 333 687 357 679 c 1,20,-1
 321 572 l 1,21,22
 302 581 302 581 277 581 c 0,23,0
 249 581 249 581 232.5 563 c 128,-1,1
423 528.5 m 128,-1,25
 403 540 403 540 391 559 c 128,-1,26
 379 578 379 578 379 601 c 256,27,28
 379 624 379 624 391 643.5 c 128,-1,29
 403 663 403 663 423 674.5 c 128,-1,30
 443 686 443 686 466 686 c 0,31,32
 490 686 490 686 510.5 674.5 c 128,-1,33
 531 663 531 663 543 643.5 c 128,-1,34
 555 624 555 624 555 601 c 256,35,36
 555 578 555 578 543 559 c 128,-1,37
 531 540 531 540 510.5 528.5 c 128,-1,38
 490 517 490 517 466 517 c 0,39,24
 443 517 443 517 423 528.5 c 128,-1,25
400 0 m 1,40,-1
 400 447 l 1,41,-1
 536 460 l 1,42,-1
 536 0 l 1,43,-1
 400 0 l 1,40,-1
EndSplineSet
Ligature2: "'liga' Standard Ligatures in Arabic lookup 20 subtable" f i
PairPos2: "'kern' Horizontal Kerning in Arabic lookup 2 per glyph data 2" uni0671 dx=60 dy=0 dh=60 dv=0 dx=0 dy=0 dh=0 dv=0
PairPos2: "'kern' Horizontal Kerning in Arabic lookup 2 per glyph data 2" afii57410 dx=60 dy=0 dh=60 dv=0 dx=0 dy=0 dh=0 dv=0
PairPos2: "'kern' Horizontal Kerning in Arabic lookup 2 per glyph data 2" afii57411 dx=60 dy=0 dh=60 dv=0 dx=0 dy=0 dh=0 dv=0
PairPos2: "'kern' Horizontal Kerning in Arabic lookup 2 per glyph data 2" uniFE8E.short dx=60 dy=0 dh=60 dv=0 dx=0 dy=0 dh=0 dv=0
PairPos2: "'kern' Horizontal Kerning in Arabic lookup 2 per glyph data 2" afii57415.short dx=60 dy=0 dh=60 dv=0 dx=0 dy=0 dh=0 dv=0
PairPos2: "'kern' Horizontal Kerning in Arabic lookup 2 per glyph data 2" afii57415 dx=60 dy=0 dh=60 dv=0 dx=0 dy=0 dh=0 dv=0
PairPos2: "'kern' Horizontal Kerning in Arabic lookup 2 per glyph data 1" uniFEF3 dx=40 dy=0 dh=40 dv=0 dx=0 dy=0 dh=0 dv=0
PairPos2: "'kern' Horizontal Kerning in Arabic lookup 2 per glyph data 1" uniFB58 dx=40 dy=0 dh=40 dv=0 dx=0 dy=0 dh=0 dv=0
PairPos2: "'kern' Horizontal Kerning in Arabic lookup 2 per glyph data 1" afii57413 dx=40 dy=0 dh=40 dv=0 dx=0 dy=0 dh=0 dv=0
PairPos2: "'kern' Horizontal Kerning in Arabic lookup 2 per glyph data 1" uniFB94 dx=110 dy=0 dh=110 dv=0 dx=0 dy=0 dh=0 dv=0
PairPos2: "'kern' Horizontal Kerning in Arabic lookup 2 per glyph data 1" afii57509 dx=110 dy=0 dh=110 dv=0 dx=0 dy=0 dh=0 dv=0
PairPos2: "'kern' Horizontal Kerning in Arabic lookup 2 per glyph data 1" uniFB90 dx=110 dy=0 dh=110 dv=0 dx=0 dy=0 dh=0 dv=0
PairPos2: "'kern' Horizontal Kerning in Arabic lookup 2 per glyph data 1" uni06A9 dx=110 dy=0 dh=110 dv=0 dx=0 dy=0 dh=0 dv=0
PairPos2: "'kern' Horizontal Kerning in Arabic lookup 2 per glyph data 1" uniFEDB dx=110 dy=0 dh=110 dv=0 dx=0 dy=0 dh=0 dv=0
LCarets2: 1 293
EndChar

StartChar: uniFB02
Encoding: 386 64258 59
Width: 596
GlyphClass: 1
LigCaretCntFixed: 1
Flags: W
LayerCount: 2
Fore
SplineSet
400 688 m 1,0,-1
 536 701 l 1,1,-1
 536 0 l 1,2,-1
 400 0 l 1,3,-1
 400 688 l 1,0,-1
101 604.5 m 128,-1,5
 122 647 122 647 162.5 671 c 128,-1,6
 203 695 203 695 261 695 c 0,7,8
 288 695 288 695 310.5 691 c 128,-1,9
 333 687 333 687 357 679 c 1,10,-1
 321 572 l 1,11,12
 302 581 302 581 277 581 c 0,13,14
 249 581 249 581 232.5 563 c 128,-1,15
 216 545 216 545 216 511 c 2,16,-1
 216 450 l 1,17,-1
 319 450 l 1,18,-1
 304 343 l 1,19,-1
 216 343 l 1,20,-1
 216 0 l 1,21,-1
 80 0 l 1,22,-1
 80 343 l 1,23,-1
 14 343 l 1,24,-1
 14 450 l 1,25,-1
 80 450 l 1,26,-1
 80 508 l 2,27,4
 80 562 80 562 101 604.5 c 128,-1,5
EndSplineSet
Ligature2: "'liga' Standard Ligatures in Arabic lookup 20 subtable" f l
PairPos2: "'kern' Horizontal Kerning in Arabic lookup 2 per glyph data 2" uni0671 dx=60 dy=0 dh=60 dv=0 dx=0 dy=0 dh=0 dv=0
PairPos2: "'kern' Horizontal Kerning in Arabic lookup 2 per glyph data 2" afii57410 dx=60 dy=0 dh=60 dv=0 dx=0 dy=0 dh=0 dv=0
PairPos2: "'kern' Horizontal Kerning in Arabic lookup 2 per glyph data 2" afii57411 dx=60 dy=0 dh=60 dv=0 dx=0 dy=0 dh=0 dv=0
PairPos2: "'kern' Horizontal Kerning in Arabic lookup 2 per glyph data 2" uniFE8E.short dx=60 dy=0 dh=60 dv=0 dx=0 dy=0 dh=0 dv=0
PairPos2: "'kern' Horizontal Kerning in Arabic lookup 2 per glyph data 2" afii57415.short dx=60 dy=0 dh=60 dv=0 dx=0 dy=0 dh=0 dv=0
PairPos2: "'kern' Horizontal Kerning in Arabic lookup 2 per glyph data 2" afii57415 dx=60 dy=0 dh=60 dv=0 dx=0 dy=0 dh=0 dv=0
PairPos2: "'kern' Horizontal Kerning in Arabic lookup 2 per glyph data 1" uniFEF3 dx=40 dy=0 dh=40 dv=0 dx=0 dy=0 dh=0 dv=0
PairPos2: "'kern' Horizontal Kerning in Arabic lookup 2 per glyph data 1" uniFB58 dx=40 dy=0 dh=40 dv=0 dx=0 dy=0 dh=0 dv=0
PairPos2: "'kern' Horizontal Kerning in Arabic lookup 2 per glyph data 1" afii57413 dx=40 dy=0 dh=40 dv=0 dx=0 dy=0 dh=0 dv=0
PairPos2: "'kern' Horizontal Kerning in Arabic lookup 2 per glyph data 1" uniFB94 dx=110 dy=0 dh=110 dv=0 dx=0 dy=0 dh=0 dv=0
PairPos2: "'kern' Horizontal Kerning in Arabic lookup 2 per glyph data 1" afii57509 dx=110 dy=0 dh=110 dv=0 dx=0 dy=0 dh=0 dv=0
PairPos2: "'kern' Horizontal Kerning in Arabic lookup 2 per glyph data 1" uniFB90 dx=110 dy=0 dh=110 dv=0 dx=0 dy=0 dh=0 dv=0
PairPos2: "'kern' Horizontal Kerning in Arabic lookup 2 per glyph data 1" uni06A9 dx=110 dy=0 dh=110 dv=0 dx=0 dy=0 dh=0 dv=0
PairPos2: "'kern' Horizontal Kerning in Arabic lookup 2 per glyph data 1" uniFEDB dx=110 dy=0 dh=110 dv=0 dx=0 dy=0 dh=0 dv=0
LCarets2: 1 302
EndChar

StartChar: ordfeminine
Encoding: 107 170 60
Width: 402
GlyphClass: 1
Flags: W
LayerCount: 2
Fore
SplineSet
325.5 632 m 128,-1,1
 364 602 364 602 364 540 c 2,2,-1
 364 282 l 1,3,-1
 272 282 l 1,4,-1
 262 309 l 1,5,6
 232 288 232 288 202.5 279 c 128,-1,7
 173 270 173 270 139 270 c 256,8,9
 105 270 105 270 78.5 283.5 c 128,-1,10
 52 297 52 297 37.5 321.5 c 128,-1,11
 23 346 23 346 23 379 c 0,12,13
 23 422 23 422 53 452 c 128,-1,14
 83 482 83 482 134.5 498 c 128,-1,15
 186 514 186 514 252 517 c 1,16,-1
 252 531 l 2,17,18
 252 557 252 557 240.5 568.5 c 128,-1,19
 229 580 229 580 200 580 c 0,20,21
 175 580 175 580 143.5 569 c 128,-1,22
 112 558 112 558 81 538 c 1,23,-1
 37 603 l 1,24,25
 123 662 123 662 218 662 c 0,26,0
 287 662 287 662 325.5 632 c 128,-1,1
150 364.5 m 128,-1,28
 162 357 162 357 181 357 c 0,29,30
 198 357 198 357 214 361 c 128,-1,31
 230 365 230 365 252 376 c 1,32,-1
 252 443 l 1,33,34
 191 440 191 440 164.5 425 c 128,-1,35
 138 410 138 410 138 387 c 0,36,27
 138 372 138 372 150 364.5 c 128,-1,28
EndSplineSet
PairPos2: "'kern' Horizontal Kerning in Arabic lookup 2 per glyph data 2" uni0671 dx=60 dy=0 dh=60 dv=0 dx=0 dy=0 dh=0 dv=0
PairPos2: "'kern' Horizontal Kerning in Arabic lookup 2 per glyph data 2" afii57410 dx=60 dy=0 dh=60 dv=0 dx=0 dy=0 dh=0 dv=0
PairPos2: "'kern' Horizontal Kerning in Arabic lookup 2 per glyph data 2" afii57411 dx=60 dy=0 dh=60 dv=0 dx=0 dy=0 dh=0 dv=0
PairPos2: "'kern' Horizontal Kerning in Arabic lookup 2 per glyph data 2" uniFE8E.short dx=60 dy=0 dh=60 dv=0 dx=0 dy=0 dh=0 dv=0
PairPos2: "'kern' Horizontal Kerning in Arabic lookup 2 per glyph data 2" afii57415.short dx=60 dy=0 dh=60 dv=0 dx=0 dy=0 dh=0 dv=0
PairPos2: "'kern' Horizontal Kerning in Arabic lookup 2 per glyph data 2" afii57415 dx=60 dy=0 dh=60 dv=0 dx=0 dy=0 dh=0 dv=0
PairPos2: "'kern' Horizontal Kerning in Arabic lookup 2 per glyph data 1" uniFEF3 dx=40 dy=0 dh=40 dv=0 dx=0 dy=0 dh=0 dv=0
PairPos2: "'kern' Horizontal Kerning in Arabic lookup 2 per glyph data 1" uniFB58 dx=40 dy=0 dh=40 dv=0 dx=0 dy=0 dh=0 dv=0
PairPos2: "'kern' Horizontal Kerning in Arabic lookup 2 per glyph data 1" afii57413 dx=40 dy=0 dh=40 dv=0 dx=0 dy=0 dh=0 dv=0
PairPos2: "'kern' Horizontal Kerning in Arabic lookup 2 per glyph data 1" uniFB94 dx=110 dy=0 dh=110 dv=0 dx=0 dy=0 dh=0 dv=0
PairPos2: "'kern' Horizontal Kerning in Arabic lookup 2 per glyph data 1" afii57509 dx=110 dy=0 dh=110 dv=0 dx=0 dy=0 dh=0 dv=0
PairPos2: "'kern' Horizontal Kerning in Arabic lookup 2 per glyph data 1" uniFB90 dx=110 dy=0 dh=110 dv=0 dx=0 dy=0 dh=0 dv=0
PairPos2: "'kern' Horizontal Kerning in Arabic lookup 2 per glyph data 1" uni06A9 dx=110 dy=0 dh=110 dv=0 dx=0 dy=0 dh=0 dv=0
PairPos2: "'kern' Horizontal Kerning in Arabic lookup 2 per glyph data 1" uniFEDB dx=110 dy=0 dh=110 dv=0 dx=0 dy=0 dh=0 dv=0
EndChar

StartChar: ordmasculine
Encoding: 123 186 61
Width: 436
GlyphClass: 1
Flags: W
LayerCount: 2
Fore
SplineSet
109.5 296.5 m 128,-1,1
 68 323 68 323 47.5 368 c 128,-1,2
 27 413 27 413 27 467 c 0,3,4
 27 534 27 534 53.5 577.5 c 128,-1,5
 80 621 80 621 124.5 641.5 c 128,-1,6
 169 662 169 662 224 662 c 0,7,8
 284 662 284 662 326 636 c 128,-1,9
 368 610 368 610 389 565.5 c 128,-1,10
 410 521 410 521 410 466 c 0,11,12
 410 400 410 400 382.5 356 c 128,-1,13
 355 312 355 312 310 291 c 128,-1,14
 265 270 265 270 211 270 c 0,15,0
 151 270 151 270 109.5 296.5 c 128,-1,1
277 385.5 m 128,-1,17
 294 415 294 415 294 467 c 0,18,19
 294 517 294 517 276 546.5 c 128,-1,20
 258 576 258 576 220 576 c 0,21,22
 180 576 180 576 161.5 546.5 c 128,-1,23
 143 517 143 517 143 467 c 0,24,25
 143 416 143 416 161 386 c 128,-1,26
 179 356 179 356 218 356 c 0,27,16
 260 356 260 356 277 385.5 c 128,-1,17
EndSplineSet
PairPos2: "'kern' Horizontal Kerning in Arabic lookup 2 per glyph data 2" uni0671 dx=60 dy=0 dh=60 dv=0 dx=0 dy=0 dh=0 dv=0
PairPos2: "'kern' Horizontal Kerning in Arabic lookup 2 per glyph data 2" afii57410 dx=60 dy=0 dh=60 dv=0 dx=0 dy=0 dh=0 dv=0
PairPos2: "'kern' Horizontal Kerning in Arabic lookup 2 per glyph data 2" afii57411 dx=60 dy=0 dh=60 dv=0 dx=0 dy=0 dh=0 dv=0
PairPos2: "'kern' Horizontal Kerning in Arabic lookup 2 per glyph data 2" uniFE8E.short dx=60 dy=0 dh=60 dv=0 dx=0 dy=0 dh=0 dv=0
PairPos2: "'kern' Horizontal Kerning in Arabic lookup 2 per glyph data 2" afii57415.short dx=60 dy=0 dh=60 dv=0 dx=0 dy=0 dh=0 dv=0
PairPos2: "'kern' Horizontal Kerning in Arabic lookup 2 per glyph data 2" afii57415 dx=60 dy=0 dh=60 dv=0 dx=0 dy=0 dh=0 dv=0
PairPos2: "'kern' Horizontal Kerning in Arabic lookup 2 per glyph data 1" uniFEF3 dx=40 dy=0 dh=40 dv=0 dx=0 dy=0 dh=0 dv=0
PairPos2: "'kern' Horizontal Kerning in Arabic lookup 2 per glyph data 1" uniFB58 dx=40 dy=0 dh=40 dv=0 dx=0 dy=0 dh=0 dv=0
PairPos2: "'kern' Horizontal Kerning in Arabic lookup 2 per glyph data 1" afii57413 dx=40 dy=0 dh=40 dv=0 dx=0 dy=0 dh=0 dv=0
PairPos2: "'kern' Horizontal Kerning in Arabic lookup 2 per glyph data 1" uniFB94 dx=110 dy=0 dh=110 dv=0 dx=0 dy=0 dh=0 dv=0
PairPos2: "'kern' Horizontal Kerning in Arabic lookup 2 per glyph data 1" afii57509 dx=110 dy=0 dh=110 dv=0 dx=0 dy=0 dh=0 dv=0
PairPos2: "'kern' Horizontal Kerning in Arabic lookup 2 per glyph data 1" uniFB90 dx=110 dy=0 dh=110 dv=0 dx=0 dy=0 dh=0 dv=0
PairPos2: "'kern' Horizontal Kerning in Arabic lookup 2 per glyph data 1" uni06A9 dx=110 dy=0 dh=110 dv=0 dx=0 dy=0 dh=0 dv=0
PairPos2: "'kern' Horizontal Kerning in Arabic lookup 2 per glyph data 1" uniFEDB dx=110 dy=0 dh=110 dv=0 dx=0 dy=0 dh=0 dv=0
EndChar

StartChar: pi
Encoding: 236 960 62
Width: 546
GlyphClass: 1
Flags: W
LayerCount: 2
Fore
SplineSet
536 450 m 1,0,-1
 522 343 l 1,1,-1
 479 343 l 1,2,-1
 479 0 l 1,3,-1
 343 0 l 1,4,-1
 343 343 l 1,5,-1
 209 343 l 1,6,-1
 209 0 l 1,7,-1
 73 0 l 1,8,-1
 73 343 l 1,9,-1
 19 343 l 1,10,-1
 19 450 l 1,11,-1
 536 450 l 1,0,-1
EndSplineSet
PairPos2: "'kern' Horizontal Kerning in Arabic lookup 2 per glyph data 2" uni0671 dx=60 dy=0 dh=60 dv=0 dx=0 dy=0 dh=0 dv=0
PairPos2: "'kern' Horizontal Kerning in Arabic lookup 2 per glyph data 2" afii57410 dx=60 dy=0 dh=60 dv=0 dx=0 dy=0 dh=0 dv=0
PairPos2: "'kern' Horizontal Kerning in Arabic lookup 2 per glyph data 2" afii57411 dx=60 dy=0 dh=60 dv=0 dx=0 dy=0 dh=0 dv=0
PairPos2: "'kern' Horizontal Kerning in Arabic lookup 2 per glyph data 2" uniFE8E.short dx=60 dy=0 dh=60 dv=0 dx=0 dy=0 dh=0 dv=0
PairPos2: "'kern' Horizontal Kerning in Arabic lookup 2 per glyph data 2" afii57415.short dx=60 dy=0 dh=60 dv=0 dx=0 dy=0 dh=0 dv=0
PairPos2: "'kern' Horizontal Kerning in Arabic lookup 2 per glyph data 2" afii57415 dx=60 dy=0 dh=60 dv=0 dx=0 dy=0 dh=0 dv=0
PairPos2: "'kern' Horizontal Kerning in Arabic lookup 2 per glyph data 1" uniFEF3 dx=40 dy=0 dh=40 dv=0 dx=0 dy=0 dh=0 dv=0
PairPos2: "'kern' Horizontal Kerning in Arabic lookup 2 per glyph data 1" uniFB58 dx=40 dy=0 dh=40 dv=0 dx=0 dy=0 dh=0 dv=0
PairPos2: "'kern' Horizontal Kerning in Arabic lookup 2 per glyph data 1" afii57413 dx=40 dy=0 dh=40 dv=0 dx=0 dy=0 dh=0 dv=0
PairPos2: "'kern' Horizontal Kerning in Arabic lookup 2 per glyph data 1" uniFB94 dx=110 dy=0 dh=110 dv=0 dx=0 dy=0 dh=0 dv=0
PairPos2: "'kern' Horizontal Kerning in Arabic lookup 2 per glyph data 1" afii57509 dx=110 dy=0 dh=110 dv=0 dx=0 dy=0 dh=0 dv=0
PairPos2: "'kern' Horizontal Kerning in Arabic lookup 2 per glyph data 1" uniFB90 dx=110 dy=0 dh=110 dv=0 dx=0 dy=0 dh=0 dv=0
PairPos2: "'kern' Horizontal Kerning in Arabic lookup 2 per glyph data 1" uni06A9 dx=110 dy=0 dh=110 dv=0 dx=0 dy=0 dh=0 dv=0
PairPos2: "'kern' Horizontal Kerning in Arabic lookup 2 per glyph data 1" uniFEDB dx=110 dy=0 dh=110 dv=0 dx=0 dy=0 dh=0 dv=0
EndChar

StartChar: afii57409
Encoding: 241 1569 63
Width: 400
GlyphClass: 2
Flags: W
AnchorPoint: "Anchor-11" 0 0 basechar 0
AnchorPoint: "Anchor-10" 221 336 basechar 0
AnchorPoint: "Anchor-9" 200 0 basechar 0
LayerCount: 2
Fore
SplineSet
368 20 m 1,0,1
 269 10 269 10 197 4.5 c 128,-1,2
 125 -1 125 -1 25 -5 c 1,3,-1
 18 95 l 1,4,-1
 98 100 l 1,5,6
 71 140 71 140 71 188 c 0,7,8
 71 229 71 229 89.5 263 c 128,-1,9
 108 297 108 297 142 316.5 c 128,-1,10
 176 336 176 336 221 336 c 0,11,12
 250 336 250 336 280.5 329 c 128,-1,13
 311 322 311 322 335 310 c 1,14,-1
 302 218 l 1,15,16
 262 232 262 232 240 232 c 0,17,18
 211 232 211 232 196 215 c 128,-1,19
 181 198 181 198 181 171 c 0,20,21
 181 140 181 140 206 107 c 1,22,23
 284 112 284 112 359 119 c 1,24,-1
 368 20 l 1,0,1
EndSplineSet
PairPos2: "'kern' Horizontal Kerning in Arabic lookup 2 per glyph data 2" uni0671 dx=60 dy=0 dh=60 dv=0 dx=0 dy=0 dh=0 dv=0
PairPos2: "'kern' Horizontal Kerning in Arabic lookup 2 per glyph data 2" afii57410 dx=60 dy=0 dh=60 dv=0 dx=0 dy=0 dh=0 dv=0
PairPos2: "'kern' Horizontal Kerning in Arabic lookup 2 per glyph data 2" afii57411 dx=60 dy=0 dh=60 dv=0 dx=0 dy=0 dh=0 dv=0
PairPos2: "'kern' Horizontal Kerning in Arabic lookup 2 per glyph data 2" uniFE8E.short dx=60 dy=0 dh=60 dv=0 dx=0 dy=0 dh=0 dv=0
PairPos2: "'kern' Horizontal Kerning in Arabic lookup 2 per glyph data 2" afii57415.short dx=60 dy=0 dh=60 dv=0 dx=0 dy=0 dh=0 dv=0
PairPos2: "'kern' Horizontal Kerning in Arabic lookup 2 per glyph data 2" afii57415 dx=60 dy=0 dh=60 dv=0 dx=0 dy=0 dh=0 dv=0
PairPos2: "'kern' Horizontal Kerning in Arabic lookup 2 per glyph data 1" uniFEF3 dx=40 dy=0 dh=40 dv=0 dx=0 dy=0 dh=0 dv=0
PairPos2: "'kern' Horizontal Kerning in Arabic lookup 2 per glyph data 1" uniFB58 dx=40 dy=0 dh=40 dv=0 dx=0 dy=0 dh=0 dv=0
PairPos2: "'kern' Horizontal Kerning in Arabic lookup 2 per glyph data 1" afii57413 dx=40 dy=0 dh=40 dv=0 dx=0 dy=0 dh=0 dv=0
PairPos2: "'kern' Horizontal Kerning in Arabic lookup 2 per glyph data 1" uniFB94 dx=110 dy=0 dh=110 dv=0 dx=0 dy=0 dh=0 dv=0
PairPos2: "'kern' Horizontal Kerning in Arabic lookup 2 per glyph data 1" afii57509 dx=110 dy=0 dh=110 dv=0 dx=0 dy=0 dh=0 dv=0
PairPos2: "'kern' Horizontal Kerning in Arabic lookup 2 per glyph data 1" uniFB90 dx=110 dy=0 dh=110 dv=0 dx=0 dy=0 dh=0 dv=0
PairPos2: "'kern' Horizontal Kerning in Arabic lookup 2 per glyph data 1" uni06A9 dx=110 dy=0 dh=110 dv=0 dx=0 dy=0 dh=0 dv=0
PairPos2: "'kern' Horizontal Kerning in Arabic lookup 2 per glyph data 1" uniFEDB dx=110 dy=0 dh=110 dv=0 dx=0 dy=0 dh=0 dv=0
EndChar

StartChar: afii57415
Encoding: 247 1575 64
Width: 248
GlyphClass: 2
Flags: W
AnchorPoint: "Anchor-11" 0 0 basechar 0
AnchorPoint: "Anchor-10" 124 619 basechar 0
AnchorPoint: "Anchor-9" 124 0 basechar 0
LayerCount: 2
Fore
SplineSet
69 -7 m 1,0,-1
 61 -1 l 1,1,-1
 61 662 l 1,2,-1
 177 693 l 1,3,-1
 187 687 l 1,4,-1
 184 17 l 1,5,-1
 69 -7 l 1,0,-1
EndSplineSet
Substitution2: "'fina' Terminal Forms in Arabic lookup 18 subtable" uniFE8E
Substitution2: "'aalt' Access All Alternates in Arabic lookup 0 subtable" uniFE8E
PairPos2: "'kern' Horizontal Kerning in Arabic lookup 2 per glyph data 2" uni0671 dx=60 dy=0 dh=60 dv=0 dx=0 dy=0 dh=0 dv=0
PairPos2: "'kern' Horizontal Kerning in Arabic lookup 2 per glyph data 2" afii57410 dx=60 dy=0 dh=60 dv=0 dx=0 dy=0 dh=0 dv=0
PairPos2: "'kern' Horizontal Kerning in Arabic lookup 2 per glyph data 2" afii57411 dx=60 dy=0 dh=60 dv=0 dx=0 dy=0 dh=0 dv=0
PairPos2: "'kern' Horizontal Kerning in Arabic lookup 2 per glyph data 2" uniFE8E.short dx=60 dy=0 dh=60 dv=0 dx=0 dy=0 dh=0 dv=0
PairPos2: "'kern' Horizontal Kerning in Arabic lookup 2 per glyph data 2" afii57415.short dx=60 dy=0 dh=60 dv=0 dx=0 dy=0 dh=0 dv=0
PairPos2: "'kern' Horizontal Kerning in Arabic lookup 2 per glyph data 2" afii57415 dx=60 dy=0 dh=60 dv=0 dx=0 dy=0 dh=0 dv=0
PairPos2: "'kern' Horizontal Kerning in Arabic lookup 2 per glyph data 1" uniFEF3 dx=40 dy=0 dh=40 dv=0 dx=0 dy=0 dh=0 dv=0
PairPos2: "'kern' Horizontal Kerning in Arabic lookup 2 per glyph data 1" uniFB58 dx=40 dy=0 dh=40 dv=0 dx=0 dy=0 dh=0 dv=0
PairPos2: "'kern' Horizontal Kerning in Arabic lookup 2 per glyph data 1" afii57413 dx=40 dy=0 dh=40 dv=0 dx=0 dy=0 dh=0 dv=0
PairPos2: "'kern' Horizontal Kerning in Arabic lookup 2 per glyph data 1" uniFB94 dx=110 dy=0 dh=110 dv=0 dx=0 dy=0 dh=0 dv=0
PairPos2: "'kern' Horizontal Kerning in Arabic lookup 2 per glyph data 1" afii57509 dx=110 dy=0 dh=110 dv=0 dx=0 dy=0 dh=0 dv=0
PairPos2: "'kern' Horizontal Kerning in Arabic lookup 2 per glyph data 1" uniFB90 dx=110 dy=0 dh=110 dv=0 dx=0 dy=0 dh=0 dv=0
PairPos2: "'kern' Horizontal Kerning in Arabic lookup 2 per glyph data 1" uni06A9 dx=110 dy=0 dh=110 dv=0 dx=0 dy=0 dh=0 dv=0
PairPos2: "'kern' Horizontal Kerning in Arabic lookup 2 per glyph data 1" uniFEDB dx=110 dy=0 dh=110 dv=0 dx=0 dy=0 dh=0 dv=0
PairPos2: "'kern' Horizontal Kerning in Arabic lookup 2 per glyph data 0" uniFB94 dx=50 dy=0 dh=50 dv=0 dx=0 dy=0 dh=0 dv=0
PairPos2: "'kern' Horizontal Kerning in Arabic lookup 2 per glyph data 0" uni0671 dx=40 dy=0 dh=40 dv=0 dx=0 dy=0 dh=0 dv=0
PairPos2: "'kern' Horizontal Kerning in Arabic lookup 2 per glyph data 0" afii57410 dx=90 dy=0 dh=90 dv=0 dx=0 dy=0 dh=0 dv=0
PairPos2: "'kern' Horizontal Kerning in Arabic lookup 2 per glyph data 0" afii57411 dx=32 dy=0 dh=32 dv=0 dx=0 dy=0 dh=0 dv=0
EndChar

StartChar: uniFE8E
Encoding: 438 65166 65
Width: 259
GlyphClass: 2
Flags: W
AnchorPoint: "Anchor-11" 0 0 basechar 0
AnchorPoint: "Anchor-10" 124 619 basechar 0
AnchorPoint: "Anchor-9" 127 0 basechar 0
LayerCount: 2
Fore
SplineSet
110 49 m 128,-1,1
 61 98 61 98 61 204 c 2,2,-1
 61 662 l 1,3,-1
 176 693 l 1,4,-1
 186 687 l 1,5,-1
 186 213 l 2,6,7
 186 179 186 179 196 160 c 128,-1,8
 206 141 206 141 227 133 c 128,-1,9
 248 125 248 125 286 125 c 0,10,11
 307 125 307 125 316.5 115 c 128,-1,12
 326 105 326 105 326 85 c 0,13,14
 326 45 326 45 310 22.5 c 128,-1,15
 294 0 294 0 259 0 c 0,16,0
 159 0 159 0 110 49 c 128,-1,1
EndSplineSet
PairPos2: "'kern' Horizontal Kerning in Arabic lookup 2 per glyph data 2" uni0671 dx=60 dy=0 dh=60 dv=0 dx=0 dy=0 dh=0 dv=0
PairPos2: "'kern' Horizontal Kerning in Arabic lookup 2 per glyph data 2" afii57410 dx=60 dy=0 dh=60 dv=0 dx=0 dy=0 dh=0 dv=0
PairPos2: "'kern' Horizontal Kerning in Arabic lookup 2 per glyph data 2" afii57411 dx=60 dy=0 dh=60 dv=0 dx=0 dy=0 dh=0 dv=0
PairPos2: "'kern' Horizontal Kerning in Arabic lookup 2 per glyph data 2" uniFE8E.short dx=60 dy=0 dh=60 dv=0 dx=0 dy=0 dh=0 dv=0
PairPos2: "'kern' Horizontal Kerning in Arabic lookup 2 per glyph data 2" afii57415.short dx=60 dy=0 dh=60 dv=0 dx=0 dy=0 dh=0 dv=0
PairPos2: "'kern' Horizontal Kerning in Arabic lookup 2 per glyph data 2" afii57415 dx=60 dy=0 dh=60 dv=0 dx=0 dy=0 dh=0 dv=0
PairPos2: "'kern' Horizontal Kerning in Arabic lookup 2 per glyph data 1" uniFEF3 dx=40 dy=0 dh=40 dv=0 dx=0 dy=0 dh=0 dv=0
PairPos2: "'kern' Horizontal Kerning in Arabic lookup 2 per glyph data 1" uniFB58 dx=40 dy=0 dh=40 dv=0 dx=0 dy=0 dh=0 dv=0
PairPos2: "'kern' Horizontal Kerning in Arabic lookup 2 per glyph data 1" afii57413 dx=40 dy=0 dh=40 dv=0 dx=0 dy=0 dh=0 dv=0
PairPos2: "'kern' Horizontal Kerning in Arabic lookup 2 per glyph data 1" uniFB94 dx=110 dy=0 dh=110 dv=0 dx=0 dy=0 dh=0 dv=0
PairPos2: "'kern' Horizontal Kerning in Arabic lookup 2 per glyph data 1" afii57509 dx=110 dy=0 dh=110 dv=0 dx=0 dy=0 dh=0 dv=0
PairPos2: "'kern' Horizontal Kerning in Arabic lookup 2 per glyph data 1" uniFB90 dx=110 dy=0 dh=110 dv=0 dx=0 dy=0 dh=0 dv=0
PairPos2: "'kern' Horizontal Kerning in Arabic lookup 2 per glyph data 1" uni06A9 dx=110 dy=0 dh=110 dv=0 dx=0 dy=0 dh=0 dv=0
PairPos2: "'kern' Horizontal Kerning in Arabic lookup 2 per glyph data 1" uniFEDB dx=110 dy=0 dh=110 dv=0 dx=0 dy=0 dh=0 dv=0
EndChar

StartChar: afii57415.short
Encoding: 524 -1 66
Width: 248
GlyphClass: 2
Flags: W
AnchorPoint: "Anchor-11" 0 0 basechar 0
AnchorPoint: "Anchor-10" 124 619 basechar 0
AnchorPoint: "Anchor-9" 124 0 basechar 0
LayerCount: 2
Fore
SplineSet
69 -7 m 1,0,-1
 61 -1 l 1,1,-1
 61 662 l 1,2,-1
 177 693 l 1,3,-1
 187 687 l 1,4,-1
 184 17 l 1,5,-1
 69 -7 l 1,0,-1
EndSplineSet
PairPos2: "'kern' Horizontal Kerning in Arabic lookup 2 per glyph data 2" uni0671 dx=60 dy=0 dh=60 dv=0 dx=0 dy=0 dh=0 dv=0
PairPos2: "'kern' Horizontal Kerning in Arabic lookup 2 per glyph data 2" afii57410 dx=60 dy=0 dh=60 dv=0 dx=0 dy=0 dh=0 dv=0
PairPos2: "'kern' Horizontal Kerning in Arabic lookup 2 per glyph data 2" afii57411 dx=60 dy=0 dh=60 dv=0 dx=0 dy=0 dh=0 dv=0
PairPos2: "'kern' Horizontal Kerning in Arabic lookup 2 per glyph data 2" uniFE8E.short dx=60 dy=0 dh=60 dv=0 dx=0 dy=0 dh=0 dv=0
PairPos2: "'kern' Horizontal Kerning in Arabic lookup 2 per glyph data 2" afii57415.short dx=60 dy=0 dh=60 dv=0 dx=0 dy=0 dh=0 dv=0
PairPos2: "'kern' Horizontal Kerning in Arabic lookup 2 per glyph data 2" afii57415 dx=60 dy=0 dh=60 dv=0 dx=0 dy=0 dh=0 dv=0
PairPos2: "'kern' Horizontal Kerning in Arabic lookup 2 per glyph data 1" uniFEF3 dx=40 dy=0 dh=40 dv=0 dx=0 dy=0 dh=0 dv=0
PairPos2: "'kern' Horizontal Kerning in Arabic lookup 2 per glyph data 1" uniFB58 dx=40 dy=0 dh=40 dv=0 dx=0 dy=0 dh=0 dv=0
PairPos2: "'kern' Horizontal Kerning in Arabic lookup 2 per glyph data 1" afii57413 dx=40 dy=0 dh=40 dv=0 dx=0 dy=0 dh=0 dv=0
PairPos2: "'kern' Horizontal Kerning in Arabic lookup 2 per glyph data 1" uniFB94 dx=110 dy=0 dh=110 dv=0 dx=0 dy=0 dh=0 dv=0
PairPos2: "'kern' Horizontal Kerning in Arabic lookup 2 per glyph data 1" afii57509 dx=110 dy=0 dh=110 dv=0 dx=0 dy=0 dh=0 dv=0
PairPos2: "'kern' Horizontal Kerning in Arabic lookup 2 per glyph data 1" uniFB90 dx=110 dy=0 dh=110 dv=0 dx=0 dy=0 dh=0 dv=0
PairPos2: "'kern' Horizontal Kerning in Arabic lookup 2 per glyph data 1" uni06A9 dx=110 dy=0 dh=110 dv=0 dx=0 dy=0 dh=0 dv=0
PairPos2: "'kern' Horizontal Kerning in Arabic lookup 2 per glyph data 1" uniFEDB dx=110 dy=0 dh=110 dv=0 dx=0 dy=0 dh=0 dv=0
PairPos2: "'kern' Horizontal Kerning in Arabic lookup 2 per glyph data 0" uniFB94 dx=50 dy=0 dh=50 dv=0 dx=0 dy=0 dh=0 dv=0
PairPos2: "'kern' Horizontal Kerning in Arabic lookup 2 per glyph data 0" uni0671 dx=40 dy=0 dh=40 dv=0 dx=0 dy=0 dh=0 dv=0
PairPos2: "'kern' Horizontal Kerning in Arabic lookup 2 per glyph data 0" afii57410 dx=90 dy=0 dh=90 dv=0 dx=0 dy=0 dh=0 dv=0
PairPos2: "'kern' Horizontal Kerning in Arabic lookup 2 per glyph data 0" afii57411 dx=32 dy=0 dh=32 dv=0 dx=0 dy=0 dh=0 dv=0
EndChar

StartChar: uni066E
Encoding: 305 1646 76
Width: 858
GlyphClass: 2
Flags: W
AnchorPoint: "Anchor-11" 0 0 basechar 0
AnchorPoint: "Anchor-10" 434 297 basechar 0
AnchorPoint: "Anchor-9" 409 -12 basechar 0
LayerCount: 2
Fore
SplineSet
793.5 276 m 128,-1,1
 805 224 805 224 805 188 c 0,2,3
 805 142 805 142 784.5 98.5 c 128,-1,4
 764 55 764 55 726 32 c 0,5,6
 691 11 691 11 614 -0.5 c 128,-1,7
 537 -12 537 -12 439 -12 c 2,8,-1
 378 -12 l 2,9,10
 212 -12 212 -12 124.5 36 c 128,-1,11
 37 84 37 84 37 175 c 0,12,13
 37 207 37 207 41.5 236 c 128,-1,14
 46 265 46 265 55 297 c 1,15,-1
 144 331 l 1,16,-1
 154 326 l 1,17,18
 145 280 145 280 145 243 c 0,19,20
 145 192 145 192 173 164 c 128,-1,21
 201 136 201 136 260 124.5 c 128,-1,22
 319 113 319 113 421 113 c 2,23,-1
 476 113 l 2,24,25
 544 113 544 113 605.5 119 c 128,-1,26
 667 125 667 125 697 134 c 1,27,28
 700 184 700 184 645 302 c 1,29,-1
 747 384 l 1,30,-1
 759 384 l 1,31,0
 782 328 782 328 793.5 276 c 128,-1,1
EndSplineSet
Substitution2: "'fina' Terminal Forms in Arabic lookup 18 subtable" uni066E.fina
Substitution2: "'medi' Medial Forms in Arabic lookup 17 subtable" uni066E.medi
Substitution2: "'init' Initial Forms in Arabic lookup 16 subtable" uni066E.init
AlternateSubs2: "'aalt' Access All Alternates in Arabic lookup 1 subtable" uni066E.fina uni066E.medi uni066E.init
PairPos2: "'kern' Horizontal Kerning in Arabic lookup 2 per glyph data 2" uni0671 dx=60 dy=0 dh=60 dv=0 dx=0 dy=0 dh=0 dv=0
PairPos2: "'kern' Horizontal Kerning in Arabic lookup 2 per glyph data 2" afii57410 dx=60 dy=0 dh=60 dv=0 dx=0 dy=0 dh=0 dv=0
PairPos2: "'kern' Horizontal Kerning in Arabic lookup 2 per glyph data 2" afii57411 dx=60 dy=0 dh=60 dv=0 dx=0 dy=0 dh=0 dv=0
PairPos2: "'kern' Horizontal Kerning in Arabic lookup 2 per glyph data 2" uniFE8E.short dx=60 dy=0 dh=60 dv=0 dx=0 dy=0 dh=0 dv=0
PairPos2: "'kern' Horizontal Kerning in Arabic lookup 2 per glyph data 2" afii57415.short dx=60 dy=0 dh=60 dv=0 dx=0 dy=0 dh=0 dv=0
PairPos2: "'kern' Horizontal Kerning in Arabic lookup 2 per glyph data 2" afii57415 dx=60 dy=0 dh=60 dv=0 dx=0 dy=0 dh=0 dv=0
PairPos2: "'kern' Horizontal Kerning in Arabic lookup 2 per glyph data 1" uniFEF3 dx=40 dy=0 dh=40 dv=0 dx=0 dy=0 dh=0 dv=0
PairPos2: "'kern' Horizontal Kerning in Arabic lookup 2 per glyph data 1" uniFB58 dx=40 dy=0 dh=40 dv=0 dx=0 dy=0 dh=0 dv=0
PairPos2: "'kern' Horizontal Kerning in Arabic lookup 2 per glyph data 1" afii57413 dx=40 dy=0 dh=40 dv=0 dx=0 dy=0 dh=0 dv=0
PairPos2: "'kern' Horizontal Kerning in Arabic lookup 2 per glyph data 1" uniFB94 dx=110 dy=0 dh=110 dv=0 dx=0 dy=0 dh=0 dv=0
PairPos2: "'kern' Horizontal Kerning in Arabic lookup 2 per glyph data 1" afii57509 dx=110 dy=0 dh=110 dv=0 dx=0 dy=0 dh=0 dv=0
PairPos2: "'kern' Horizontal Kerning in Arabic lookup 2 per glyph data 1" uniFB90 dx=110 dy=0 dh=110 dv=0 dx=0 dy=0 dh=0 dv=0
PairPos2: "'kern' Horizontal Kerning in Arabic lookup 2 per glyph data 1" uni06A9 dx=110 dy=0 dh=110 dv=0 dx=0 dy=0 dh=0 dv=0
PairPos2: "'kern' Horizontal Kerning in Arabic lookup 2 per glyph data 1" uniFEDB dx=110 dy=0 dh=110 dv=0 dx=0 dy=0 dh=0 dv=0
EndChar

StartChar: uni066E.fina
Encoding: 526 -1 77
Width: 882
GlyphClass: 2
Flags: W
AnchorPoint: "Anchor-11" 0 0 basechar 0
AnchorPoint: "Anchor-10" 453 297 basechar 0
AnchorPoint: "Anchor-9" 409 -12 basechar 0
LayerCount: 2
Fore
SplineSet
939.5 114 m 128,-1,1
 949 103 949 103 949 85 c 0,2,3
 949 46 949 46 933.5 23 c 128,-1,4
 918 0 918 0 882 0 c 0,5,6
 843 0 843 0 800 12 c 128,-1,7
 757 24 757 24 728 46 c 1,8,9
 717 35 717 35 704 27 c 0,10,11
 677 10 677 10 596.5 -1 c 128,-1,12
 516 -12 516 -12 439 -12 c 2,13,-1
 378 -12 l 2,14,15
 212 -12 212 -12 124.5 36 c 128,-1,16
 37 84 37 84 37 175 c 0,17,18
 37 207 37 207 41.5 236 c 128,-1,19
 46 265 46 265 55 297 c 1,20,-1
 144 331 l 1,21,-1
 154 326 l 1,22,23
 145 280 145 280 145 243 c 0,24,25
 145 192 145 192 173 164 c 128,-1,26
 201 136 201 136 260 124.5 c 128,-1,27
 319 113 319 113 421 113 c 2,28,-1
 476 113 l 2,29,30
 533 113 533 113 587 117.5 c 128,-1,31
 641 122 641 122 665 129 c 1,32,33
 689 197 689 197 704 278 c 1,34,-1
 833 308 l 1,35,-1
 843 301 l 1,36,37
 822 211 822 211 792 145 c 1,38,39
 845 125 845 125 909 125 c 0,40,0
 930 125 930 125 939.5 114 c 128,-1,1
EndSplineSet
PairPos2: "'kern' Horizontal Kerning in Arabic lookup 2 per glyph data 2" uni0671 dx=60 dy=0 dh=60 dv=0 dx=0 dy=0 dh=0 dv=0
PairPos2: "'kern' Horizontal Kerning in Arabic lookup 2 per glyph data 2" afii57410 dx=60 dy=0 dh=60 dv=0 dx=0 dy=0 dh=0 dv=0
PairPos2: "'kern' Horizontal Kerning in Arabic lookup 2 per glyph data 2" afii57411 dx=60 dy=0 dh=60 dv=0 dx=0 dy=0 dh=0 dv=0
PairPos2: "'kern' Horizontal Kerning in Arabic lookup 2 per glyph data 2" uniFE8E.short dx=60 dy=0 dh=60 dv=0 dx=0 dy=0 dh=0 dv=0
PairPos2: "'kern' Horizontal Kerning in Arabic lookup 2 per glyph data 2" afii57415.short dx=60 dy=0 dh=60 dv=0 dx=0 dy=0 dh=0 dv=0
PairPos2: "'kern' Horizontal Kerning in Arabic lookup 2 per glyph data 2" afii57415 dx=60 dy=0 dh=60 dv=0 dx=0 dy=0 dh=0 dv=0
PairPos2: "'kern' Horizontal Kerning in Arabic lookup 2 per glyph data 1" uniFEF3 dx=40 dy=0 dh=40 dv=0 dx=0 dy=0 dh=0 dv=0
PairPos2: "'kern' Horizontal Kerning in Arabic lookup 2 per glyph data 1" uniFB58 dx=40 dy=0 dh=40 dv=0 dx=0 dy=0 dh=0 dv=0
PairPos2: "'kern' Horizontal Kerning in Arabic lookup 2 per glyph data 1" afii57413 dx=40 dy=0 dh=40 dv=0 dx=0 dy=0 dh=0 dv=0
PairPos2: "'kern' Horizontal Kerning in Arabic lookup 2 per glyph data 1" uniFB94 dx=110 dy=0 dh=110 dv=0 dx=0 dy=0 dh=0 dv=0
PairPos2: "'kern' Horizontal Kerning in Arabic lookup 2 per glyph data 1" afii57509 dx=110 dy=0 dh=110 dv=0 dx=0 dy=0 dh=0 dv=0
PairPos2: "'kern' Horizontal Kerning in Arabic lookup 2 per glyph data 1" uniFB90 dx=110 dy=0 dh=110 dv=0 dx=0 dy=0 dh=0 dv=0
PairPos2: "'kern' Horizontal Kerning in Arabic lookup 2 per glyph data 1" uni06A9 dx=110 dy=0 dh=110 dv=0 dx=0 dy=0 dh=0 dv=0
PairPos2: "'kern' Horizontal Kerning in Arabic lookup 2 per glyph data 1" uniFEDB dx=110 dy=0 dh=110 dv=0 dx=0 dy=0 dh=0 dv=0
EndChar

StartChar: uni066E.medi
Encoding: 527 -1 78
Width: 335
GlyphClass: 2
Flags: W
AnchorPoint: "Anchor-11" 0 0 basechar 0
AnchorPoint: "Anchor-10" 216 299 basechar 0
AnchorPoint: "Anchor-9" 175 0 basechar 0
LayerCount: 2
Fore
SplineSet
392.5 114 m 128,-1,1
 402 103 402 103 402 85 c 0,2,3
 402 46 402 46 386.5 23 c 128,-1,4
 371 0 371 0 335 0 c 0,5,6
 295 0 295 0 251.5 13 c 128,-1,7
 208 26 208 26 179 48 c 1,8,9
 120 0 120 0 19 0 c 2,10,-1
 0 0 l 1,11,-1
 27 125 l 1,12,-1
 45 125 l 2,13,14
 105 125 105 125 124 138 c 1,15,16
 140 177 140 177 158 278 c 1,17,-1
 287 308 l 1,18,-1
 297 301 l 1,19,20
 285 249 285 249 274 211.5 c 128,-1,21
 263 174 263 174 249 144 c 1,22,23
 297 125 297 125 362 125 c 0,24,0
 383 125 383 125 392.5 114 c 128,-1,1
EndSplineSet
PairPos2: "'kern' Horizontal Kerning in Arabic lookup 2 per glyph data 2" uni0671 dx=60 dy=0 dh=60 dv=0 dx=0 dy=0 dh=0 dv=0
PairPos2: "'kern' Horizontal Kerning in Arabic lookup 2 per glyph data 2" afii57410 dx=60 dy=0 dh=60 dv=0 dx=0 dy=0 dh=0 dv=0
PairPos2: "'kern' Horizontal Kerning in Arabic lookup 2 per glyph data 2" afii57411 dx=60 dy=0 dh=60 dv=0 dx=0 dy=0 dh=0 dv=0
PairPos2: "'kern' Horizontal Kerning in Arabic lookup 2 per glyph data 2" uniFE8E.short dx=60 dy=0 dh=60 dv=0 dx=0 dy=0 dh=0 dv=0
PairPos2: "'kern' Horizontal Kerning in Arabic lookup 2 per glyph data 2" afii57415.short dx=60 dy=0 dh=60 dv=0 dx=0 dy=0 dh=0 dv=0
PairPos2: "'kern' Horizontal Kerning in Arabic lookup 2 per glyph data 2" afii57415 dx=60 dy=0 dh=60 dv=0 dx=0 dy=0 dh=0 dv=0
PairPos2: "'kern' Horizontal Kerning in Arabic lookup 2 per glyph data 1" uniFEF3 dx=40 dy=0 dh=40 dv=0 dx=0 dy=0 dh=0 dv=0
PairPos2: "'kern' Horizontal Kerning in Arabic lookup 2 per glyph data 1" uniFB58 dx=40 dy=0 dh=40 dv=0 dx=0 dy=0 dh=0 dv=0
PairPos2: "'kern' Horizontal Kerning in Arabic lookup 2 per glyph data 1" afii57413 dx=40 dy=0 dh=40 dv=0 dx=0 dy=0 dh=0 dv=0
PairPos2: "'kern' Horizontal Kerning in Arabic lookup 2 per glyph data 1" uniFB94 dx=110 dy=0 dh=110 dv=0 dx=0 dy=0 dh=0 dv=0
PairPos2: "'kern' Horizontal Kerning in Arabic lookup 2 per glyph data 1" afii57509 dx=110 dy=0 dh=110 dv=0 dx=0 dy=0 dh=0 dv=0
PairPos2: "'kern' Horizontal Kerning in Arabic lookup 2 per glyph data 1" uniFB90 dx=110 dy=0 dh=110 dv=0 dx=0 dy=0 dh=0 dv=0
PairPos2: "'kern' Horizontal Kerning in Arabic lookup 2 per glyph data 1" uni06A9 dx=110 dy=0 dh=110 dv=0 dx=0 dy=0 dh=0 dv=0
PairPos2: "'kern' Horizontal Kerning in Arabic lookup 2 per glyph data 1" uniFEDB dx=110 dy=0 dh=110 dv=0 dx=0 dy=0 dh=0 dv=0
EndChar

StartChar: uni066E.medi.wide
Encoding: 528 -1 79
Width: 360
GlyphClass: 2
Flags: W
AnchorPoint: "Anchor-11" 0 0 basechar 0
AnchorPoint: "Anchor-10" 220 308 basechar 0
AnchorPoint: "Anchor-9" 178 0 basechar 0
LayerCount: 2
Fore
SplineSet
427 85 m 0,1,2
 427 0 427 0 361 0 c 0,3,4
 304 0 304 0 256 12 c 128,-1,5
 208 24 208 24 179 47 c 1,6,7
 151 24 151 24 115.5 12 c 128,-1,8
 80 0 80 0 33 0 c 2,9,-1
 0 0 l 1,10,-1
 27 125 l 1,11,-1
 50 125 l 2,12,13
 71 125 71 125 91 128.5 c 128,-1,14
 111 132 111 132 119 138 c 1,15,16
 137 182 137 182 154 278 c 1,17,-1
 283 308 l 1,18,-1
 293 301 l 1,19,20
 281 250 281 250 270 212.5 c 128,-1,21
 259 175 259 175 246 145 c 1,22,23
 299 125 299 125 387 125 c 0,24,0
 427 125 427 125 427 85 c 0,1,2
EndSplineSet
PairPos2: "'kern' Horizontal Kerning in Arabic lookup 2 per glyph data 2" uni0671 dx=60 dy=0 dh=60 dv=0 dx=0 dy=0 dh=0 dv=0
PairPos2: "'kern' Horizontal Kerning in Arabic lookup 2 per glyph data 2" afii57410 dx=60 dy=0 dh=60 dv=0 dx=0 dy=0 dh=0 dv=0
PairPos2: "'kern' Horizontal Kerning in Arabic lookup 2 per glyph data 2" afii57411 dx=60 dy=0 dh=60 dv=0 dx=0 dy=0 dh=0 dv=0
PairPos2: "'kern' Horizontal Kerning in Arabic lookup 2 per glyph data 2" uniFE8E.short dx=60 dy=0 dh=60 dv=0 dx=0 dy=0 dh=0 dv=0
PairPos2: "'kern' Horizontal Kerning in Arabic lookup 2 per glyph data 2" afii57415.short dx=60 dy=0 dh=60 dv=0 dx=0 dy=0 dh=0 dv=0
PairPos2: "'kern' Horizontal Kerning in Arabic lookup 2 per glyph data 2" afii57415 dx=60 dy=0 dh=60 dv=0 dx=0 dy=0 dh=0 dv=0
PairPos2: "'kern' Horizontal Kerning in Arabic lookup 2 per glyph data 1" uniFEF3 dx=40 dy=0 dh=40 dv=0 dx=0 dy=0 dh=0 dv=0
PairPos2: "'kern' Horizontal Kerning in Arabic lookup 2 per glyph data 1" uniFB58 dx=40 dy=0 dh=40 dv=0 dx=0 dy=0 dh=0 dv=0
PairPos2: "'kern' Horizontal Kerning in Arabic lookup 2 per glyph data 1" afii57413 dx=40 dy=0 dh=40 dv=0 dx=0 dy=0 dh=0 dv=0
PairPos2: "'kern' Horizontal Kerning in Arabic lookup 2 per glyph data 1" uniFB94 dx=110 dy=0 dh=110 dv=0 dx=0 dy=0 dh=0 dv=0
PairPos2: "'kern' Horizontal Kerning in Arabic lookup 2 per glyph data 1" afii57509 dx=110 dy=0 dh=110 dv=0 dx=0 dy=0 dh=0 dv=0
PairPos2: "'kern' Horizontal Kerning in Arabic lookup 2 per glyph data 1" uniFB90 dx=110 dy=0 dh=110 dv=0 dx=0 dy=0 dh=0 dv=0
PairPos2: "'kern' Horizontal Kerning in Arabic lookup 2 per glyph data 1" uni06A9 dx=110 dy=0 dh=110 dv=0 dx=0 dy=0 dh=0 dv=0
PairPos2: "'kern' Horizontal Kerning in Arabic lookup 2 per glyph data 1" uniFEDB dx=110 dy=0 dh=110 dv=0 dx=0 dy=0 dh=0 dv=0
EndChar

StartChar: uni066E.init
Encoding: 529 -1 80
Width: 296
GlyphClass: 2
Flags: W
AnchorPoint: "Anchor-11" 0 0 basechar 0
AnchorPoint: "Anchor-10" 134 368 basechar 0
AnchorPoint: "Anchor-9" 145 0 basechar 0
LayerCount: 2
Fore
SplineSet
27 125 m 1,0,-1
 37 125 l 2,1,2
 68 125 68 125 95.5 127 c 128,-1,3
 123 129 123 129 133 133 c 0,4,5
 134 136 134 136 134 144 c 0,6,7
 134 171 134 171 118.5 210 c 128,-1,8
 103 249 103 249 76 304 c 1,9,-1
 177 384 l 1,10,-1
 187 384 l 1,11,12
 212 332 212 332 227.5 273.5 c 128,-1,13
 243 215 243 215 243 179 c 0,14,15
 243 140 243 140 229.5 106 c 128,-1,16
 216 72 216 72 190 45 c 0,17,18
 165 21 165 21 125.5 10.5 c 128,-1,19
 86 0 86 0 12 0 c 2,20,-1
 0 0 l 1,21,-1
 27 125 l 1,0,-1
EndSplineSet
PairPos2: "'kern' Horizontal Kerning in Arabic lookup 2 per glyph data 2" uni0671 dx=60 dy=0 dh=60 dv=0 dx=0 dy=0 dh=0 dv=0
PairPos2: "'kern' Horizontal Kerning in Arabic lookup 2 per glyph data 2" afii57410 dx=60 dy=0 dh=60 dv=0 dx=0 dy=0 dh=0 dv=0
PairPos2: "'kern' Horizontal Kerning in Arabic lookup 2 per glyph data 2" afii57411 dx=60 dy=0 dh=60 dv=0 dx=0 dy=0 dh=0 dv=0
PairPos2: "'kern' Horizontal Kerning in Arabic lookup 2 per glyph data 2" uniFE8E.short dx=60 dy=0 dh=60 dv=0 dx=0 dy=0 dh=0 dv=0
PairPos2: "'kern' Horizontal Kerning in Arabic lookup 2 per glyph data 2" afii57415.short dx=60 dy=0 dh=60 dv=0 dx=0 dy=0 dh=0 dv=0
PairPos2: "'kern' Horizontal Kerning in Arabic lookup 2 per glyph data 2" afii57415 dx=60 dy=0 dh=60 dv=0 dx=0 dy=0 dh=0 dv=0
PairPos2: "'kern' Horizontal Kerning in Arabic lookup 2 per glyph data 1" uniFEF3 dx=40 dy=0 dh=40 dv=0 dx=0 dy=0 dh=0 dv=0
PairPos2: "'kern' Horizontal Kerning in Arabic lookup 2 per glyph data 1" uniFB58 dx=40 dy=0 dh=40 dv=0 dx=0 dy=0 dh=0 dv=0
PairPos2: "'kern' Horizontal Kerning in Arabic lookup 2 per glyph data 1" afii57413 dx=40 dy=0 dh=40 dv=0 dx=0 dy=0 dh=0 dv=0
PairPos2: "'kern' Horizontal Kerning in Arabic lookup 2 per glyph data 1" uniFB94 dx=110 dy=0 dh=110 dv=0 dx=0 dy=0 dh=0 dv=0
PairPos2: "'kern' Horizontal Kerning in Arabic lookup 2 per glyph data 1" afii57509 dx=110 dy=0 dh=110 dv=0 dx=0 dy=0 dh=0 dv=0
PairPos2: "'kern' Horizontal Kerning in Arabic lookup 2 per glyph data 1" uniFB90 dx=110 dy=0 dh=110 dv=0 dx=0 dy=0 dh=0 dv=0
PairPos2: "'kern' Horizontal Kerning in Arabic lookup 2 per glyph data 1" uni06A9 dx=110 dy=0 dh=110 dv=0 dx=0 dy=0 dh=0 dv=0
PairPos2: "'kern' Horizontal Kerning in Arabic lookup 2 per glyph data 1" uniFEDB dx=110 dy=0 dh=110 dv=0 dx=0 dy=0 dh=0 dv=0
EndChar

StartChar: uni066E.init.wide
Encoding: 530 -1 81
Width: 316
GlyphClass: 2
Flags: W
AnchorPoint: "Anchor-11" 0 0 basechar 0
AnchorPoint: "Anchor-10" 158 367 basechar 0
AnchorPoint: "Anchor-9" 150 0 basechar 0
LayerCount: 2
Fore
SplineSet
27 125 m 1,0,-1
 57 125 l 2,1,2
 88 125 88 125 115.5 127 c 128,-1,3
 143 129 143 129 153 133 c 0,4,5
 154 136 154 136 154 144 c 0,6,7
 154 171 154 171 138.5 211 c 128,-1,8
 123 251 123 251 97 304 c 1,9,-1
 197 384 l 1,10,-1
 207 384 l 1,11,12
 231 332 231 332 247 273 c 128,-1,13
 263 214 263 214 263 179 c 0,14,15
 263 139 263 139 250 105 c 128,-1,16
 237 71 237 71 210 45 c 0,17,18
 185 21 185 21 145.5 10.5 c 128,-1,19
 106 0 106 0 32 0 c 2,20,-1
 0 0 l 1,21,-1
 27 125 l 1,0,-1
EndSplineSet
PairPos2: "'kern' Horizontal Kerning in Arabic lookup 2 per glyph data 2" uni0671 dx=60 dy=0 dh=60 dv=0 dx=0 dy=0 dh=0 dv=0
PairPos2: "'kern' Horizontal Kerning in Arabic lookup 2 per glyph data 2" afii57410 dx=60 dy=0 dh=60 dv=0 dx=0 dy=0 dh=0 dv=0
PairPos2: "'kern' Horizontal Kerning in Arabic lookup 2 per glyph data 2" afii57411 dx=60 dy=0 dh=60 dv=0 dx=0 dy=0 dh=0 dv=0
PairPos2: "'kern' Horizontal Kerning in Arabic lookup 2 per glyph data 2" uniFE8E.short dx=60 dy=0 dh=60 dv=0 dx=0 dy=0 dh=0 dv=0
PairPos2: "'kern' Horizontal Kerning in Arabic lookup 2 per glyph data 2" afii57415.short dx=60 dy=0 dh=60 dv=0 dx=0 dy=0 dh=0 dv=0
PairPos2: "'kern' Horizontal Kerning in Arabic lookup 2 per glyph data 2" afii57415 dx=60 dy=0 dh=60 dv=0 dx=0 dy=0 dh=0 dv=0
PairPos2: "'kern' Horizontal Kerning in Arabic lookup 2 per glyph data 1" uniFEF3 dx=40 dy=0 dh=40 dv=0 dx=0 dy=0 dh=0 dv=0
PairPos2: "'kern' Horizontal Kerning in Arabic lookup 2 per glyph data 1" uniFB58 dx=40 dy=0 dh=40 dv=0 dx=0 dy=0 dh=0 dv=0
PairPos2: "'kern' Horizontal Kerning in Arabic lookup 2 per glyph data 1" afii57413 dx=40 dy=0 dh=40 dv=0 dx=0 dy=0 dh=0 dv=0
PairPos2: "'kern' Horizontal Kerning in Arabic lookup 2 per glyph data 1" uniFB94 dx=110 dy=0 dh=110 dv=0 dx=0 dy=0 dh=0 dv=0
PairPos2: "'kern' Horizontal Kerning in Arabic lookup 2 per glyph data 1" afii57509 dx=110 dy=0 dh=110 dv=0 dx=0 dy=0 dh=0 dv=0
PairPos2: "'kern' Horizontal Kerning in Arabic lookup 2 per glyph data 1" uniFB90 dx=110 dy=0 dh=110 dv=0 dx=0 dy=0 dh=0 dv=0
PairPos2: "'kern' Horizontal Kerning in Arabic lookup 2 per glyph data 1" uni06A9 dx=110 dy=0 dh=110 dv=0 dx=0 dy=0 dh=0 dv=0
PairPos2: "'kern' Horizontal Kerning in Arabic lookup 2 per glyph data 1" uniFEDB dx=110 dy=0 dh=110 dv=0 dx=0 dy=0 dh=0 dv=0
EndChar

StartChar: uniFBE8.yeh
Encoding: 532 -1 91
Width: 275
GlyphClass: 2
Flags: W
AnchorPoint: "Anchor-11" 0 0 basechar 0
AnchorPoint: "Anchor-10" 81 276 basechar 0
AnchorPoint: "Anchor-9" 154 -253 basechar 0
AnchorPoint: "Cursive-0" 0 39 exit 0
LayerCount: 2
Fore
SplineSet
0 39 m 1,0,1
 57 57 57 57 76 71 c 1,2,3
 71 105 71 105 57.5 138 c 128,-1,4
 44 171 44 171 20 218 c 1,5,-1
 120 299 l 1,6,-1
 134 299 l 1,7,8
 161 234 161 234 175 189 c 128,-1,9
 189 144 189 144 189 112 c 0,10,11
 189 65 189 65 169 34 c 128,-1,12
 149 3 149 3 97 -24 c 1,13,-1
 45 -17 l 1,14,-1
 0 39 l 1,0,1
EndSplineSet
PairPos2: "'kern' Horizontal Kerning in Arabic lookup 2 per glyph data 2" uni0671 dx=60 dy=0 dh=60 dv=0 dx=0 dy=0 dh=0 dv=0
PairPos2: "'kern' Horizontal Kerning in Arabic lookup 2 per glyph data 2" afii57410 dx=60 dy=0 dh=60 dv=0 dx=0 dy=0 dh=0 dv=0
PairPos2: "'kern' Horizontal Kerning in Arabic lookup 2 per glyph data 2" afii57411 dx=60 dy=0 dh=60 dv=0 dx=0 dy=0 dh=0 dv=0
PairPos2: "'kern' Horizontal Kerning in Arabic lookup 2 per glyph data 2" uniFE8E.short dx=60 dy=0 dh=60 dv=0 dx=0 dy=0 dh=0 dv=0
PairPos2: "'kern' Horizontal Kerning in Arabic lookup 2 per glyph data 2" afii57415.short dx=60 dy=0 dh=60 dv=0 dx=0 dy=0 dh=0 dv=0
PairPos2: "'kern' Horizontal Kerning in Arabic lookup 2 per glyph data 2" afii57415 dx=60 dy=0 dh=60 dv=0 dx=0 dy=0 dh=0 dv=0
PairPos2: "'kern' Horizontal Kerning in Arabic lookup 2 per glyph data 1" uniFEF3 dx=40 dy=0 dh=40 dv=0 dx=0 dy=0 dh=0 dv=0
PairPos2: "'kern' Horizontal Kerning in Arabic lookup 2 per glyph data 1" uniFB58 dx=40 dy=0 dh=40 dv=0 dx=0 dy=0 dh=0 dv=0
PairPos2: "'kern' Horizontal Kerning in Arabic lookup 2 per glyph data 1" afii57413 dx=40 dy=0 dh=40 dv=0 dx=0 dy=0 dh=0 dv=0
PairPos2: "'kern' Horizontal Kerning in Arabic lookup 2 per glyph data 1" uniFB94 dx=110 dy=0 dh=110 dv=0 dx=0 dy=0 dh=0 dv=0
PairPos2: "'kern' Horizontal Kerning in Arabic lookup 2 per glyph data 1" afii57509 dx=110 dy=0 dh=110 dv=0 dx=0 dy=0 dh=0 dv=0
PairPos2: "'kern' Horizontal Kerning in Arabic lookup 2 per glyph data 1" uniFB90 dx=110 dy=0 dh=110 dv=0 dx=0 dy=0 dh=0 dv=0
PairPos2: "'kern' Horizontal Kerning in Arabic lookup 2 per glyph data 1" uni06A9 dx=110 dy=0 dh=110 dv=0 dx=0 dy=0 dh=0 dv=0
PairPos2: "'kern' Horizontal Kerning in Arabic lookup 2 per glyph data 1" uniFEDB dx=110 dy=0 dh=110 dv=0 dx=0 dy=0 dh=0 dv=0
EndChar

StartChar: afii57421
Encoding: 253 1581 114
Width: 662
GlyphClass: 2
Flags: W
AnchorPoint: "Anchor-11" 387 -82 basechar 0
AnchorPoint: "Anchor-10" 340 387 basechar 0
AnchorPoint: "Anchor-9" 402 -416 basechar 0
LayerCount: 2
Fore
SplineSet
647 -264 m 1,0,-1
 610 -368 l 1,1,2
 574 -391 574 -391 520 -403.5 c 128,-1,3
 466 -416 466 -416 402 -416 c 0,4,5
 293 -416 293 -416 210.5 -384.5 c 128,-1,6
 128 -353 128 -353 82.5 -293.5 c 128,-1,7
 37 -234 37 -234 37 -151 c 0,8,9
 37 -71 37 -71 81 4 c 128,-1,10
 125 79 125 79 198 139 c 128,-1,11
 271 199 271 199 358 239 c 1,12,13
 303 255 303 255 265.5 262 c 128,-1,14
 228 269 228 269 200 269 c 0,15,16
 164 269 164 269 123.5 262 c 128,-1,17
 83 255 83 255 53 244 c 1,18,-1
 48 249 l 1,19,-1
 91 356 l 1,20,21
 114 370 114 370 146.5 378.5 c 128,-1,22
 179 387 179 387 210 387 c 0,23,24
 236 387 236 387 269.5 380.5 c 128,-1,25
 303 374 303 374 354 358 c 0,26,27
 436 332 436 332 498 322 c 128,-1,28
 560 312 560 312 627 312 c 1,29,-1
 597 191 l 1,30,31
 474 185 474 185 372.5 142 c 128,-1,32
 271 99 271 99 212.5 30.5 c 128,-1,33
 154 -38 154 -38 154 -116 c 0,34,35
 154 -202 154 -202 229 -246.5 c 128,-1,36
 304 -291 304 -291 441 -291 c 0,37,38
 487 -291 487 -291 538.5 -282.5 c 128,-1,39
 590 -274 590 -274 641 -258 c 1,40,-1
 647 -264 l 1,0,-1
EndSplineSet
Substitution2: "'fina' Terminal Forms in Arabic lookup 18 subtable" uniFEA2
Substitution2: "'medi' Medial Forms in Arabic lookup 17 subtable" uniFEA4
Substitution2: "'init' Initial Forms in Arabic lookup 16 subtable" uniFEA3
AlternateSubs2: "'aalt' Access All Alternates in Arabic lookup 1 subtable" uniFEA2 uniFEA4 uniFEA3
PairPos2: "'kern' Horizontal Kerning in Arabic lookup 2 per glyph data 2" uni0671 dx=60 dy=0 dh=60 dv=0 dx=0 dy=0 dh=0 dv=0
PairPos2: "'kern' Horizontal Kerning in Arabic lookup 2 per glyph data 2" afii57410 dx=60 dy=0 dh=60 dv=0 dx=0 dy=0 dh=0 dv=0
PairPos2: "'kern' Horizontal Kerning in Arabic lookup 2 per glyph data 2" afii57411 dx=60 dy=0 dh=60 dv=0 dx=0 dy=0 dh=0 dv=0
PairPos2: "'kern' Horizontal Kerning in Arabic lookup 2 per glyph data 2" uniFE8E.short dx=60 dy=0 dh=60 dv=0 dx=0 dy=0 dh=0 dv=0
PairPos2: "'kern' Horizontal Kerning in Arabic lookup 2 per glyph data 2" afii57415.short dx=60 dy=0 dh=60 dv=0 dx=0 dy=0 dh=0 dv=0
PairPos2: "'kern' Horizontal Kerning in Arabic lookup 2 per glyph data 2" afii57415 dx=60 dy=0 dh=60 dv=0 dx=0 dy=0 dh=0 dv=0
PairPos2: "'kern' Horizontal Kerning in Arabic lookup 2 per glyph data 1" uniFEF3 dx=40 dy=0 dh=40 dv=0 dx=0 dy=0 dh=0 dv=0
PairPos2: "'kern' Horizontal Kerning in Arabic lookup 2 per glyph data 1" uniFB58 dx=40 dy=0 dh=40 dv=0 dx=0 dy=0 dh=0 dv=0
PairPos2: "'kern' Horizontal Kerning in Arabic lookup 2 per glyph data 1" afii57413 dx=40 dy=0 dh=40 dv=0 dx=0 dy=0 dh=0 dv=0
PairPos2: "'kern' Horizontal Kerning in Arabic lookup 2 per glyph data 1" uniFB94 dx=110 dy=0 dh=110 dv=0 dx=0 dy=0 dh=0 dv=0
PairPos2: "'kern' Horizontal Kerning in Arabic lookup 2 per glyph data 1" afii57509 dx=110 dy=0 dh=110 dv=0 dx=0 dy=0 dh=0 dv=0
PairPos2: "'kern' Horizontal Kerning in Arabic lookup 2 per glyph data 1" uniFB90 dx=110 dy=0 dh=110 dv=0 dx=0 dy=0 dh=0 dv=0
PairPos2: "'kern' Horizontal Kerning in Arabic lookup 2 per glyph data 1" uni06A9 dx=110 dy=0 dh=110 dv=0 dx=0 dy=0 dh=0 dv=0
PairPos2: "'kern' Horizontal Kerning in Arabic lookup 2 per glyph data 1" uniFEDB dx=110 dy=0 dh=110 dv=0 dx=0 dy=0 dh=0 dv=0
EndChar

StartChar: uniFEA2
Encoding: 452 65186 115
Width: 682
GlyphClass: 2
Flags: W
AnchorPoint: "Anchor-11" 378 -86 basechar 0
AnchorPoint: "Anchor-10" 340 387 basechar 0
AnchorPoint: "Anchor-9" 402 -416 basechar 0
LayerCount: 2
Fore
SplineSet
749 85 m 0,1,2
 749 46 749 46 733.5 23 c 128,-1,3
 718 0 718 0 682 0 c 0,4,5
 620 0 620 0 573 14 c 128,-1,6
 526 28 526 28 490 64 c 128,-1,7
 454 100 454 100 430 162 c 1,8,9
 348 137 348 137 285.5 94.5 c 128,-1,10
 223 52 223 52 188.5 -2 c 128,-1,11
 154 -56 154 -56 154 -116 c 0,12,13
 154 -202 154 -202 229 -246.5 c 128,-1,14
 304 -291 304 -291 441 -291 c 0,15,16
 487 -291 487 -291 538.5 -282.5 c 128,-1,17
 590 -274 590 -274 641 -258 c 1,18,-1
 647 -264 l 1,19,-1
 610 -368 l 1,20,21
 574 -391 574 -391 520 -403.5 c 128,-1,22
 466 -416 466 -416 402 -416 c 0,23,24
 293 -416 293 -416 210.5 -384.5 c 128,-1,25
 128 -353 128 -353 82.5 -293.5 c 128,-1,26
 37 -234 37 -234 37 -151 c 0,27,28
 37 -71 37 -71 81 4 c 128,-1,29
 125 79 125 79 198 139 c 128,-1,30
 271 199 271 199 358 239 c 1,31,32
 303 255 303 255 265.5 262 c 128,-1,33
 228 269 228 269 200 269 c 0,34,35
 164 269 164 269 123.5 262 c 128,-1,36
 83 255 83 255 53 244 c 1,37,-1
 48 249 l 1,38,-1
 91 356 l 1,39,40
 114 370 114 370 146.5 378.5 c 128,-1,41
 179 387 179 387 210 387 c 0,42,43
 236 387 236 387 269.5 380.5 c 128,-1,44
 303 374 303 374 354 358 c 0,45,46
 436 332 436 332 498 322 c 128,-1,47
 560 312 560 312 627 312 c 1,48,-1
 597 191 l 1,49,50
 566 190 566 190 536 185 c 1,51,52
 549 163 549 163 569.5 150 c 128,-1,53
 590 137 590 137 623.5 131 c 128,-1,54
 657 125 657 125 709 125 c 0,55,0
 749 125 749 125 749 85 c 0,1,2
EndSplineSet
PairPos2: "'kern' Horizontal Kerning in Arabic lookup 2 per glyph data 2" uni0671 dx=60 dy=0 dh=60 dv=0 dx=0 dy=0 dh=0 dv=0
PairPos2: "'kern' Horizontal Kerning in Arabic lookup 2 per glyph data 2" afii57410 dx=60 dy=0 dh=60 dv=0 dx=0 dy=0 dh=0 dv=0
PairPos2: "'kern' Horizontal Kerning in Arabic lookup 2 per glyph data 2" afii57411 dx=60 dy=0 dh=60 dv=0 dx=0 dy=0 dh=0 dv=0
PairPos2: "'kern' Horizontal Kerning in Arabic lookup 2 per glyph data 2" uniFE8E.short dx=60 dy=0 dh=60 dv=0 dx=0 dy=0 dh=0 dv=0
PairPos2: "'kern' Horizontal Kerning in Arabic lookup 2 per glyph data 2" afii57415.short dx=60 dy=0 dh=60 dv=0 dx=0 dy=0 dh=0 dv=0
PairPos2: "'kern' Horizontal Kerning in Arabic lookup 2 per glyph data 2" afii57415 dx=60 dy=0 dh=60 dv=0 dx=0 dy=0 dh=0 dv=0
PairPos2: "'kern' Horizontal Kerning in Arabic lookup 2 per glyph data 1" uniFEF3 dx=40 dy=0 dh=40 dv=0 dx=0 dy=0 dh=0 dv=0
PairPos2: "'kern' Horizontal Kerning in Arabic lookup 2 per glyph data 1" uniFB58 dx=40 dy=0 dh=40 dv=0 dx=0 dy=0 dh=0 dv=0
PairPos2: "'kern' Horizontal Kerning in Arabic lookup 2 per glyph data 1" afii57413 dx=40 dy=0 dh=40 dv=0 dx=0 dy=0 dh=0 dv=0
PairPos2: "'kern' Horizontal Kerning in Arabic lookup 2 per glyph data 1" uniFB94 dx=110 dy=0 dh=110 dv=0 dx=0 dy=0 dh=0 dv=0
PairPos2: "'kern' Horizontal Kerning in Arabic lookup 2 per glyph data 1" afii57509 dx=110 dy=0 dh=110 dv=0 dx=0 dy=0 dh=0 dv=0
PairPos2: "'kern' Horizontal Kerning in Arabic lookup 2 per glyph data 1" uniFB90 dx=110 dy=0 dh=110 dv=0 dx=0 dy=0 dh=0 dv=0
PairPos2: "'kern' Horizontal Kerning in Arabic lookup 2 per glyph data 1" uni06A9 dx=110 dy=0 dh=110 dv=0 dx=0 dy=0 dh=0 dv=0
PairPos2: "'kern' Horizontal Kerning in Arabic lookup 2 per glyph data 1" uniFEDB dx=110 dy=0 dh=110 dv=0 dx=0 dy=0 dh=0 dv=0
EndChar

StartChar: uniFEA4
Encoding: 454 65188 116
Width: 632
GlyphClass: 2
Flags: W
AnchorPoint: "Anchor-11" 0 0 basechar 0
AnchorPoint: "Anchor-10" 194 387 basechar 0
AnchorPoint: "Anchor-9" 257 0 basechar 0
LayerCount: 2
Fore
SplineSet
699 85 m 0,1,2
 699 0 699 0 633 0 c 0,3,4
 554 0 554 0 504.5 12.5 c 128,-1,5
 455 25 455 25 425.5 48.5 c 128,-1,6
 396 72 396 72 375 110 c 1,7,-1
 338 92 l 2,8,9
 236 41 236 41 160 20.5 c 128,-1,10
 84 0 84 0 0 0 c 1,11,-1
 27 125 l 1,12,13
 102 125 102 125 158.5 136 c 128,-1,14
 215 147 215 147 301 178 c 0,15,16
 334 190 334 190 380 205 c 1,17,-1
 346 220 l 2,18,19
 287 247 287 247 249.5 258 c 128,-1,20
 212 269 212 269 179 269 c 0,21,22
 148 269 148 269 121.5 264 c 128,-1,23
 95 259 95 259 64 250 c 1,24,-1
 59 254 l 1,25,-1
 103 365 l 1,26,27
 121 375 121 375 145.5 381 c 128,-1,28
 170 387 170 387 194 387 c 0,29,30
 221 387 221 387 256 376.5 c 128,-1,31
 291 366 291 366 348 339 c 0,32,33
 425 304 425 304 479 289.5 c 128,-1,34
 533 275 533 275 586 274 c 1,35,-1
 565 162 l 1,36,37
 520 160 520 160 480 149 c 1,38,39
 503 135 503 135 543.5 130 c 128,-1,40
 584 125 584 125 660 125 c 0,41,0
 699 125 699 125 699 85 c 0,1,2
EndSplineSet
PairPos2: "'kern' Horizontal Kerning in Arabic lookup 2 per glyph data 2" uni0671 dx=60 dy=0 dh=60 dv=0 dx=0 dy=0 dh=0 dv=0
PairPos2: "'kern' Horizontal Kerning in Arabic lookup 2 per glyph data 2" afii57410 dx=60 dy=0 dh=60 dv=0 dx=0 dy=0 dh=0 dv=0
PairPos2: "'kern' Horizontal Kerning in Arabic lookup 2 per glyph data 2" afii57411 dx=60 dy=0 dh=60 dv=0 dx=0 dy=0 dh=0 dv=0
PairPos2: "'kern' Horizontal Kerning in Arabic lookup 2 per glyph data 2" uniFE8E.short dx=60 dy=0 dh=60 dv=0 dx=0 dy=0 dh=0 dv=0
PairPos2: "'kern' Horizontal Kerning in Arabic lookup 2 per glyph data 2" afii57415.short dx=60 dy=0 dh=60 dv=0 dx=0 dy=0 dh=0 dv=0
PairPos2: "'kern' Horizontal Kerning in Arabic lookup 2 per glyph data 2" afii57415 dx=60 dy=0 dh=60 dv=0 dx=0 dy=0 dh=0 dv=0
PairPos2: "'kern' Horizontal Kerning in Arabic lookup 2 per glyph data 1" uniFEF3 dx=40 dy=0 dh=40 dv=0 dx=0 dy=0 dh=0 dv=0
PairPos2: "'kern' Horizontal Kerning in Arabic lookup 2 per glyph data 1" uniFB58 dx=40 dy=0 dh=40 dv=0 dx=0 dy=0 dh=0 dv=0
PairPos2: "'kern' Horizontal Kerning in Arabic lookup 2 per glyph data 1" afii57413 dx=40 dy=0 dh=40 dv=0 dx=0 dy=0 dh=0 dv=0
PairPos2: "'kern' Horizontal Kerning in Arabic lookup 2 per glyph data 1" uniFB94 dx=110 dy=0 dh=110 dv=0 dx=0 dy=0 dh=0 dv=0
PairPos2: "'kern' Horizontal Kerning in Arabic lookup 2 per glyph data 1" afii57509 dx=110 dy=0 dh=110 dv=0 dx=0 dy=0 dh=0 dv=0
PairPos2: "'kern' Horizontal Kerning in Arabic lookup 2 per glyph data 1" uniFB90 dx=110 dy=0 dh=110 dv=0 dx=0 dy=0 dh=0 dv=0
PairPos2: "'kern' Horizontal Kerning in Arabic lookup 2 per glyph data 1" uni06A9 dx=110 dy=0 dh=110 dv=0 dx=0 dy=0 dh=0 dv=0
PairPos2: "'kern' Horizontal Kerning in Arabic lookup 2 per glyph data 1" uniFEDB dx=110 dy=0 dh=110 dv=0 dx=0 dy=0 dh=0 dv=0
EndChar

StartChar: uniFEA3
Encoding: 453 65187 117
Width: 610
GlyphClass: 2
Flags: W
AnchorPoint: "Anchor-11" 0 0 basechar 0
AnchorPoint: "Anchor-10" 194 387 basechar 0
AnchorPoint: "Anchor-9" 264 0 basechar 0
LayerCount: 2
Fore
SplineSet
503.5 264.5 m 128,-1,1
 547 249 547 249 583 247 c 1,2,-1
 551 127 l 1,3,4
 498 121 498 121 429.5 104 c 128,-1,5
 361 87 361 87 284 61 c 0,6,7
 181 26 181 26 119 13 c 128,-1,8
 57 0 57 0 0 0 c 1,9,-1
 27 125 l 1,10,11
 90 125 90 125 143.5 132.5 c 128,-1,12
 197 140 197 140 288 164 c 0,13,14
 322 174 322 174 353 181.5 c 128,-1,15
 384 189 384 189 392 191 c 1,16,17
 378 197 378 197 344 214 c 0,18,19
 287 245 287 245 249.5 257 c 128,-1,20
 212 269 212 269 179 269 c 0,21,22
 148 269 148 269 121.5 264 c 128,-1,23
 95 259 95 259 64 250 c 1,24,-1
 59 255 l 1,25,-1
 103 365 l 1,26,27
 121 375 121 375 145.5 381 c 128,-1,28
 170 387 170 387 194 387 c 0,29,30
 227 387 227 387 264.5 373 c 128,-1,31
 302 359 302 359 380 320 c 0,32,0
 460 280 460 280 503.5 264.5 c 128,-1,1
EndSplineSet
PairPos2: "'kern' Horizontal Kerning in Arabic lookup 2 per glyph data 2" uni0671 dx=60 dy=0 dh=60 dv=0 dx=0 dy=0 dh=0 dv=0
PairPos2: "'kern' Horizontal Kerning in Arabic lookup 2 per glyph data 2" afii57410 dx=60 dy=0 dh=60 dv=0 dx=0 dy=0 dh=0 dv=0
PairPos2: "'kern' Horizontal Kerning in Arabic lookup 2 per glyph data 2" afii57411 dx=60 dy=0 dh=60 dv=0 dx=0 dy=0 dh=0 dv=0
PairPos2: "'kern' Horizontal Kerning in Arabic lookup 2 per glyph data 2" uniFE8E.short dx=60 dy=0 dh=60 dv=0 dx=0 dy=0 dh=0 dv=0
PairPos2: "'kern' Horizontal Kerning in Arabic lookup 2 per glyph data 2" afii57415.short dx=60 dy=0 dh=60 dv=0 dx=0 dy=0 dh=0 dv=0
PairPos2: "'kern' Horizontal Kerning in Arabic lookup 2 per glyph data 2" afii57415 dx=60 dy=0 dh=60 dv=0 dx=0 dy=0 dh=0 dv=0
PairPos2: "'kern' Horizontal Kerning in Arabic lookup 2 per glyph data 1" uniFEF3 dx=40 dy=0 dh=40 dv=0 dx=0 dy=0 dh=0 dv=0
PairPos2: "'kern' Horizontal Kerning in Arabic lookup 2 per glyph data 1" uniFB58 dx=40 dy=0 dh=40 dv=0 dx=0 dy=0 dh=0 dv=0
PairPos2: "'kern' Horizontal Kerning in Arabic lookup 2 per glyph data 1" afii57413 dx=40 dy=0 dh=40 dv=0 dx=0 dy=0 dh=0 dv=0
PairPos2: "'kern' Horizontal Kerning in Arabic lookup 2 per glyph data 1" uniFB94 dx=110 dy=0 dh=110 dv=0 dx=0 dy=0 dh=0 dv=0
PairPos2: "'kern' Horizontal Kerning in Arabic lookup 2 per glyph data 1" afii57509 dx=110 dy=0 dh=110 dv=0 dx=0 dy=0 dh=0 dv=0
PairPos2: "'kern' Horizontal Kerning in Arabic lookup 2 per glyph data 1" uniFB90 dx=110 dy=0 dh=110 dv=0 dx=0 dy=0 dh=0 dv=0
PairPos2: "'kern' Horizontal Kerning in Arabic lookup 2 per glyph data 1" uni06A9 dx=110 dy=0 dh=110 dv=0 dx=0 dy=0 dh=0 dv=0
PairPos2: "'kern' Horizontal Kerning in Arabic lookup 2 per glyph data 1" uniFEDB dx=110 dy=0 dh=110 dv=0 dx=0 dy=0 dh=0 dv=0
EndChar

